<ttFont>
    <TTGlyph name="A" xMin="15" yMin="0" xMax="642" yMax="750">
      <contour>
        <pt x="195" y="750" on="1"/>
        <pt x="462" y="750" on="1"/>
        <pt x="462" y="670" on="1"/>
        <pt x="416" y="670" on="1"/>
        <pt x="592" y="80" on="1"/>
        <pt x="642" y="80" on="1"/>
        <pt x="642" y="0" on="1"/>
        <pt x="430" y="0" on="1"/>
        <pt x="430" y="80" on="1"/>
        <pt x="500" y="80" on="1"/>
        <pt x="454" y="234" on="1"/>
        <pt x="203" y="234" on="1"/>
        <pt x="157" y="80" on="1"/>
        <pt x="227" y="80" on="1"/>
        <pt x="227" y="0" on="1"/>
        <pt x="15" y="0" on="1"/>
        <pt x="15" y="80" on="1"/>
        <pt x="65" y="80" on="1"/>
        <pt x="241" y="670" on="1"/>
        <pt x="195" y="670" on="1"/>
      </contour>
      <contour>
        <pt x="328" y="655" on="1"/>
        <pt x="227" y="314" on="1"/>
        <pt x="430" y="314" on="1"/>
      </contour>
    </TTGlyph>
    <TTGlyph name="AE" xMin="15" yMin="0" xMax="867" yMax="750">
      <contour>
        <pt x="391" y="80" on="1"/>
        <pt x="461" y="80" on="1"/>
        <pt x="461" y="335" on="1"/>
        <pt x="233" y="335" on="1"/>
        <pt x="157" y="80" on="1"/>
        <pt x="227" y="80" on="1"/>
        <pt x="227" y="0" on="1"/>
        <pt x="15" y="0" on="1"/>
        <pt x="15" y="80" on="1"/>
        <pt x="65" y="80" on="1"/>
        <pt x="241" y="670" on="1"/>
        <pt x="195" y="670" on="1"/>
        <pt x="195" y="750" on="1"/>
        <pt x="867" y="750" on="1"/>
        <pt x="867" y="554" on="1"/>
        <pt x="787" y="554" on="1"/>
        <pt x="787" y="670" on="1"/>
        <pt x="553" y="670" on="1"/>
        <pt x="553" y="415" on="1"/>
        <pt x="787" y="415" on="1"/>
        <pt x="787" y="335" on="1"/>
        <pt x="553" y="335" on="1"/>
        <pt x="553" y="80" on="1"/>
        <pt x="787" y="80" on="1"/>
        <pt x="787" y="196" on="1"/>
        <pt x="867" y="196" on="1"/>
        <pt x="867" y="0" on="1"/>
        <pt x="391" y="0" on="1"/>
      </contour>
      <contour>
        <pt x="461" y="415" on="1"/>
        <pt x="461" y="670" on="1"/>
        <pt x="333" y="670" on="1"/>
        <pt x="257" y="415" on="1"/>
      </contour>
    </TTGlyph>
    <TTGlyph name="Aacute" xMin="15" yMin="0" xMax="642" yMax="926">
      <contour>
        <pt x="430" y="0" on="1"/>
        <pt x="430" y="80" on="1"/>
        <pt x="500" y="80" on="1"/>
        <pt x="454" y="234" on="1"/>
        <pt x="203" y="234" on="1"/>
        <pt x="157" y="80" on="1"/>
        <pt x="227" y="80" on="1"/>
        <pt x="227" y="0" on="1"/>
        <pt x="15" y="0" on="1"/>
        <pt x="15" y="80" on="1"/>
        <pt x="65" y="80" on="1"/>
        <pt x="241" y="670" on="1"/>
        <pt x="195" y="670" on="1"/>
        <pt x="195" y="750" on="1"/>
        <pt x="462" y="750" on="1"/>
        <pt x="462" y="670" on="1"/>
        <pt x="416" y="670" on="1"/>
        <pt x="592" y="80" on="1"/>
        <pt x="642" y="80" on="1"/>
        <pt x="642" y="0" on="1"/>
      </contour>
      <contour>
        <pt x="328" y="655" on="1"/>
        <pt x="227" y="314" on="1"/>
        <pt x="430" y="314" on="1"/>
      </contour>
      <contour>
        <pt x="411" y="926" on="1"/>
        <pt x="440" y="843" on="1"/>
        <pt x="362" y="811" on="1"/>
        <pt x="230" y="811" on="1"/>
        <pt x="217" y="849" on="1"/>
      </contour>
    </TTGlyph>
    <TTGlyph name="Acircumflex" xMin="15" yMin="0" xMax="642" yMax="916">
      <contour>
        <pt x="430" y="0" on="1"/>
        <pt x="430" y="80" on="1"/>
        <pt x="500" y="80" on="1"/>
        <pt x="454" y="234" on="1"/>
        <pt x="203" y="234" on="1"/>
        <pt x="157" y="80" on="1"/>
        <pt x="227" y="80" on="1"/>
        <pt x="227" y="0" on="1"/>
        <pt x="15" y="0" on="1"/>
        <pt x="15" y="80" on="1"/>
        <pt x="65" y="80" on="1"/>
        <pt x="241" y="670" on="1"/>
        <pt x="195" y="670" on="1"/>
        <pt x="195" y="750" on="1"/>
        <pt x="462" y="750" on="1"/>
        <pt x="462" y="670" on="1"/>
        <pt x="416" y="670" on="1"/>
        <pt x="592" y="80" on="1"/>
        <pt x="642" y="80" on="1"/>
        <pt x="642" y="0" on="1"/>
      </contour>
      <contour>
        <pt x="328" y="655" on="1"/>
        <pt x="227" y="314" on="1"/>
        <pt x="430" y="314" on="1"/>
      </contour>
      <contour>
        <pt x="279" y="916" on="1"/>
        <pt x="378" y="916" on="1"/>
        <pt x="467" y="839" on="1"/>
        <pt x="454" y="811" on="1"/>
        <pt x="372" y="811" on="1"/>
        <pt x="328" y="860" on="1"/>
        <pt x="285" y="811" on="1"/>
        <pt x="203" y="811" on="1"/>
        <pt x="190" y="839" on="1"/>
      </contour>
    </TTGlyph>
    <TTGlyph name="Adieresis" xMin="15" yMin="0" xMax="642" yMax="912">
      <contour>
        <pt x="430" y="0" on="1"/>
        <pt x="430" y="80" on="1"/>
        <pt x="500" y="80" on="1"/>
        <pt x="454" y="234" on="1"/>
        <pt x="203" y="234" on="1"/>
        <pt x="157" y="80" on="1"/>
        <pt x="227" y="80" on="1"/>
        <pt x="227" y="0" on="1"/>
        <pt x="15" y="0" on="1"/>
        <pt x="15" y="80" on="1"/>
        <pt x="65" y="80" on="1"/>
        <pt x="241" y="670" on="1"/>
        <pt x="195" y="670" on="1"/>
        <pt x="195" y="750" on="1"/>
        <pt x="462" y="750" on="1"/>
        <pt x="462" y="670" on="1"/>
        <pt x="416" y="670" on="1"/>
        <pt x="592" y="80" on="1"/>
        <pt x="642" y="80" on="1"/>
        <pt x="642" y="0" on="1"/>
      </contour>
      <contour>
        <pt x="328" y="655" on="1"/>
        <pt x="227" y="314" on="1"/>
        <pt x="430" y="314" on="1"/>
      </contour>
      <contour>
        <pt x="372" y="811" on="1"/>
        <pt x="372" y="912" on="1"/>
        <pt x="464" y="912" on="1"/>
        <pt x="464" y="811" on="1"/>
      </contour>
      <contour>
        <pt x="193" y="811" on="1"/>
        <pt x="193" y="912" on="1"/>
        <pt x="285" y="912" on="1"/>
        <pt x="285" y="811" on="1"/>
      </contour>
    </TTGlyph>
    <TTGlyph name="Agrave" xMin="15" yMin="0" xMax="642" yMax="926">
      <contour>
        <pt x="195" y="750" on="1"/>
        <pt x="462" y="750" on="1"/>
        <pt x="462" y="670" on="1"/>
        <pt x="416" y="670" on="1"/>
        <pt x="592" y="80" on="1"/>
        <pt x="642" y="80" on="1"/>
        <pt x="642" y="0" on="1"/>
        <pt x="430" y="0" on="1"/>
        <pt x="430" y="80" on="1"/>
        <pt x="500" y="80" on="1"/>
        <pt x="454" y="234" on="1"/>
        <pt x="203" y="234" on="1"/>
        <pt x="157" y="80" on="1"/>
        <pt x="227" y="80" on="1"/>
        <pt x="227" y="0" on="1"/>
        <pt x="15" y="0" on="1"/>
        <pt x="15" y="80" on="1"/>
        <pt x="65" y="80" on="1"/>
        <pt x="241" y="670" on="1"/>
        <pt x="195" y="670" on="1"/>
      </contour>
      <contour>
        <pt x="328" y="655" on="1"/>
        <pt x="227" y="314" on="1"/>
        <pt x="430" y="314" on="1"/>
      </contour>
      <contour>
        <pt x="217" y="843" on="1"/>
        <pt x="246" y="926" on="1"/>
        <pt x="440" y="849" on="1"/>
        <pt x="427" y="811" on="1"/>
        <pt x="295" y="811" on="1"/>
      </contour>
    </TTGlyph>
    <TTGlyph name="Aring" xMin="15" yMin="0" xMax="642" yMax="953">
      <contour>
        <pt x="462" y="750" on="1"/>
        <pt x="462" y="670" on="1"/>
        <pt x="416" y="670" on="1"/>
        <pt x="592" y="80" on="1"/>
        <pt x="642" y="80" on="1"/>
        <pt x="642" y="0" on="1"/>
        <pt x="430" y="0" on="1"/>
        <pt x="430" y="80" on="1"/>
        <pt x="500" y="80" on="1"/>
        <pt x="454" y="234" on="1"/>
        <pt x="203" y="234" on="1"/>
        <pt x="157" y="80" on="1"/>
        <pt x="227" y="80" on="1"/>
        <pt x="227" y="0" on="1"/>
        <pt x="15" y="0" on="1"/>
        <pt x="15" y="80" on="1"/>
        <pt x="65" y="80" on="1"/>
        <pt x="241" y="670" on="1"/>
        <pt x="195" y="670" on="1"/>
        <pt x="195" y="750" on="1"/>
      </contour>
      <contour>
        <pt x="328" y="655" on="1"/>
        <pt x="227" y="314" on="1"/>
        <pt x="430" y="314" on="1"/>
      </contour>
      <contour>
        <pt x="285" y="801" on="1"/>
        <pt x="250" y="838" on="1"/>
        <pt x="250" y="916" on="1"/>
        <pt x="285" y="953" on="1"/>
        <pt x="372" y="953" on="1"/>
        <pt x="407" y="916" on="1"/>
        <pt x="407" y="838" on="1"/>
        <pt x="372" y="801" on="1"/>
      </contour>
      <contour>
        <pt x="294" y="842" on="1"/>
        <pt x="363" y="842" on="1"/>
        <pt x="363" y="912" on="1"/>
        <pt x="294" y="912" on="1"/>
      </contour>
    </TTGlyph>
    <TTGlyph name="Atilde" xMin="15" yMin="0" xMax="642" yMax="916">
      <contour>
        <pt x="430" y="0" on="1"/>
        <pt x="430" y="80" on="1"/>
        <pt x="500" y="80" on="1"/>
        <pt x="454" y="234" on="1"/>
        <pt x="203" y="234" on="1"/>
        <pt x="157" y="80" on="1"/>
        <pt x="227" y="80" on="1"/>
        <pt x="227" y="0" on="1"/>
        <pt x="15" y="0" on="1"/>
        <pt x="15" y="80" on="1"/>
        <pt x="65" y="80" on="1"/>
        <pt x="241" y="670" on="1"/>
        <pt x="195" y="670" on="1"/>
        <pt x="195" y="750" on="1"/>
        <pt x="462" y="750" on="1"/>
        <pt x="462" y="670" on="1"/>
        <pt x="416" y="670" on="1"/>
        <pt x="592" y="80" on="1"/>
        <pt x="642" y="80" on="1"/>
        <pt x="642" y="0" on="1"/>
      </contour>
      <contour>
        <pt x="328" y="655" on="1"/>
        <pt x="227" y="314" on="1"/>
        <pt x="430" y="314" on="1"/>
      </contour>
      <contour>
        <pt x="399" y="811" on="1"/>
        <pt x="373" y="811" on="1"/>
        <pt x="316" y="839" on="1"/>
        <pt x="284" y="811" on="1"/>
        <pt x="212" y="811" on="1"/>
        <pt x="199" y="839" on="1"/>
        <pt x="277" y="916" on="1"/>
        <pt x="303" y="916" on="1"/>
        <pt x="360" y="888" on="1"/>
        <pt x="392" y="916" on="1"/>
        <pt x="464" y="916" on="1"/>
        <pt x="477" y="888" on="1"/>
      </contour>
    </TTGlyph>
    <TTGlyph name="B" xMin="80" yMin="0" xMax="604" yMax="750">
      <contour>
        <pt x="80" y="750" on="1"/>
        <pt x="480" y="750" on="1"/>
        <pt x="584" y="640" on="1"/>
        <pt x="584" y="460" on="1"/>
        <pt x="530" y="403" on="1"/>
        <pt x="604" y="326" on="1"/>
        <pt x="604" y="110" on="1"/>
        <pt x="500" y="0" on="1"/>
        <pt x="80" y="0" on="1"/>
        <pt x="80" y="80" on="1"/>
        <pt x="150" y="80" on="1"/>
        <pt x="150" y="670" on="1"/>
        <pt x="80" y="670" on="1"/>
      </contour>
      <contour>
        <pt x="242" y="356" on="1"/>
        <pt x="242" y="86" on="1"/>
        <pt x="460" y="86" on="1"/>
        <pt x="518" y="145" on="1"/>
        <pt x="518" y="291" on="1"/>
        <pt x="455" y="356" on="1"/>
      </contour>
      <contour>
        <pt x="242" y="664" on="1"/>
        <pt x="242" y="436" on="1"/>
        <pt x="440" y="436" on="1"/>
        <pt x="498" y="495" on="1"/>
        <pt x="498" y="605" on="1"/>
        <pt x="441" y="664" on="1"/>
      </contour>
    </TTGlyph>
    <TTGlyph name="C" xMin="80" yMin="0" xMax="540" yMax="750">
      <contour>
        <pt x="460" y="236" on="1"/>
        <pt x="540" y="236" on="1"/>
        <pt x="540" y="110" on="1"/>
        <pt x="436" y="0" on="1"/>
        <pt x="184" y="0" on="1"/>
        <pt x="80" y="110" on="1"/>
        <pt x="80" y="640" on="1"/>
        <pt x="184" y="750" on="1"/>
        <pt x="436" y="750" on="1"/>
        <pt x="540" y="640" on="1"/>
        <pt x="540" y="514" on="1"/>
        <pt x="460" y="514" on="1"/>
        <pt x="460" y="599" on="1"/>
        <pt x="397" y="664" on="1"/>
        <pt x="224" y="664" on="1"/>
        <pt x="172" y="611" on="1"/>
        <pt x="172" y="139" on="1"/>
        <pt x="223" y="86" on="1"/>
        <pt x="396" y="86" on="1"/>
        <pt x="460" y="151" on="1"/>
      </contour>
    </TTGlyph>
    <TTGlyph name="Ccedilla" xMin="80" yMin="-150" xMax="540" yMax="750">
      <contour>
        <pt x="540" y="514" on="1"/>
        <pt x="460" y="514" on="1"/>
        <pt x="460" y="599" on="1"/>
        <pt x="397" y="664" on="1"/>
        <pt x="224" y="664" on="1"/>
        <pt x="172" y="611" on="1"/>
        <pt x="172" y="139" on="1"/>
        <pt x="223" y="86" on="1"/>
        <pt x="396" y="86" on="1"/>
        <pt x="460" y="151" on="1"/>
        <pt x="460" y="236" on="1"/>
        <pt x="540" y="236" on="1"/>
        <pt x="540" y="110" on="1"/>
        <pt x="436" y="0" on="1"/>
        <pt x="360" y="0" on="1"/>
        <pt x="290" y="-150" on="1"/>
        <pt x="240" y="-150" on="1"/>
        <pt x="260" y="0" on="1"/>
        <pt x="184" y="0" on="1"/>
        <pt x="80" y="110" on="1"/>
        <pt x="80" y="640" on="1"/>
        <pt x="184" y="750" on="1"/>
        <pt x="436" y="750" on="1"/>
        <pt x="540" y="640" on="1"/>
      </contour>
    </TTGlyph>
    <TTGlyph name="D" xMin="80" yMin="0" xMax="610" yMax="750">
      <contour>
        <pt x="80" y="750" on="1"/>
        <pt x="506" y="750" on="1"/>
        <pt x="610" y="640" on="1"/>
        <pt x="610" y="110" on="1"/>
        <pt x="506" y="0" on="1"/>
        <pt x="80" y="0" on="1"/>
        <pt x="80" y="80" on="1"/>
        <pt x="150" y="80" on="1"/>
        <pt x="150" y="670" on="1"/>
        <pt x="80" y="670" on="1"/>
      </contour>
      <contour>
        <pt x="242" y="86" on="1"/>
        <pt x="466" y="86" on="1"/>
        <pt x="518" y="139" on="1"/>
        <pt x="518" y="611" on="1"/>
        <pt x="467" y="664" on="1"/>
        <pt x="242" y="664" on="1"/>
      </contour>
    </TTGlyph>
    <TTGlyph name="Delta" xMin="40" yMin="0" xMax="667" yMax="750">
      <contour>
        <pt x="667" y="0" on="1"/>
        <pt x="40" y="0" on="1"/>
        <pt x="40" y="80" on="1"/>
        <pt x="290" y="750" on="1"/>
        <pt x="417" y="750" on="1"/>
        <pt x="667" y="80" on="1"/>
      </contour>
      <contour>
        <pt x="575" y="80" on="1"/>
        <pt x="353" y="673" on="1"/>
        <pt x="132" y="80" on="1"/>
      </contour>
    </TTGlyph>
    <TTGlyph name="E" xMin="80" yMin="0" xMax="556" yMax="750">
      <contour>
        <pt x="80" y="750" on="1"/>
        <pt x="556" y="750" on="1"/>
        <pt x="556" y="554" on="1"/>
        <pt x="476" y="554" on="1"/>
        <pt x="476" y="670" on="1"/>
        <pt x="242" y="670" on="1"/>
        <pt x="242" y="415" on="1"/>
        <pt x="476" y="415" on="1"/>
        <pt x="476" y="335" on="1"/>
        <pt x="242" y="335" on="1"/>
        <pt x="242" y="80" on="1"/>
        <pt x="476" y="80" on="1"/>
        <pt x="476" y="196" on="1"/>
        <pt x="556" y="196" on="1"/>
        <pt x="556" y="0" on="1"/>
        <pt x="80" y="0" on="1"/>
        <pt x="80" y="80" on="1"/>
        <pt x="150" y="80" on="1"/>
        <pt x="150" y="670" on="1"/>
        <pt x="80" y="670" on="1"/>
      </contour>
    </TTGlyph>
    <TTGlyph name="Eacute" xMin="80" yMin="0" xMax="556" yMax="926">
      <contour>
        <pt x="80" y="750" on="1"/>
        <pt x="556" y="750" on="1"/>
        <pt x="556" y="554" on="1"/>
        <pt x="476" y="554" on="1"/>
        <pt x="476" y="670" on="1"/>
        <pt x="242" y="670" on="1"/>
        <pt x="242" y="415" on="1"/>
        <pt x="476" y="415" on="1"/>
        <pt x="476" y="335" on="1"/>
        <pt x="242" y="335" on="1"/>
        <pt x="242" y="80" on="1"/>
        <pt x="476" y="80" on="1"/>
        <pt x="476" y="196" on="1"/>
        <pt x="556" y="196" on="1"/>
        <pt x="556" y="0" on="1"/>
        <pt x="80" y="0" on="1"/>
        <pt x="80" y="80" on="1"/>
        <pt x="150" y="80" on="1"/>
        <pt x="150" y="670" on="1"/>
        <pt x="80" y="670" on="1"/>
      </contour>
      <contour>
        <pt x="395" y="926" on="1"/>
        <pt x="424" y="843" on="1"/>
        <pt x="346" y="811" on="1"/>
        <pt x="214" y="811" on="1"/>
        <pt x="201" y="849" on="1"/>
      </contour>
    </TTGlyph>
    <TTGlyph name="Ecircumflex" xMin="80" yMin="0" xMax="556" yMax="916">
      <contour>
        <pt x="80" y="750" on="1"/>
        <pt x="556" y="750" on="1"/>
        <pt x="556" y="554" on="1"/>
        <pt x="476" y="554" on="1"/>
        <pt x="476" y="670" on="1"/>
        <pt x="242" y="670" on="1"/>
        <pt x="242" y="415" on="1"/>
        <pt x="476" y="415" on="1"/>
        <pt x="476" y="335" on="1"/>
        <pt x="242" y="335" on="1"/>
        <pt x="242" y="80" on="1"/>
        <pt x="476" y="80" on="1"/>
        <pt x="476" y="196" on="1"/>
        <pt x="556" y="196" on="1"/>
        <pt x="556" y="0" on="1"/>
        <pt x="80" y="0" on="1"/>
        <pt x="80" y="80" on="1"/>
        <pt x="150" y="80" on="1"/>
        <pt x="150" y="670" on="1"/>
        <pt x="80" y="670" on="1"/>
      </contour>
      <contour>
        <pt x="263" y="916" on="1"/>
        <pt x="362" y="916" on="1"/>
        <pt x="451" y="839" on="1"/>
        <pt x="438" y="811" on="1"/>
        <pt x="356" y="811" on="1"/>
        <pt x="312" y="860" on="1"/>
        <pt x="269" y="811" on="1"/>
        <pt x="187" y="811" on="1"/>
        <pt x="174" y="839" on="1"/>
      </contour>
    </TTGlyph>
    <TTGlyph name="Edieresis" xMin="80" yMin="0" xMax="556" yMax="912">
      <contour>
        <pt x="80" y="750" on="1"/>
        <pt x="556" y="750" on="1"/>
        <pt x="556" y="554" on="1"/>
        <pt x="476" y="554" on="1"/>
        <pt x="476" y="670" on="1"/>
        <pt x="242" y="670" on="1"/>
        <pt x="242" y="415" on="1"/>
        <pt x="476" y="415" on="1"/>
        <pt x="476" y="335" on="1"/>
        <pt x="242" y="335" on="1"/>
        <pt x="242" y="80" on="1"/>
        <pt x="476" y="80" on="1"/>
        <pt x="476" y="196" on="1"/>
        <pt x="556" y="196" on="1"/>
        <pt x="556" y="0" on="1"/>
        <pt x="80" y="0" on="1"/>
        <pt x="80" y="80" on="1"/>
        <pt x="150" y="80" on="1"/>
        <pt x="150" y="670" on="1"/>
        <pt x="80" y="670" on="1"/>
      </contour>
      <contour>
        <pt x="177" y="811" on="1"/>
        <pt x="177" y="912" on="1"/>
        <pt x="269" y="912" on="1"/>
        <pt x="269" y="811" on="1"/>
      </contour>
      <contour>
        <pt x="356" y="811" on="1"/>
        <pt x="356" y="912" on="1"/>
        <pt x="448" y="912" on="1"/>
        <pt x="448" y="811" on="1"/>
      </contour>
    </TTGlyph>
    <TTGlyph name="Egrave" xMin="80" yMin="0" xMax="556" yMax="926">
      <contour>
        <pt x="80" y="750" on="1"/>
        <pt x="556" y="750" on="1"/>
        <pt x="556" y="554" on="1"/>
        <pt x="476" y="554" on="1"/>
        <pt x="476" y="670" on="1"/>
        <pt x="242" y="670" on="1"/>
        <pt x="242" y="415" on="1"/>
        <pt x="476" y="415" on="1"/>
        <pt x="476" y="335" on="1"/>
        <pt x="242" y="335" on="1"/>
        <pt x="242" y="80" on="1"/>
        <pt x="476" y="80" on="1"/>
        <pt x="476" y="196" on="1"/>
        <pt x="556" y="196" on="1"/>
        <pt x="556" y="0" on="1"/>
        <pt x="80" y="0" on="1"/>
        <pt x="80" y="80" on="1"/>
        <pt x="150" y="80" on="1"/>
        <pt x="150" y="670" on="1"/>
        <pt x="80" y="670" on="1"/>
      </contour>
      <contour>
        <pt x="201" y="843" on="1"/>
        <pt x="230" y="926" on="1"/>
        <pt x="424" y="849" on="1"/>
        <pt x="411" y="811" on="1"/>
        <pt x="279" y="811" on="1"/>
      </contour>
    </TTGlyph>
    <TTGlyph name="Eth" xMin="80" yMin="0" xMax="610" yMax="750">
      <contour>
        <pt x="80" y="750" on="1"/>
        <pt x="506" y="750" on="1"/>
        <pt x="610" y="640" on="1"/>
        <pt x="610" y="110" on="1"/>
        <pt x="506" y="0" on="1"/>
        <pt x="80" y="0" on="1"/>
        <pt x="80" y="80" on="1"/>
        <pt x="150" y="80" on="1"/>
        <pt x="150" y="335" on="1"/>
        <pt x="87" y="335" on="1"/>
        <pt x="87" y="415" on="1"/>
        <pt x="150" y="415" on="1"/>
        <pt x="150" y="670" on="1"/>
        <pt x="80" y="670" on="1"/>
      </contour>
      <contour>
        <pt x="242" y="86" on="1"/>
        <pt x="466" y="86" on="1"/>
        <pt x="518" y="139" on="1"/>
        <pt x="518" y="611" on="1"/>
        <pt x="467" y="664" on="1"/>
        <pt x="242" y="664" on="1"/>
        <pt x="242" y="415" on="1"/>
        <pt x="396" y="415" on="1"/>
        <pt x="396" y="335" on="1"/>
        <pt x="242" y="335" on="1"/>
      </contour>
    </TTGlyph>
    <TTGlyph name="Euro" xMin="72" yMin="0" xMax="591" yMax="750">
      <contour>
        <pt x="72" y="500" on="1"/>
        <pt x="130" y="500" on="1"/>
        <pt x="130" y="640" on="1"/>
        <pt x="234" y="750" on="1"/>
        <pt x="506" y="750" on="1"/>
        <pt x="591" y="661" on="1"/>
        <pt x="530" y="600" on="1"/>
        <pt x="467" y="664" on="1"/>
        <pt x="274" y="664" on="1"/>
        <pt x="222" y="611" on="1"/>
        <pt x="222" y="500" on="1"/>
        <pt x="498" y="500" on="1"/>
        <pt x="498" y="430" on="1"/>
        <pt x="222" y="430" on="1"/>
        <pt x="222" y="320" on="1"/>
        <pt x="498" y="320" on="1"/>
        <pt x="498" y="250" on="1"/>
        <pt x="222" y="250" on="1"/>
        <pt x="222" y="139" on="1"/>
        <pt x="273" y="86" on="1"/>
        <pt x="466" y="86" on="1"/>
        <pt x="530" y="151" on="1"/>
        <pt x="591" y="90" on="1"/>
        <pt x="506" y="0" on="1"/>
        <pt x="234" y="0" on="1"/>
        <pt x="130" y="110" on="1"/>
        <pt x="130" y="250" on="1"/>
        <pt x="72" y="250" on="1"/>
        <pt x="72" y="320" on="1"/>
        <pt x="130" y="320" on="1"/>
        <pt x="130" y="430" on="1"/>
        <pt x="72" y="430" on="1"/>
      </contour>
    </TTGlyph>
    <TTGlyph name="F" xMin="80" yMin="0" xMax="556" yMax="750">
      <contour>
        <pt x="80" y="750" on="1"/>
        <pt x="556" y="750" on="1"/>
        <pt x="556" y="554" on="1"/>
        <pt x="476" y="554" on="1"/>
        <pt x="476" y="670" on="1"/>
        <pt x="242" y="670" on="1"/>
        <pt x="242" y="415" on="1"/>
        <pt x="476" y="415" on="1"/>
        <pt x="476" y="335" on="1"/>
        <pt x="242" y="335" on="1"/>
        <pt x="242" y="80" on="1"/>
        <pt x="322" y="80" on="1"/>
        <pt x="322" y="0" on="1"/>
        <pt x="80" y="0" on="1"/>
        <pt x="80" y="80" on="1"/>
        <pt x="150" y="80" on="1"/>
        <pt x="150" y="670" on="1"/>
        <pt x="80" y="670" on="1"/>
      </contour>
    </TTGlyph>
    <TTGlyph name="G" xMin="80" yMin="0" xMax="550" yMax="750">
      <contour>
        <pt x="470" y="305" on="1"/>
        <pt x="332" y="305" on="1"/>
        <pt x="332" y="385" on="1"/>
        <pt x="550" y="385" on="1"/>
        <pt x="550" y="110" on="1"/>
        <pt x="446" y="0" on="1"/>
        <pt x="184" y="0" on="1"/>
        <pt x="80" y="110" on="1"/>
        <pt x="80" y="640" on="1"/>
        <pt x="184" y="750" on="1"/>
        <pt x="446" y="750" on="1"/>
        <pt x="550" y="640" on="1"/>
        <pt x="550" y="514" on="1"/>
        <pt x="470" y="514" on="1"/>
        <pt x="470" y="599" on="1"/>
        <pt x="407" y="664" on="1"/>
        <pt x="224" y="664" on="1"/>
        <pt x="172" y="611" on="1"/>
        <pt x="172" y="139" on="1"/>
        <pt x="223" y="86" on="1"/>
        <pt x="406" y="86" on="1"/>
        <pt x="470" y="151" on="1"/>
      </contour>
    </TTGlyph>
    <TTGlyph name="H" xMin="80" yMin="0" xMax="712" yMax="750">
      <contour>
        <pt x="80" y="750" on="1"/>
        <pt x="312" y="750" on="1"/>
        <pt x="312" y="670" on="1"/>
        <pt x="242" y="670" on="1"/>
        <pt x="242" y="415" on="1"/>
        <pt x="550" y="415" on="1"/>
        <pt x="550" y="670" on="1"/>
        <pt x="480" y="670" on="1"/>
        <pt x="480" y="750" on="1"/>
        <pt x="712" y="750" on="1"/>
        <pt x="712" y="670" on="1"/>
        <pt x="642" y="670" on="1"/>
        <pt x="642" y="80" on="1"/>
        <pt x="712" y="80" on="1"/>
        <pt x="712" y="0" on="1"/>
        <pt x="480" y="0" on="1"/>
        <pt x="480" y="80" on="1"/>
        <pt x="550" y="80" on="1"/>
        <pt x="550" y="335" on="1"/>
        <pt x="242" y="335" on="1"/>
        <pt x="242" y="80" on="1"/>
        <pt x="312" y="80" on="1"/>
        <pt x="312" y="0" on="1"/>
        <pt x="80" y="0" on="1"/>
        <pt x="80" y="80" on="1"/>
        <pt x="150" y="80" on="1"/>
        <pt x="150" y="670" on="1"/>
        <pt x="80" y="670" on="1"/>
      </contour>
    </TTGlyph>
    <TTGlyph name="I" xMin="70" yMin="0" xMax="322" yMax="750">
      <contour>
        <pt x="70" y="80" on="1"/>
        <pt x="150" y="80" on="1"/>
        <pt x="150" y="670" on="1"/>
        <pt x="70" y="670" on="1"/>
        <pt x="70" y="750" on="1"/>
        <pt x="322" y="750" on="1"/>
        <pt x="322" y="670" on="1"/>
        <pt x="242" y="670" on="1"/>
        <pt x="242" y="80" on="1"/>
        <pt x="322" y="80" on="1"/>
        <pt x="322" y="0" on="1"/>
        <pt x="70" y="0" on="1"/>
      </contour>
    </TTGlyph>
    <TTGlyph name="Iacute" xMin="70" yMin="0" xMax="322" yMax="926">
      <contour>
        <pt x="70" y="750" on="1"/>
        <pt x="322" y="750" on="1"/>
        <pt x="322" y="670" on="1"/>
        <pt x="242" y="670" on="1"/>
        <pt x="242" y="80" on="1"/>
        <pt x="322" y="80" on="1"/>
        <pt x="322" y="0" on="1"/>
        <pt x="70" y="0" on="1"/>
        <pt x="70" y="80" on="1"/>
        <pt x="150" y="80" on="1"/>
        <pt x="150" y="670" on="1"/>
        <pt x="70" y="670" on="1"/>
      </contour>
      <contour>
        <pt x="279" y="926" on="1"/>
        <pt x="308" y="843" on="1"/>
        <pt x="230" y="811" on="1"/>
        <pt x="98" y="811" on="1"/>
        <pt x="85" y="849" on="1"/>
      </contour>
    </TTGlyph>
    <TTGlyph name="Icircumflex" xMin="58" yMin="0" xMax="335" yMax="916">
      <contour>
        <pt x="70" y="750" on="1"/>
        <pt x="322" y="750" on="1"/>
        <pt x="322" y="670" on="1"/>
        <pt x="242" y="670" on="1"/>
        <pt x="242" y="80" on="1"/>
        <pt x="322" y="80" on="1"/>
        <pt x="322" y="0" on="1"/>
        <pt x="70" y="0" on="1"/>
        <pt x="70" y="80" on="1"/>
        <pt x="150" y="80" on="1"/>
        <pt x="150" y="670" on="1"/>
        <pt x="70" y="670" on="1"/>
      </contour>
      <contour>
        <pt x="147" y="916" on="1"/>
        <pt x="246" y="916" on="1"/>
        <pt x="335" y="839" on="1"/>
        <pt x="322" y="811" on="1"/>
        <pt x="240" y="811" on="1"/>
        <pt x="196" y="860" on="1"/>
        <pt x="153" y="811" on="1"/>
        <pt x="71" y="811" on="1"/>
        <pt x="58" y="839" on="1"/>
      </contour>
    </TTGlyph>
    <TTGlyph name="Idieresis" xMin="61" yMin="0" xMax="332" yMax="912">
      <contour>
        <pt x="70" y="750" on="1"/>
        <pt x="322" y="750" on="1"/>
        <pt x="322" y="670" on="1"/>
        <pt x="242" y="670" on="1"/>
        <pt x="242" y="80" on="1"/>
        <pt x="322" y="80" on="1"/>
        <pt x="322" y="0" on="1"/>
        <pt x="70" y="0" on="1"/>
        <pt x="70" y="80" on="1"/>
        <pt x="150" y="80" on="1"/>
        <pt x="150" y="670" on="1"/>
        <pt x="70" y="670" on="1"/>
      </contour>
      <contour>
        <pt x="240" y="811" on="1"/>
        <pt x="240" y="912" on="1"/>
        <pt x="332" y="912" on="1"/>
        <pt x="332" y="811" on="1"/>
      </contour>
      <contour>
        <pt x="61" y="811" on="1"/>
        <pt x="61" y="912" on="1"/>
        <pt x="153" y="912" on="1"/>
        <pt x="153" y="811" on="1"/>
      </contour>
    </TTGlyph>
    <TTGlyph name="Igrave" xMin="70" yMin="0" xMax="322" yMax="926">
      <contour>
        <pt x="70" y="750" on="1"/>
        <pt x="322" y="750" on="1"/>
        <pt x="322" y="670" on="1"/>
        <pt x="242" y="670" on="1"/>
        <pt x="242" y="80" on="1"/>
        <pt x="322" y="80" on="1"/>
        <pt x="322" y="0" on="1"/>
        <pt x="70" y="0" on="1"/>
        <pt x="70" y="80" on="1"/>
        <pt x="150" y="80" on="1"/>
        <pt x="150" y="670" on="1"/>
        <pt x="70" y="670" on="1"/>
      </contour>
      <contour>
        <pt x="85" y="843" on="1"/>
        <pt x="114" y="926" on="1"/>
        <pt x="308" y="849" on="1"/>
        <pt x="295" y="811" on="1"/>
        <pt x="163" y="811" on="1"/>
      </contour>
    </TTGlyph>
    <TTGlyph name="J" xMin="20" yMin="0" xMax="480" yMax="750">
      <contour>
        <pt x="328" y="670" on="1"/>
        <pt x="258" y="670" on="1"/>
        <pt x="258" y="750" on="1"/>
        <pt x="480" y="750" on="1"/>
        <pt x="480" y="670" on="1"/>
        <pt x="420" y="670" on="1"/>
        <pt x="420" y="110" on="1"/>
        <pt x="316" y="0" on="1"/>
        <pt x="124" y="0" on="1"/>
        <pt x="20" y="110" on="1"/>
        <pt x="20" y="286" on="1"/>
        <pt x="100" y="286" on="1"/>
        <pt x="100" y="151" on="1"/>
        <pt x="163" y="86" on="1"/>
        <pt x="276" y="86" on="1"/>
        <pt x="328" y="139" on="1"/>
      </contour>
    </TTGlyph>
    <TTGlyph name="K" xMin="80" yMin="0" xMax="649" yMax="750">
      <contour>
        <pt x="649" y="0" on="1"/>
        <pt x="437" y="0" on="1"/>
        <pt x="437" y="80" on="1"/>
        <pt x="495" y="80" on="1"/>
        <pt x="333" y="335" on="1"/>
        <pt x="242" y="335" on="1"/>
        <pt x="242" y="80" on="1"/>
        <pt x="312" y="80" on="1"/>
        <pt x="312" y="0" on="1"/>
        <pt x="80" y="0" on="1"/>
        <pt x="80" y="80" on="1"/>
        <pt x="150" y="80" on="1"/>
        <pt x="150" y="670" on="1"/>
        <pt x="80" y="670" on="1"/>
        <pt x="80" y="750" on="1"/>
        <pt x="312" y="750" on="1"/>
        <pt x="312" y="670" on="1"/>
        <pt x="242" y="670" on="1"/>
        <pt x="242" y="415" on="1"/>
        <pt x="326" y="415" on="1"/>
        <pt x="486" y="670" on="1"/>
        <pt x="427" y="670" on="1"/>
        <pt x="427" y="750" on="1"/>
        <pt x="639" y="750" on="1"/>
        <pt x="639" y="670" on="1"/>
        <pt x="589" y="670" on="1"/>
        <pt x="407" y="381" on="1"/>
        <pt x="598" y="80" on="1"/>
        <pt x="649" y="80" on="1"/>
      </contour>
    </TTGlyph>
    <TTGlyph name="L" xMin="80" yMin="0" xMax="536" yMax="750">
      <contour>
        <pt x="80" y="750" on="1"/>
        <pt x="322" y="750" on="1"/>
        <pt x="322" y="670" on="1"/>
        <pt x="242" y="670" on="1"/>
        <pt x="242" y="80" on="1"/>
        <pt x="460" y="80" on="1"/>
        <pt x="460" y="196" on="1"/>
        <pt x="536" y="196" on="1"/>
        <pt x="536" y="0" on="1"/>
        <pt x="80" y="0" on="1"/>
        <pt x="80" y="80" on="1"/>
        <pt x="150" y="80" on="1"/>
        <pt x="150" y="670" on="1"/>
        <pt x="80" y="670" on="1"/>
      </contour>
    </TTGlyph>
    <TTGlyph name="Lslash" xMin="68" yMin="0" xMax="536" yMax="750">
      <contour>
        <pt x="80" y="80" on="1"/>
        <pt x="150" y="80" on="1"/>
        <pt x="150" y="311" on="1"/>
        <pt x="68" y="285" on="1"/>
        <pt x="68" y="355" on="1"/>
        <pt x="150" y="381" on="1"/>
        <pt x="150" y="670" on="1"/>
        <pt x="80" y="670" on="1"/>
        <pt x="80" y="750" on="1"/>
        <pt x="322" y="750" on="1"/>
        <pt x="322" y="670" on="1"/>
        <pt x="242" y="670" on="1"/>
        <pt x="242" y="411" on="1"/>
        <pt x="377" y="455" on="1"/>
        <pt x="377" y="385" on="1"/>
        <pt x="242" y="341" on="1"/>
        <pt x="242" y="80" on="1"/>
        <pt x="460" y="80" on="1"/>
        <pt x="460" y="196" on="1"/>
        <pt x="536" y="196" on="1"/>
        <pt x="536" y="0" on="1"/>
        <pt x="80" y="0" on="1"/>
      </contour>
    </TTGlyph>
    <TTGlyph name="M" xMin="80" yMin="0" xMax="866" yMax="750">
      <contour>
        <pt x="80" y="750" on="1"/>
        <pt x="284" y="750" on="1"/>
        <pt x="473" y="194" on="1"/>
        <pt x="662" y="750" on="1"/>
        <pt x="866" y="750" on="1"/>
        <pt x="866" y="670" on="1"/>
        <pt x="796" y="670" on="1"/>
        <pt x="796" y="80" on="1"/>
        <pt x="866" y="80" on="1"/>
        <pt x="866" y="0" on="1"/>
        <pt x="634" y="0" on="1"/>
        <pt x="634" y="80" on="1"/>
        <pt x="704" y="80" on="1"/>
        <pt x="704" y="617" on="1"/>
        <pt x="517" y="80" on="1"/>
        <pt x="429" y="80" on="1"/>
        <pt x="242" y="617" on="1"/>
        <pt x="242" y="80" on="1"/>
        <pt x="312" y="80" on="1"/>
        <pt x="312" y="0" on="1"/>
        <pt x="80" y="0" on="1"/>
        <pt x="80" y="80" on="1"/>
        <pt x="150" y="80" on="1"/>
        <pt x="150" y="670" on="1"/>
        <pt x="80" y="670" on="1"/>
      </contour>
    </TTGlyph>
    <TTGlyph name="N" xMin="80" yMin="0" xMax="742" yMax="750">
      <contour>
        <pt x="242" y="80" on="1"/>
        <pt x="312" y="80" on="1"/>
        <pt x="312" y="0" on="1"/>
        <pt x="80" y="0" on="1"/>
        <pt x="80" y="80" on="1"/>
        <pt x="150" y="80" on="1"/>
        <pt x="150" y="670" on="1"/>
        <pt x="80" y="670" on="1"/>
        <pt x="80" y="750" on="1"/>
        <pt x="288" y="750" on="1"/>
        <pt x="580" y="113" on="1"/>
        <pt x="580" y="670" on="1"/>
        <pt x="510" y="670" on="1"/>
        <pt x="510" y="750" on="1"/>
        <pt x="742" y="750" on="1"/>
        <pt x="742" y="670" on="1"/>
        <pt x="672" y="670" on="1"/>
        <pt x="672" y="0" on="1"/>
        <pt x="534" y="0" on="1"/>
        <pt x="242" y="636" on="1"/>
      </contour>
    </TTGlyph>
    <TTGlyph name="Ntilde" xMin="80" yMin="0" xMax="742" yMax="916">
      <contour>
        <pt x="80" y="750" on="1"/>
        <pt x="288" y="750" on="1"/>
        <pt x="580" y="113" on="1"/>
        <pt x="580" y="670" on="1"/>
        <pt x="510" y="670" on="1"/>
        <pt x="510" y="750" on="1"/>
        <pt x="742" y="750" on="1"/>
        <pt x="742" y="670" on="1"/>
        <pt x="672" y="670" on="1"/>
        <pt x="672" y="0" on="1"/>
        <pt x="534" y="0" on="1"/>
        <pt x="242" y="636" on="1"/>
        <pt x="242" y="80" on="1"/>
        <pt x="312" y="80" on="1"/>
        <pt x="312" y="0" on="1"/>
        <pt x="80" y="0" on="1"/>
        <pt x="80" y="80" on="1"/>
        <pt x="150" y="80" on="1"/>
        <pt x="150" y="670" on="1"/>
        <pt x="80" y="670" on="1"/>
      </contour>
      <contour>
        <pt x="477" y="811" on="1"/>
        <pt x="451" y="811" on="1"/>
        <pt x="394" y="839" on="1"/>
        <pt x="362" y="811" on="1"/>
        <pt x="290" y="811" on="1"/>
        <pt x="277" y="839" on="1"/>
        <pt x="355" y="916" on="1"/>
        <pt x="381" y="916" on="1"/>
        <pt x="438" y="888" on="1"/>
        <pt x="470" y="916" on="1"/>
        <pt x="542" y="916" on="1"/>
        <pt x="555" y="888" on="1"/>
      </contour>
    </TTGlyph>
    <TTGlyph name="O" xMin="80" yMin="0" xMax="570" yMax="750">
      <contour>
        <pt x="184" y="0" on="1"/>
        <pt x="80" y="110" on="1"/>
        <pt x="80" y="640" on="1"/>
        <pt x="184" y="750" on="1"/>
        <pt x="466" y="750" on="1"/>
        <pt x="570" y="640" on="1"/>
        <pt x="570" y="110" on="1"/>
        <pt x="466" y="0" on="1"/>
      </contour>
      <contour>
        <pt x="223" y="86" on="1"/>
        <pt x="426" y="86" on="1"/>
        <pt x="478" y="139" on="1"/>
        <pt x="478" y="611" on="1"/>
        <pt x="427" y="664" on="1"/>
        <pt x="224" y="664" on="1"/>
        <pt x="172" y="611" on="1"/>
        <pt x="172" y="139" on="1"/>
      </contour>
    </TTGlyph>
    <TTGlyph name="OE" xMin="80" yMin="0" xMax="855" yMax="750">
      <contour>
        <pt x="855" y="750" on="1"/>
        <pt x="855" y="554" on="1"/>
        <pt x="775" y="554" on="1"/>
        <pt x="775" y="670" on="1"/>
        <pt x="540" y="670" on="1"/>
        <pt x="540" y="415" on="1"/>
        <pt x="775" y="415" on="1"/>
        <pt x="775" y="335" on="1"/>
        <pt x="540" y="335" on="1"/>
        <pt x="540" y="80" on="1"/>
        <pt x="775" y="80" on="1"/>
        <pt x="775" y="196" on="1"/>
        <pt x="855" y="196" on="1"/>
        <pt x="855" y="0" on="1"/>
        <pt x="184" y="0" on="1"/>
        <pt x="80" y="110" on="1"/>
        <pt x="80" y="640" on="1"/>
        <pt x="184" y="750" on="1"/>
      </contour>
      <contour>
        <pt x="448" y="80" on="1"/>
        <pt x="448" y="670" on="1"/>
        <pt x="230" y="670" on="1"/>
        <pt x="172" y="611" on="1"/>
        <pt x="172" y="139" on="1"/>
        <pt x="229" y="80" on="1"/>
      </contour>
    </TTGlyph>
    <TTGlyph name="Oacute" xMin="80" yMin="0" xMax="570" yMax="926">
      <contour>
        <pt x="184" y="0" on="1"/>
        <pt x="80" y="110" on="1"/>
        <pt x="80" y="640" on="1"/>
        <pt x="184" y="750" on="1"/>
        <pt x="466" y="750" on="1"/>
        <pt x="570" y="640" on="1"/>
        <pt x="570" y="110" on="1"/>
        <pt x="466" y="0" on="1"/>
      </contour>
      <contour>
        <pt x="223" y="86" on="1"/>
        <pt x="426" y="86" on="1"/>
        <pt x="478" y="139" on="1"/>
        <pt x="478" y="611" on="1"/>
        <pt x="427" y="664" on="1"/>
        <pt x="224" y="664" on="1"/>
        <pt x="172" y="611" on="1"/>
        <pt x="172" y="139" on="1"/>
      </contour>
      <contour>
        <pt x="407" y="926" on="1"/>
        <pt x="436" y="843" on="1"/>
        <pt x="358" y="811" on="1"/>
        <pt x="226" y="811" on="1"/>
        <pt x="213" y="849" on="1"/>
      </contour>
    </TTGlyph>
    <TTGlyph name="Ocircumflex" xMin="80" yMin="0" xMax="570" yMax="916">
      <contour>
        <pt x="184" y="0" on="1"/>
        <pt x="80" y="110" on="1"/>
        <pt x="80" y="640" on="1"/>
        <pt x="184" y="750" on="1"/>
        <pt x="466" y="750" on="1"/>
        <pt x="570" y="640" on="1"/>
        <pt x="570" y="110" on="1"/>
        <pt x="466" y="0" on="1"/>
      </contour>
      <contour>
        <pt x="223" y="86" on="1"/>
        <pt x="426" y="86" on="1"/>
        <pt x="478" y="139" on="1"/>
        <pt x="478" y="611" on="1"/>
        <pt x="427" y="664" on="1"/>
        <pt x="224" y="664" on="1"/>
        <pt x="172" y="611" on="1"/>
        <pt x="172" y="139" on="1"/>
      </contour>
      <contour>
        <pt x="275" y="916" on="1"/>
        <pt x="374" y="916" on="1"/>
        <pt x="463" y="839" on="1"/>
        <pt x="450" y="811" on="1"/>
        <pt x="368" y="811" on="1"/>
        <pt x="324" y="860" on="1"/>
        <pt x="281" y="811" on="1"/>
        <pt x="199" y="811" on="1"/>
        <pt x="186" y="839" on="1"/>
      </contour>
    </TTGlyph>
    <TTGlyph name="Odieresis" xMin="80" yMin="0" xMax="570" yMax="912">
      <contour>
        <pt x="184" y="0" on="1"/>
        <pt x="80" y="110" on="1"/>
        <pt x="80" y="640" on="1"/>
        <pt x="184" y="750" on="1"/>
        <pt x="466" y="750" on="1"/>
        <pt x="570" y="640" on="1"/>
        <pt x="570" y="110" on="1"/>
        <pt x="466" y="0" on="1"/>
      </contour>
      <contour>
        <pt x="223" y="86" on="1"/>
        <pt x="426" y="86" on="1"/>
        <pt x="478" y="139" on="1"/>
        <pt x="478" y="611" on="1"/>
        <pt x="427" y="664" on="1"/>
        <pt x="224" y="664" on="1"/>
        <pt x="172" y="611" on="1"/>
        <pt x="172" y="139" on="1"/>
      </contour>
      <contour>
        <pt x="189" y="811" on="1"/>
        <pt x="189" y="912" on="1"/>
        <pt x="281" y="912" on="1"/>
        <pt x="281" y="811" on="1"/>
      </contour>
      <contour>
        <pt x="368" y="811" on="1"/>
        <pt x="368" y="912" on="1"/>
        <pt x="460" y="912" on="1"/>
        <pt x="460" y="811" on="1"/>
      </contour>
    </TTGlyph>
    <TTGlyph name="Ograve" xMin="80" yMin="0" xMax="570" yMax="926">
      <contour>
        <pt x="184" y="0" on="1"/>
        <pt x="80" y="110" on="1"/>
        <pt x="80" y="640" on="1"/>
        <pt x="184" y="750" on="1"/>
        <pt x="466" y="750" on="1"/>
        <pt x="570" y="640" on="1"/>
        <pt x="570" y="110" on="1"/>
        <pt x="466" y="0" on="1"/>
      </contour>
      <contour>
        <pt x="223" y="86" on="1"/>
        <pt x="426" y="86" on="1"/>
        <pt x="478" y="139" on="1"/>
        <pt x="478" y="611" on="1"/>
        <pt x="427" y="664" on="1"/>
        <pt x="224" y="664" on="1"/>
        <pt x="172" y="611" on="1"/>
        <pt x="172" y="139" on="1"/>
      </contour>
      <contour>
        <pt x="213" y="843" on="1"/>
        <pt x="242" y="926" on="1"/>
        <pt x="436" y="849" on="1"/>
        <pt x="423" y="811" on="1"/>
        <pt x="291" y="811" on="1"/>
      </contour>
    </TTGlyph>
    <TTGlyph name="Omega" xMin="80" yMin="0" xMax="723" yMax="750">
      <contour>
        <pt x="543" y="180" on="1"/>
        <pt x="543" y="80" on="1"/>
        <pt x="723" y="80" on="1"/>
        <pt x="723" y="0" on="1"/>
        <pt x="461" y="0" on="1"/>
        <pt x="461" y="256" on="1"/>
        <pt x="553" y="256" on="1"/>
        <pt x="615" y="319" on="1"/>
        <pt x="615" y="611" on="1"/>
        <pt x="564" y="664" on="1"/>
        <pt x="241" y="664" on="1"/>
        <pt x="189" y="611" on="1"/>
        <pt x="189" y="319" on="1"/>
        <pt x="250" y="256" on="1"/>
        <pt x="342" y="256" on="1"/>
        <pt x="342" y="0" on="1"/>
        <pt x="80" y="0" on="1"/>
        <pt x="80" y="80" on="1"/>
        <pt x="260" y="80" on="1"/>
        <pt x="260" y="180" on="1"/>
        <pt x="201" y="180" on="1"/>
        <pt x="97" y="290" on="1"/>
        <pt x="97" y="640" on="1"/>
        <pt x="201" y="750" on="1"/>
        <pt x="603" y="750" on="1"/>
        <pt x="707" y="640" on="1"/>
        <pt x="707" y="290" on="1"/>
        <pt x="603" y="180" on="1"/>
      </contour>
    </TTGlyph>
    <TTGlyph name="Oslash" xMin="80" yMin="-80" xMax="570" yMax="830">
      <contour>
        <pt x="134" y="-80" on="1"/>
        <pt x="167" y="18" on="1"/>
        <pt x="80" y="110" on="1"/>
        <pt x="80" y="640" on="1"/>
        <pt x="184" y="750" on="1"/>
        <pt x="412" y="750" on="1"/>
        <pt x="439" y="830" on="1"/>
        <pt x="516" y="830" on="1"/>
        <pt x="483" y="732" on="1"/>
        <pt x="570" y="640" on="1"/>
        <pt x="570" y="110" on="1"/>
        <pt x="466" y="0" on="1"/>
        <pt x="238" y="0" on="1"/>
        <pt x="211" y="-80" on="1"/>
      </contour>
      <contour>
        <pt x="172" y="611" on="1"/>
        <pt x="172" y="139" on="1"/>
        <pt x="198" y="111" on="1"/>
        <pt x="383" y="664" on="1"/>
        <pt x="224" y="664" on="1"/>
      </contour>
      <contour>
        <pt x="478" y="611" on="1"/>
        <pt x="452" y="638" on="1"/>
        <pt x="267" y="86" on="1"/>
        <pt x="426" y="86" on="1"/>
        <pt x="478" y="139" on="1"/>
      </contour>
    </TTGlyph>
    <TTGlyph name="Otilde" xMin="80" yMin="0" xMax="570" yMax="916">
      <contour>
        <pt x="184" y="0" on="1"/>
        <pt x="80" y="110" on="1"/>
        <pt x="80" y="640" on="1"/>
        <pt x="184" y="750" on="1"/>
        <pt x="466" y="750" on="1"/>
        <pt x="570" y="640" on="1"/>
        <pt x="570" y="110" on="1"/>
        <pt x="466" y="0" on="1"/>
      </contour>
      <contour>
        <pt x="223" y="86" on="1"/>
        <pt x="426" y="86" on="1"/>
        <pt x="478" y="139" on="1"/>
        <pt x="478" y="611" on="1"/>
        <pt x="427" y="664" on="1"/>
        <pt x="224" y="664" on="1"/>
        <pt x="172" y="611" on="1"/>
        <pt x="172" y="139" on="1"/>
      </contour>
      <contour>
        <pt x="396" y="811" on="1"/>
        <pt x="370" y="811" on="1"/>
        <pt x="313" y="839" on="1"/>
        <pt x="281" y="811" on="1"/>
        <pt x="209" y="811" on="1"/>
        <pt x="196" y="839" on="1"/>
        <pt x="274" y="916" on="1"/>
        <pt x="300" y="916" on="1"/>
        <pt x="357" y="888" on="1"/>
        <pt x="389" y="916" on="1"/>
        <pt x="461" y="916" on="1"/>
        <pt x="474" y="888" on="1"/>
      </contour>
    </TTGlyph>
    <TTGlyph name="P" xMin="80" yMin="0" xMax="584" yMax="750">
      <contour>
        <pt x="80" y="750" on="1"/>
        <pt x="480" y="750" on="1"/>
        <pt x="584" y="640" on="1"/>
        <pt x="584" y="410" on="1"/>
        <pt x="480" y="300" on="1"/>
        <pt x="242" y="300" on="1"/>
        <pt x="242" y="80" on="1"/>
        <pt x="322" y="80" on="1"/>
        <pt x="322" y="0" on="1"/>
        <pt x="80" y="0" on="1"/>
        <pt x="80" y="80" on="1"/>
        <pt x="150" y="80" on="1"/>
        <pt x="150" y="670" on="1"/>
        <pt x="80" y="670" on="1"/>
      </contour>
      <contour>
        <pt x="242" y="664" on="1"/>
        <pt x="242" y="386" on="1"/>
        <pt x="440" y="386" on="1"/>
        <pt x="498" y="445" on="1"/>
        <pt x="498" y="605" on="1"/>
        <pt x="441" y="664" on="1"/>
      </contour>
    </TTGlyph>
    <TTGlyph name="Q" xMin="80" yMin="-100" xMax="570" yMax="750">
      <contour>
        <pt x="362" y="0" on="1"/>
        <pt x="362" y="-100" on="1"/>
        <pt x="287" y="-100" on="1"/>
        <pt x="287" y="0" on="1"/>
        <pt x="184" y="0" on="1"/>
        <pt x="80" y="110" on="1"/>
        <pt x="80" y="640" on="1"/>
        <pt x="184" y="750" on="1"/>
        <pt x="466" y="750" on="1"/>
        <pt x="570" y="640" on="1"/>
        <pt x="570" y="110" on="1"/>
        <pt x="466" y="0" on="1"/>
      </contour>
      <contour>
        <pt x="287" y="86" on="1"/>
        <pt x="287" y="236" on="1"/>
        <pt x="362" y="236" on="1"/>
        <pt x="362" y="86" on="1"/>
        <pt x="426" y="86" on="1"/>
        <pt x="478" y="139" on="1"/>
        <pt x="478" y="611" on="1"/>
        <pt x="427" y="664" on="1"/>
        <pt x="224" y="664" on="1"/>
        <pt x="172" y="611" on="1"/>
        <pt x="172" y="139" on="1"/>
        <pt x="223" y="86" on="1"/>
      </contour>
    </TTGlyph>
    <TTGlyph name="R" xMin="80" yMin="0" xMax="639" yMax="750">
      <contour>
        <pt x="80" y="750" on="1"/>
        <pt x="480" y="750" on="1"/>
        <pt x="584" y="640" on="1"/>
        <pt x="584" y="420" on="1"/>
        <pt x="480" y="310" on="1"/>
        <pt x="587" y="80" on="1"/>
        <pt x="639" y="80" on="1"/>
        <pt x="639" y="0" on="1"/>
        <pt x="451" y="0" on="1"/>
        <pt x="451" y="80" on="1"/>
        <pt x="490" y="80" on="1"/>
        <pt x="383" y="310" on="1"/>
        <pt x="242" y="310" on="1"/>
        <pt x="242" y="80" on="1"/>
        <pt x="302" y="80" on="1"/>
        <pt x="302" y="0" on="1"/>
        <pt x="80" y="0" on="1"/>
        <pt x="80" y="80" on="1"/>
        <pt x="150" y="80" on="1"/>
        <pt x="150" y="670" on="1"/>
        <pt x="80" y="670" on="1"/>
      </contour>
      <contour>
        <pt x="242" y="664" on="1"/>
        <pt x="242" y="396" on="1"/>
        <pt x="440" y="396" on="1"/>
        <pt x="498" y="455" on="1"/>
        <pt x="498" y="605" on="1"/>
        <pt x="441" y="664" on="1"/>
      </contour>
    </TTGlyph>
    <TTGlyph name="S" xMin="70" yMin="0" xMax="530" yMax="750">
      <contour>
        <pt x="520" y="514" on="1"/>
        <pt x="437" y="514" on="1"/>
        <pt x="437" y="602" on="1"/>
        <pt x="377" y="664" on="1"/>
        <pt x="224" y="664" on="1"/>
        <pt x="172" y="611" on="1"/>
        <pt x="172" y="473" on="1"/>
        <pt x="221" y="423" on="1"/>
        <pt x="429" y="423" on="1"/>
        <pt x="530" y="317" on="1"/>
        <pt x="530" y="110" on="1"/>
        <pt x="426" y="0" on="1"/>
        <pt x="174" y="0" on="1"/>
        <pt x="70" y="110" on="1"/>
        <pt x="70" y="236" on="1"/>
        <pt x="153" y="236" on="1"/>
        <pt x="153" y="148" on="1"/>
        <pt x="214" y="86" on="1"/>
        <pt x="387" y="86" on="1"/>
        <pt x="438" y="139" on="1"/>
        <pt x="438" y="288" on="1"/>
        <pt x="390" y="337" on="1"/>
        <pt x="182" y="337" on="1"/>
        <pt x="80" y="444" on="1"/>
        <pt x="80" y="640" on="1"/>
        <pt x="184" y="750" on="1"/>
        <pt x="416" y="750" on="1"/>
        <pt x="520" y="640" on="1"/>
      </contour>
    </TTGlyph>
    <TTGlyph name="Scaron" xMin="70" yMin="0" xMax="530" yMax="916">
      <contour>
        <pt x="520" y="514" on="1"/>
        <pt x="437" y="514" on="1"/>
        <pt x="437" y="602" on="1"/>
        <pt x="377" y="664" on="1"/>
        <pt x="224" y="664" on="1"/>
        <pt x="172" y="611" on="1"/>
        <pt x="172" y="473" on="1"/>
        <pt x="221" y="423" on="1"/>
        <pt x="429" y="423" on="1"/>
        <pt x="530" y="317" on="1"/>
        <pt x="530" y="110" on="1"/>
        <pt x="426" y="0" on="1"/>
        <pt x="174" y="0" on="1"/>
        <pt x="70" y="110" on="1"/>
        <pt x="70" y="236" on="1"/>
        <pt x="153" y="236" on="1"/>
        <pt x="153" y="148" on="1"/>
        <pt x="214" y="86" on="1"/>
        <pt x="387" y="86" on="1"/>
        <pt x="438" y="139" on="1"/>
        <pt x="438" y="288" on="1"/>
        <pt x="390" y="337" on="1"/>
        <pt x="182" y="337" on="1"/>
        <pt x="80" y="444" on="1"/>
        <pt x="80" y="640" on="1"/>
        <pt x="184" y="750" on="1"/>
        <pt x="416" y="750" on="1"/>
        <pt x="520" y="640" on="1"/>
      </contour>
      <contour>
        <pt x="349" y="811" on="1"/>
        <pt x="250" y="811" on="1"/>
        <pt x="161" y="888" on="1"/>
        <pt x="174" y="916" on="1"/>
        <pt x="256" y="916" on="1"/>
        <pt x="299" y="867" on="1"/>
        <pt x="343" y="916" on="1"/>
        <pt x="425" y="916" on="1"/>
        <pt x="438" y="888" on="1"/>
      </contour>
    </TTGlyph>
    <TTGlyph name="T" xMin="20" yMin="0" xMax="560" yMax="750">
      <contour>
        <pt x="436" y="0" on="1"/>
        <pt x="144" y="0" on="1"/>
        <pt x="144" y="80" on="1"/>
        <pt x="244" y="80" on="1"/>
        <pt x="244" y="670" on="1"/>
        <pt x="96" y="670" on="1"/>
        <pt x="96" y="554" on="1"/>
        <pt x="20" y="554" on="1"/>
        <pt x="20" y="750" on="1"/>
        <pt x="560" y="750" on="1"/>
        <pt x="560" y="554" on="1"/>
        <pt x="484" y="554" on="1"/>
        <pt x="484" y="670" on="1"/>
        <pt x="336" y="670" on="1"/>
        <pt x="336" y="80" on="1"/>
        <pt x="436" y="80" on="1"/>
      </contour>
    </TTGlyph>
    <TTGlyph name="Thorn" xMin="80" yMin="0" xMax="584" yMax="750">
      <contour>
        <pt x="80" y="750" on="1"/>
        <pt x="242" y="750" on="1"/>
        <pt x="242" y="604" on="1"/>
        <pt x="480" y="604" on="1"/>
        <pt x="584" y="494" on="1"/>
        <pt x="584" y="264" on="1"/>
        <pt x="480" y="154" on="1"/>
        <pt x="242" y="154" on="1"/>
        <pt x="242" y="0" on="1"/>
        <pt x="80" y="0" on="1"/>
        <pt x="80" y="80" on="1"/>
        <pt x="150" y="80" on="1"/>
        <pt x="150" y="670" on="1"/>
        <pt x="80" y="670" on="1"/>
      </contour>
      <contour>
        <pt x="242" y="518" on="1"/>
        <pt x="242" y="240" on="1"/>
        <pt x="440" y="240" on="1"/>
        <pt x="498" y="299" on="1"/>
        <pt x="498" y="459" on="1"/>
        <pt x="441" y="518" on="1"/>
      </contour>
    </TTGlyph>
    <TTGlyph name="U" xMin="70" yMin="0" xMax="670" yMax="750">
      <contour>
        <pt x="448" y="750" on="1"/>
        <pt x="670" y="750" on="1"/>
        <pt x="670" y="670" on="1"/>
        <pt x="610" y="670" on="1"/>
        <pt x="610" y="110" on="1"/>
        <pt x="506" y="0" on="1"/>
        <pt x="234" y="0" on="1"/>
        <pt x="130" y="110" on="1"/>
        <pt x="130" y="670" on="1"/>
        <pt x="70" y="670" on="1"/>
        <pt x="70" y="750" on="1"/>
        <pt x="292" y="750" on="1"/>
        <pt x="292" y="670" on="1"/>
        <pt x="222" y="670" on="1"/>
        <pt x="222" y="139" on="1"/>
        <pt x="273" y="86" on="1"/>
        <pt x="466" y="86" on="1"/>
        <pt x="518" y="139" on="1"/>
        <pt x="518" y="670" on="1"/>
        <pt x="448" y="670" on="1"/>
      </contour>
    </TTGlyph>
    <TTGlyph name="Uacute" xMin="70" yMin="0" xMax="670" yMax="926">
      <contour>
        <pt x="448" y="750" on="1"/>
        <pt x="670" y="750" on="1"/>
        <pt x="670" y="670" on="1"/>
        <pt x="610" y="670" on="1"/>
        <pt x="610" y="110" on="1"/>
        <pt x="506" y="0" on="1"/>
        <pt x="234" y="0" on="1"/>
        <pt x="130" y="110" on="1"/>
        <pt x="130" y="670" on="1"/>
        <pt x="70" y="670" on="1"/>
        <pt x="70" y="750" on="1"/>
        <pt x="292" y="750" on="1"/>
        <pt x="292" y="670" on="1"/>
        <pt x="222" y="670" on="1"/>
        <pt x="222" y="139" on="1"/>
        <pt x="273" y="86" on="1"/>
        <pt x="466" y="86" on="1"/>
        <pt x="518" y="139" on="1"/>
        <pt x="518" y="670" on="1"/>
        <pt x="448" y="670" on="1"/>
      </contour>
      <contour>
        <pt x="452" y="926" on="1"/>
        <pt x="481" y="843" on="1"/>
        <pt x="403" y="811" on="1"/>
        <pt x="271" y="811" on="1"/>
        <pt x="258" y="849" on="1"/>
      </contour>
    </TTGlyph>
    <TTGlyph name="Ucircumflex" xMin="70" yMin="0" xMax="670" yMax="916">
      <contour>
        <pt x="448" y="750" on="1"/>
        <pt x="670" y="750" on="1"/>
        <pt x="670" y="670" on="1"/>
        <pt x="610" y="670" on="1"/>
        <pt x="610" y="110" on="1"/>
        <pt x="506" y="0" on="1"/>
        <pt x="234" y="0" on="1"/>
        <pt x="130" y="110" on="1"/>
        <pt x="130" y="670" on="1"/>
        <pt x="70" y="670" on="1"/>
        <pt x="70" y="750" on="1"/>
        <pt x="292" y="750" on="1"/>
        <pt x="292" y="670" on="1"/>
        <pt x="222" y="670" on="1"/>
        <pt x="222" y="139" on="1"/>
        <pt x="273" y="86" on="1"/>
        <pt x="466" y="86" on="1"/>
        <pt x="518" y="139" on="1"/>
        <pt x="518" y="670" on="1"/>
        <pt x="448" y="670" on="1"/>
      </contour>
      <contour>
        <pt x="320" y="916" on="1"/>
        <pt x="419" y="916" on="1"/>
        <pt x="508" y="839" on="1"/>
        <pt x="495" y="811" on="1"/>
        <pt x="413" y="811" on="1"/>
        <pt x="369" y="860" on="1"/>
        <pt x="326" y="811" on="1"/>
        <pt x="244" y="811" on="1"/>
        <pt x="231" y="839" on="1"/>
      </contour>
    </TTGlyph>
    <TTGlyph name="Udieresis" xMin="70" yMin="0" xMax="670" yMax="912">
      <contour>
        <pt x="448" y="750" on="1"/>
        <pt x="670" y="750" on="1"/>
        <pt x="670" y="670" on="1"/>
        <pt x="610" y="670" on="1"/>
        <pt x="610" y="110" on="1"/>
        <pt x="506" y="0" on="1"/>
        <pt x="234" y="0" on="1"/>
        <pt x="130" y="110" on="1"/>
        <pt x="130" y="670" on="1"/>
        <pt x="70" y="670" on="1"/>
        <pt x="70" y="750" on="1"/>
        <pt x="292" y="750" on="1"/>
        <pt x="292" y="670" on="1"/>
        <pt x="222" y="670" on="1"/>
        <pt x="222" y="139" on="1"/>
        <pt x="273" y="86" on="1"/>
        <pt x="466" y="86" on="1"/>
        <pt x="518" y="139" on="1"/>
        <pt x="518" y="670" on="1"/>
        <pt x="448" y="670" on="1"/>
      </contour>
      <contour>
        <pt x="413" y="811" on="1"/>
        <pt x="413" y="912" on="1"/>
        <pt x="505" y="912" on="1"/>
        <pt x="505" y="811" on="1"/>
      </contour>
      <contour>
        <pt x="234" y="811" on="1"/>
        <pt x="234" y="912" on="1"/>
        <pt x="326" y="912" on="1"/>
        <pt x="326" y="811" on="1"/>
      </contour>
    </TTGlyph>
    <TTGlyph name="Ugrave" xMin="70" yMin="0" xMax="670" yMax="926">
      <contour>
        <pt x="448" y="750" on="1"/>
        <pt x="670" y="750" on="1"/>
        <pt x="670" y="670" on="1"/>
        <pt x="610" y="670" on="1"/>
        <pt x="610" y="110" on="1"/>
        <pt x="506" y="0" on="1"/>
        <pt x="234" y="0" on="1"/>
        <pt x="130" y="110" on="1"/>
        <pt x="130" y="670" on="1"/>
        <pt x="70" y="670" on="1"/>
        <pt x="70" y="750" on="1"/>
        <pt x="292" y="750" on="1"/>
        <pt x="292" y="670" on="1"/>
        <pt x="222" y="670" on="1"/>
        <pt x="222" y="139" on="1"/>
        <pt x="273" y="86" on="1"/>
        <pt x="466" y="86" on="1"/>
        <pt x="518" y="139" on="1"/>
        <pt x="518" y="670" on="1"/>
        <pt x="448" y="670" on="1"/>
      </contour>
      <contour>
        <pt x="258" y="843" on="1"/>
        <pt x="287" y="926" on="1"/>
        <pt x="481" y="849" on="1"/>
        <pt x="468" y="811" on="1"/>
        <pt x="336" y="811" on="1"/>
      </contour>
    </TTGlyph>
    <TTGlyph name="V" xMin="20" yMin="0" xMax="667" yMax="750">
      <contour>
        <pt x="20" y="670" on="1"/>
        <pt x="20" y="750" on="1"/>
        <pt x="232" y="750" on="1"/>
        <pt x="232" y="670" on="1"/>
        <pt x="163" y="670" on="1"/>
        <pt x="343" y="91" on="1"/>
        <pt x="524" y="670" on="1"/>
        <pt x="455" y="670" on="1"/>
        <pt x="455" y="750" on="1"/>
        <pt x="667" y="750" on="1"/>
        <pt x="667" y="670" on="1"/>
        <pt x="616" y="670" on="1"/>
        <pt x="407" y="0" on="1"/>
        <pt x="280" y="0" on="1"/>
        <pt x="71" y="670" on="1"/>
      </contour>
    </TTGlyph>
    <TTGlyph name="W" xMin="20" yMin="0" xMax="1006" yMax="750">
      <contour>
        <pt x="20" y="670" on="1"/>
        <pt x="20" y="750" on="1"/>
        <pt x="232" y="750" on="1"/>
        <pt x="232" y="670" on="1"/>
        <pt x="158" y="670" on="1"/>
        <pt x="303" y="110" on="1"/>
        <pt x="448" y="670" on="1"/>
        <pt x="405" y="670" on="1"/>
        <pt x="405" y="750" on="1"/>
        <pt x="621" y="750" on="1"/>
        <pt x="621" y="670" on="1"/>
        <pt x="577" y="670" on="1"/>
        <pt x="722" y="110" on="1"/>
        <pt x="867" y="670" on="1"/>
        <pt x="794" y="670" on="1"/>
        <pt x="794" y="750" on="1"/>
        <pt x="1006" y="750" on="1"/>
        <pt x="1006" y="670" on="1"/>
        <pt x="959" y="670" on="1"/>
        <pt x="786" y="0" on="1"/>
        <pt x="663" y="0" on="1"/>
        <pt x="513" y="579" on="1"/>
        <pt x="363" y="0" on="1"/>
        <pt x="240" y="0" on="1"/>
        <pt x="66" y="670" on="1"/>
      </contour>
    </TTGlyph>
    <TTGlyph name="X" xMin="30" yMin="0" xMax="619" yMax="750">
      <contour>
        <pt x="242" y="0" on="1"/>
        <pt x="30" y="0" on="1"/>
        <pt x="30" y="80" on="1"/>
        <pt x="80" y="80" on="1"/>
        <pt x="271" y="386" on="1"/>
        <pt x="91" y="670" on="1"/>
        <pt x="40" y="670" on="1"/>
        <pt x="40" y="750" on="1"/>
        <pt x="252" y="750" on="1"/>
        <pt x="252" y="670" on="1"/>
        <pt x="194" y="670" on="1"/>
        <pt x="326" y="462" on="1"/>
        <pt x="456" y="670" on="1"/>
        <pt x="397" y="670" on="1"/>
        <pt x="397" y="750" on="1"/>
        <pt x="609" y="750" on="1"/>
        <pt x="609" y="670" on="1"/>
        <pt x="559" y="670" on="1"/>
        <pt x="378" y="380" on="1"/>
        <pt x="568" y="80" on="1"/>
        <pt x="619" y="80" on="1"/>
        <pt x="619" y="0" on="1"/>
        <pt x="407" y="0" on="1"/>
        <pt x="407" y="80" on="1"/>
        <pt x="465" y="80" on="1"/>
        <pt x="323" y="304" on="1"/>
        <pt x="183" y="80" on="1"/>
        <pt x="242" y="80" on="1"/>
      </contour>
    </TTGlyph>
    <TTGlyph name="Y" xMin="20" yMin="0" xMax="587" yMax="750">
      <contour>
        <pt x="440" y="0" on="1"/>
        <pt x="168" y="0" on="1"/>
        <pt x="168" y="80" on="1"/>
        <pt x="258" y="80" on="1"/>
        <pt x="258" y="234" on="1"/>
        <pt x="70" y="670" on="1"/>
        <pt x="20" y="670" on="1"/>
        <pt x="20" y="750" on="1"/>
        <pt x="232" y="750" on="1"/>
        <pt x="232" y="670" on="1"/>
        <pt x="158" y="670" on="1"/>
        <pt x="303" y="333" on="1"/>
        <pt x="448" y="670" on="1"/>
        <pt x="375" y="670" on="1"/>
        <pt x="375" y="750" on="1"/>
        <pt x="587" y="750" on="1"/>
        <pt x="587" y="670" on="1"/>
        <pt x="536" y="670" on="1"/>
        <pt x="350" y="237" on="1"/>
        <pt x="350" y="80" on="1"/>
        <pt x="440" y="80" on="1"/>
      </contour>
    </TTGlyph>
    <TTGlyph name="Yacute" xMin="20" yMin="0" xMax="587" yMax="926">
      <contour>
        <pt x="440" y="0" on="1"/>
        <pt x="168" y="0" on="1"/>
        <pt x="168" y="80" on="1"/>
        <pt x="258" y="80" on="1"/>
        <pt x="258" y="234" on="1"/>
        <pt x="70" y="670" on="1"/>
        <pt x="20" y="670" on="1"/>
        <pt x="20" y="750" on="1"/>
        <pt x="232" y="750" on="1"/>
        <pt x="232" y="670" on="1"/>
        <pt x="158" y="670" on="1"/>
        <pt x="303" y="333" on="1"/>
        <pt x="448" y="670" on="1"/>
        <pt x="375" y="670" on="1"/>
        <pt x="375" y="750" on="1"/>
        <pt x="587" y="750" on="1"/>
        <pt x="587" y="670" on="1"/>
        <pt x="536" y="670" on="1"/>
        <pt x="350" y="237" on="1"/>
        <pt x="350" y="80" on="1"/>
        <pt x="440" y="80" on="1"/>
      </contour>
      <contour>
        <pt x="386" y="926" on="1"/>
        <pt x="415" y="843" on="1"/>
        <pt x="337" y="811" on="1"/>
        <pt x="205" y="811" on="1"/>
        <pt x="192" y="849" on="1"/>
      </contour>
    </TTGlyph>
    <TTGlyph name="Ydieresis" xMin="20" yMin="0" xMax="587" yMax="912">
      <contour>
        <pt x="440" y="0" on="1"/>
        <pt x="168" y="0" on="1"/>
        <pt x="168" y="80" on="1"/>
        <pt x="258" y="80" on="1"/>
        <pt x="258" y="234" on="1"/>
        <pt x="70" y="670" on="1"/>
        <pt x="20" y="670" on="1"/>
        <pt x="20" y="750" on="1"/>
        <pt x="232" y="750" on="1"/>
        <pt x="232" y="670" on="1"/>
        <pt x="158" y="670" on="1"/>
        <pt x="303" y="333" on="1"/>
        <pt x="448" y="670" on="1"/>
        <pt x="375" y="670" on="1"/>
        <pt x="375" y="750" on="1"/>
        <pt x="587" y="750" on="1"/>
        <pt x="587" y="670" on="1"/>
        <pt x="536" y="670" on="1"/>
        <pt x="350" y="237" on="1"/>
        <pt x="350" y="80" on="1"/>
        <pt x="440" y="80" on="1"/>
      </contour>
      <contour>
        <pt x="168" y="811" on="1"/>
        <pt x="168" y="912" on="1"/>
        <pt x="260" y="912" on="1"/>
        <pt x="260" y="811" on="1"/>
      </contour>
      <contour>
        <pt x="347" y="811" on="1"/>
        <pt x="347" y="912" on="1"/>
        <pt x="439" y="912" on="1"/>
        <pt x="439" y="811" on="1"/>
      </contour>
    </TTGlyph>
    <TTGlyph name="Z" xMin="55" yMin="0" xMax="541" yMax="750">
      <contour>
        <pt x="155" y="670" on="1"/>
        <pt x="155" y="554" on="1"/>
        <pt x="75" y="554" on="1"/>
        <pt x="75" y="750" on="1"/>
        <pt x="541" y="750" on="1"/>
        <pt x="541" y="670" on="1"/>
        <pt x="158" y="80" on="1"/>
        <pt x="461" y="80" on="1"/>
        <pt x="461" y="196" on="1"/>
        <pt x="541" y="196" on="1"/>
        <pt x="541" y="0" on="1"/>
        <pt x="55" y="0" on="1"/>
        <pt x="55" y="80" on="1"/>
        <pt x="438" y="670" on="1"/>
      </contour>
    </TTGlyph>
    <TTGlyph name="Zcaron" xMin="55" yMin="0" xMax="541" yMax="916">
      <contour>
        <pt x="155" y="670" on="1"/>
        <pt x="155" y="554" on="1"/>
        <pt x="75" y="554" on="1"/>
        <pt x="75" y="750" on="1"/>
        <pt x="541" y="750" on="1"/>
        <pt x="541" y="670" on="1"/>
        <pt x="158" y="80" on="1"/>
        <pt x="461" y="80" on="1"/>
        <pt x="461" y="196" on="1"/>
        <pt x="541" y="196" on="1"/>
        <pt x="541" y="0" on="1"/>
        <pt x="55" y="0" on="1"/>
        <pt x="55" y="80" on="1"/>
        <pt x="438" y="670" on="1"/>
      </contour>
      <contour>
        <pt x="347" y="811" on="1"/>
        <pt x="248" y="811" on="1"/>
        <pt x="159" y="888" on="1"/>
        <pt x="172" y="916" on="1"/>
        <pt x="254" y="916" on="1"/>
        <pt x="297" y="867" on="1"/>
        <pt x="341" y="916" on="1"/>
        <pt x="423" y="916" on="1"/>
        <pt x="436" y="888" on="1"/>
      </contour>
    </TTGlyph>
    <TTGlyph name="a" xMin="15" yMin="0" xMax="642" yMax="650">
      <contour>
        <pt x="430" y="0" on="1"/>
        <pt x="430" y="80" on="1"/>
        <pt x="496" y="80" on="1"/>
        <pt x="453" y="204" on="1"/>
        <pt x="203" y="204" on="1"/>
        <pt x="160" y="80" on="1"/>
        <pt x="227" y="80" on="1"/>
        <pt x="227" y="0" on="1"/>
        <pt x="15" y="0" on="1"/>
        <pt x="15" y="80" on="1"/>
        <pt x="68" y="80" on="1"/>
        <pt x="237" y="570" on="1"/>
        <pt x="195" y="570" on="1"/>
        <pt x="195" y="650" on="1"/>
        <pt x="462" y="650" on="1"/>
        <pt x="462" y="570" on="1"/>
        <pt x="419" y="570" on="1"/>
        <pt x="588" y="80" on="1"/>
        <pt x="642" y="80" on="1"/>
        <pt x="642" y="0" on="1"/>
      </contour>
      <contour>
        <pt x="328" y="567" on="1"/>
        <pt x="230" y="284" on="1"/>
        <pt x="426" y="284" on="1"/>
      </contour>
    </TTGlyph>
    <TTGlyph name="aacute" xMin="15" yMin="0" xMax="642" yMax="826">
      <contour>
        <pt x="195" y="650" on="1"/>
        <pt x="462" y="650" on="1"/>
        <pt x="462" y="570" on="1"/>
        <pt x="419" y="570" on="1"/>
        <pt x="588" y="80" on="1"/>
        <pt x="642" y="80" on="1"/>
        <pt x="642" y="0" on="1"/>
        <pt x="430" y="0" on="1"/>
        <pt x="430" y="80" on="1"/>
        <pt x="496" y="80" on="1"/>
        <pt x="453" y="204" on="1"/>
        <pt x="203" y="204" on="1"/>
        <pt x="160" y="80" on="1"/>
        <pt x="227" y="80" on="1"/>
        <pt x="227" y="0" on="1"/>
        <pt x="15" y="0" on="1"/>
        <pt x="15" y="80" on="1"/>
        <pt x="68" y="80" on="1"/>
        <pt x="237" y="570" on="1"/>
        <pt x="195" y="570" on="1"/>
      </contour>
      <contour>
        <pt x="328" y="567" on="1"/>
        <pt x="230" y="284" on="1"/>
        <pt x="426" y="284" on="1"/>
      </contour>
      <contour>
        <pt x="441" y="826" on="1"/>
        <pt x="470" y="743" on="1"/>
        <pt x="392" y="711" on="1"/>
        <pt x="260" y="711" on="1"/>
        <pt x="247" y="749" on="1"/>
      </contour>
    </TTGlyph>
    <TTGlyph name="acircumflex" xMin="15" yMin="0" xMax="642" yMax="816">
      <contour>
        <pt x="462" y="650" on="1"/>
        <pt x="462" y="570" on="1"/>
        <pt x="419" y="570" on="1"/>
        <pt x="588" y="80" on="1"/>
        <pt x="642" y="80" on="1"/>
        <pt x="642" y="0" on="1"/>
        <pt x="430" y="0" on="1"/>
        <pt x="430" y="80" on="1"/>
        <pt x="496" y="80" on="1"/>
        <pt x="453" y="204" on="1"/>
        <pt x="203" y="204" on="1"/>
        <pt x="160" y="80" on="1"/>
        <pt x="227" y="80" on="1"/>
        <pt x="227" y="0" on="1"/>
        <pt x="15" y="0" on="1"/>
        <pt x="15" y="80" on="1"/>
        <pt x="68" y="80" on="1"/>
        <pt x="237" y="570" on="1"/>
        <pt x="195" y="570" on="1"/>
        <pt x="195" y="650" on="1"/>
      </contour>
      <contour>
        <pt x="328" y="567" on="1"/>
        <pt x="230" y="284" on="1"/>
        <pt x="426" y="284" on="1"/>
      </contour>
      <contour>
        <pt x="279" y="816" on="1"/>
        <pt x="378" y="816" on="1"/>
        <pt x="467" y="739" on="1"/>
        <pt x="454" y="711" on="1"/>
        <pt x="372" y="711" on="1"/>
        <pt x="328" y="760" on="1"/>
        <pt x="285" y="711" on="1"/>
        <pt x="203" y="711" on="1"/>
        <pt x="190" y="739" on="1"/>
      </contour>
    </TTGlyph>
    <TTGlyph name="acute" xMin="130" yMin="711" xMax="353" yMax="826">
      <contour>
        <pt x="324" y="826" on="1"/>
        <pt x="353" y="743" on="1"/>
        <pt x="275" y="711" on="1"/>
        <pt x="143" y="711" on="1"/>
        <pt x="130" y="749" on="1"/>
      </contour>
    </TTGlyph>
    <TTGlyph name="adieresis" xMin="15" yMin="0" xMax="642" yMax="812">
      <contour>
        <pt x="462" y="650" on="1"/>
        <pt x="462" y="570" on="1"/>
        <pt x="419" y="570" on="1"/>
        <pt x="588" y="80" on="1"/>
        <pt x="642" y="80" on="1"/>
        <pt x="642" y="0" on="1"/>
        <pt x="430" y="0" on="1"/>
        <pt x="430" y="80" on="1"/>
        <pt x="496" y="80" on="1"/>
        <pt x="453" y="204" on="1"/>
        <pt x="203" y="204" on="1"/>
        <pt x="160" y="80" on="1"/>
        <pt x="227" y="80" on="1"/>
        <pt x="227" y="0" on="1"/>
        <pt x="15" y="0" on="1"/>
        <pt x="15" y="80" on="1"/>
        <pt x="68" y="80" on="1"/>
        <pt x="237" y="570" on="1"/>
        <pt x="195" y="570" on="1"/>
        <pt x="195" y="650" on="1"/>
      </contour>
      <contour>
        <pt x="328" y="567" on="1"/>
        <pt x="230" y="284" on="1"/>
        <pt x="426" y="284" on="1"/>
      </contour>
      <contour>
        <pt x="372" y="711" on="1"/>
        <pt x="372" y="812" on="1"/>
        <pt x="464" y="812" on="1"/>
        <pt x="464" y="711" on="1"/>
      </contour>
      <contour>
        <pt x="193" y="711" on="1"/>
        <pt x="193" y="812" on="1"/>
        <pt x="285" y="812" on="1"/>
        <pt x="285" y="711" on="1"/>
      </contour>
    </TTGlyph>
    <TTGlyph name="ae" xMin="15" yMin="0" xMax="867" yMax="650">
      <contour>
        <pt x="391" y="80" on="1"/>
        <pt x="461" y="80" on="1"/>
        <pt x="461" y="285" on="1"/>
        <pt x="231" y="285" on="1"/>
        <pt x="160" y="80" on="1"/>
        <pt x="227" y="80" on="1"/>
        <pt x="227" y="0" on="1"/>
        <pt x="15" y="0" on="1"/>
        <pt x="15" y="80" on="1"/>
        <pt x="68" y="80" on="1"/>
        <pt x="237" y="570" on="1"/>
        <pt x="195" y="570" on="1"/>
        <pt x="195" y="650" on="1"/>
        <pt x="867" y="650" on="1"/>
        <pt x="867" y="454" on="1"/>
        <pt x="787" y="454" on="1"/>
        <pt x="787" y="570" on="1"/>
        <pt x="553" y="570" on="1"/>
        <pt x="553" y="365" on="1"/>
        <pt x="787" y="365" on="1"/>
        <pt x="787" y="285" on="1"/>
        <pt x="553" y="285" on="1"/>
        <pt x="553" y="80" on="1"/>
        <pt x="787" y="80" on="1"/>
        <pt x="787" y="196" on="1"/>
        <pt x="867" y="196" on="1"/>
        <pt x="867" y="0" on="1"/>
        <pt x="391" y="0" on="1"/>
      </contour>
      <contour>
        <pt x="461" y="365" on="1"/>
        <pt x="461" y="570" on="1"/>
        <pt x="329" y="570" on="1"/>
        <pt x="258" y="365" on="1"/>
      </contour>
    </TTGlyph>
    <TTGlyph name="agrave" xMin="15" yMin="0" xMax="642" yMax="826">
      <contour>
        <pt x="430" y="0" on="1"/>
        <pt x="430" y="80" on="1"/>
        <pt x="496" y="80" on="1"/>
        <pt x="453" y="204" on="1"/>
        <pt x="203" y="204" on="1"/>
        <pt x="160" y="80" on="1"/>
        <pt x="227" y="80" on="1"/>
        <pt x="227" y="0" on="1"/>
        <pt x="15" y="0" on="1"/>
        <pt x="15" y="80" on="1"/>
        <pt x="68" y="80" on="1"/>
        <pt x="237" y="570" on="1"/>
        <pt x="195" y="570" on="1"/>
        <pt x="195" y="650" on="1"/>
        <pt x="462" y="650" on="1"/>
        <pt x="462" y="570" on="1"/>
        <pt x="419" y="570" on="1"/>
        <pt x="588" y="80" on="1"/>
        <pt x="642" y="80" on="1"/>
        <pt x="642" y="0" on="1"/>
      </contour>
      <contour>
        <pt x="328" y="567" on="1"/>
        <pt x="230" y="284" on="1"/>
        <pt x="426" y="284" on="1"/>
      </contour>
      <contour>
        <pt x="217" y="743" on="1"/>
        <pt x="246" y="826" on="1"/>
        <pt x="440" y="749" on="1"/>
        <pt x="427" y="711" on="1"/>
        <pt x="295" y="711" on="1"/>
      </contour>
    </TTGlyph>
    <TTGlyph name="ampersand" xMin="50" yMin="0" xMax="654" yMax="750">
      <contour>
        <pt x="617" y="415" on="1"/>
        <pt x="617" y="335" on="1"/>
        <pt x="560" y="335" on="1"/>
        <pt x="472" y="186" on="1"/>
        <pt x="547" y="80" on="1"/>
        <pt x="654" y="80" on="1"/>
        <pt x="654" y="0" on="1"/>
        <pt x="492" y="0" on="1"/>
        <pt x="421" y="101" on="1"/>
        <pt x="362" y="0" on="1"/>
        <pt x="154" y="0" on="1"/>
        <pt x="50" y="110" on="1"/>
        <pt x="50" y="353" on="1"/>
        <pt x="100" y="415" on="1"/>
        <pt x="202" y="415" on="1"/>
        <pt x="148" y="492" on="1"/>
        <pt x="148" y="640" on="1"/>
        <pt x="252" y="750" on="1"/>
        <pt x="449" y="750" on="1"/>
        <pt x="553" y="640" on="1"/>
        <pt x="553" y="544" on="1"/>
        <pt x="473" y="544" on="1"/>
        <pt x="473" y="599" on="1"/>
        <pt x="410" y="664" on="1"/>
        <pt x="290" y="664" on="1"/>
        <pt x="234" y="605" on="1"/>
        <pt x="234" y="527" on="1"/>
        <pt x="422" y="258" on="1"/>
        <pt x="513" y="415" on="1"/>
      </contour>
      <contour>
        <pt x="136" y="335" on="1"/>
        <pt x="136" y="145" on="1"/>
        <pt x="194" y="86" on="1"/>
        <pt x="322" y="86" on="1"/>
        <pt x="372" y="172" on="1"/>
        <pt x="258" y="335" on="1"/>
      </contour>
    </TTGlyph>
    <TTGlyph name="approxequal" xMin="115" yMin="186" xMax="535" yMax="560">
      <contour>
        <pt x="212" y="487" on="1"/>
        <pt x="255" y="487" on="0"/>
        <pt x="387" y="560" on="0"/>
        <pt x="489" y="560" on="0"/>
        <pt x="535" y="525" on="1"/>
        <pt x="535" y="445" on="1"/>
        <pt x="491" y="480" on="0"/>
        <pt x="389" y="480" on="0"/>
        <pt x="256" y="407" on="0"/>
        <pt x="212" y="407" on="1"/>
        <pt x="150" y="407" on="0"/>
        <pt x="115" y="445" on="1"/>
        <pt x="115" y="525" on="1"/>
        <pt x="150" y="487" on="0"/>
      </contour>
      <contour>
        <pt x="115" y="305" on="1"/>
        <pt x="152" y="265" on="0"/>
        <pt x="256" y="265" on="0"/>
        <pt x="388" y="344" on="0"/>
        <pt x="430" y="344" on="1"/>
        <pt x="492" y="344" on="0"/>
        <pt x="535" y="305" on="1"/>
        <pt x="535" y="225" on="1"/>
        <pt x="492" y="265" on="0"/>
        <pt x="432" y="265" on="1"/>
        <pt x="390" y="265" on="0"/>
        <pt x="257" y="186" on="0"/>
        <pt x="213" y="186" on="1"/>
        <pt x="149" y="186" on="0"/>
        <pt x="115" y="225" on="1"/>
      </contour>
    </TTGlyph>
    <TTGlyph name="aring" xMin="15" yMin="0" xMax="642" yMax="853">
      <contour>
        <pt x="430" y="0" on="1"/>
        <pt x="430" y="80" on="1"/>
        <pt x="496" y="80" on="1"/>
        <pt x="453" y="204" on="1"/>
        <pt x="203" y="204" on="1"/>
        <pt x="160" y="80" on="1"/>
        <pt x="227" y="80" on="1"/>
        <pt x="227" y="0" on="1"/>
        <pt x="15" y="0" on="1"/>
        <pt x="15" y="80" on="1"/>
        <pt x="68" y="80" on="1"/>
        <pt x="237" y="570" on="1"/>
        <pt x="195" y="570" on="1"/>
        <pt x="195" y="650" on="1"/>
        <pt x="462" y="650" on="1"/>
        <pt x="462" y="570" on="1"/>
        <pt x="419" y="570" on="1"/>
        <pt x="588" y="80" on="1"/>
        <pt x="642" y="80" on="1"/>
        <pt x="642" y="0" on="1"/>
      </contour>
      <contour>
        <pt x="328" y="567" on="1"/>
        <pt x="230" y="284" on="1"/>
        <pt x="426" y="284" on="1"/>
      </contour>
      <contour>
        <pt x="285" y="701" on="1"/>
        <pt x="250" y="738" on="1"/>
        <pt x="250" y="816" on="1"/>
        <pt x="285" y="853" on="1"/>
        <pt x="372" y="853" on="1"/>
        <pt x="407" y="816" on="1"/>
        <pt x="407" y="738" on="1"/>
        <pt x="372" y="701" on="1"/>
      </contour>
      <contour>
        <pt x="294" y="742" on="1"/>
        <pt x="363" y="742" on="1"/>
        <pt x="363" y="812" on="1"/>
        <pt x="294" y="812" on="1"/>
      </contour>
    </TTGlyph>
    <TTGlyph name="asciicircum" xMin="145" yMin="499" xMax="505" yMax="750">
      <contour>
        <pt x="365" y="750" on="1"/>
        <pt x="505" y="499" on="1"/>
        <pt x="425" y="499" on="1"/>
        <pt x="325" y="678" on="1"/>
        <pt x="225" y="499" on="1"/>
        <pt x="145" y="499" on="1"/>
        <pt x="285" y="750" on="1"/>
      </contour>
    </TTGlyph>
    <TTGlyph name="asciitilde" xMin="85" yMin="281" xMax="565" yMax="461">
      <contour>
        <pt x="389" y="281" on="1"/>
        <pt x="241" y="367" on="1"/>
        <pt x="196" y="355" on="1"/>
        <pt x="160" y="292" on="1"/>
        <pt x="85" y="335" on="1"/>
        <pt x="141" y="433" on="1"/>
        <pt x="261" y="461" on="1"/>
        <pt x="409" y="375" on="1"/>
        <pt x="454" y="387" on="1"/>
        <pt x="490" y="450" on="1"/>
        <pt x="565" y="407" on="1"/>
        <pt x="509" y="309" on="1"/>
      </contour>
    </TTGlyph>
    <TTGlyph name="asterisk" xMin="40" yMin="431" xMax="427" yMax="800">
      <contour>
        <pt x="194" y="800" on="1"/>
        <pt x="274" y="800" on="1"/>
        <pt x="274" y="710" on="1"/>
        <pt x="258" y="643" on="1"/>
        <pt x="318" y="679" on="1"/>
        <pt x="403" y="706" on="1"/>
        <pt x="427" y="630" on="1"/>
        <pt x="343" y="603" on="1"/>
        <pt x="274" y="596" on="1"/>
        <pt x="326" y="551" on="1"/>
        <pt x="379" y="478" on="1"/>
        <pt x="314" y="432" on="1"/>
        <pt x="262" y="503" on="1"/>
        <pt x="234" y="567" on="1"/>
        <pt x="207" y="504" on="1"/>
        <pt x="154" y="431" on="1"/>
        <pt x="90" y="478" on="1"/>
        <pt x="142" y="550" on="1"/>
        <pt x="194" y="596" on="1"/>
        <pt x="126" y="602" on="1"/>
        <pt x="40" y="630" on="1"/>
        <pt x="65" y="706" on="1"/>
        <pt x="150" y="678" on="1"/>
        <pt x="209" y="643" on="1"/>
        <pt x="194" y="710" on="1"/>
      </contour>
    </TTGlyph>
    <TTGlyph name="at" xMin="100" yMin="-100" xMax="850" yMax="750">
      <contour>
        <pt x="769" y="-20" on="1"/>
        <pt x="769" y="-100" on="1"/>
        <pt x="204" y="-100" on="1"/>
        <pt x="100" y="10" on="1"/>
        <pt x="100" y="640" on="1"/>
        <pt x="204" y="750" on="1"/>
        <pt x="746" y="750" on="1"/>
        <pt x="850" y="640" on="1"/>
        <pt x="850" y="304" on="1"/>
        <pt x="746" y="194" on="1"/>
        <pt x="682" y="194" on="1"/>
        <pt x="728" y="50" on="1"/>
        <pt x="636" y="50" on="1"/>
        <pt x="590" y="194" on="1"/>
        <pt x="390" y="194" on="1"/>
        <pt x="345" y="50" on="1"/>
        <pt x="253" y="50" on="1"/>
        <pt x="427" y="600" on="1"/>
        <pt x="554" y="600" on="1"/>
        <pt x="657" y="274" on="1"/>
        <pt x="711" y="274" on="1"/>
        <pt x="770" y="335" on="1"/>
        <pt x="770" y="608" on="1"/>
        <pt x="711" y="670" on="1"/>
        <pt x="239" y="670" on="1"/>
        <pt x="180" y="609" on="1"/>
        <pt x="180" y="41" on="1"/>
        <pt x="239" y="-20" on="1"/>
      </contour>
      <contour>
        <pt x="490" y="510" on="1"/>
        <pt x="416" y="274" on="1"/>
        <pt x="565" y="274" on="1"/>
      </contour>
    </TTGlyph>
    <TTGlyph name="atilde" xMin="15" yMin="0" xMax="642" yMax="816">
      <contour>
        <pt x="195" y="650" on="1"/>
        <pt x="462" y="650" on="1"/>
        <pt x="462" y="570" on="1"/>
        <pt x="419" y="570" on="1"/>
        <pt x="588" y="80" on="1"/>
        <pt x="642" y="80" on="1"/>
        <pt x="642" y="0" on="1"/>
        <pt x="430" y="0" on="1"/>
        <pt x="430" y="80" on="1"/>
        <pt x="496" y="80" on="1"/>
        <pt x="453" y="204" on="1"/>
        <pt x="203" y="204" on="1"/>
        <pt x="160" y="80" on="1"/>
        <pt x="227" y="80" on="1"/>
        <pt x="227" y="0" on="1"/>
        <pt x="15" y="0" on="1"/>
        <pt x="15" y="80" on="1"/>
        <pt x="68" y="80" on="1"/>
        <pt x="237" y="570" on="1"/>
        <pt x="195" y="570" on="1"/>
      </contour>
      <contour>
        <pt x="328" y="567" on="1"/>
        <pt x="230" y="284" on="1"/>
        <pt x="426" y="284" on="1"/>
      </contour>
      <contour>
        <pt x="399" y="711" on="1"/>
        <pt x="373" y="711" on="1"/>
        <pt x="316" y="739" on="1"/>
        <pt x="284" y="711" on="1"/>
        <pt x="212" y="711" on="1"/>
        <pt x="199" y="739" on="1"/>
        <pt x="277" y="816" on="1"/>
        <pt x="303" y="816" on="1"/>
        <pt x="360" y="788" on="1"/>
        <pt x="392" y="816" on="1"/>
        <pt x="464" y="816" on="1"/>
        <pt x="477" y="788" on="1"/>
      </contour>
    </TTGlyph>
    <TTGlyph name="b" xMin="80" yMin="0" xMax="604" yMax="650">
      <contour>
        <pt x="80" y="650" on="1"/>
        <pt x="480" y="650" on="1"/>
        <pt x="584" y="540" on="1"/>
        <pt x="584" y="400" on="1"/>
        <pt x="530" y="343" on="1"/>
        <pt x="604" y="266" on="1"/>
        <pt x="604" y="110" on="1"/>
        <pt x="500" y="0" on="1"/>
        <pt x="80" y="0" on="1"/>
        <pt x="80" y="80" on="1"/>
        <pt x="150" y="80" on="1"/>
        <pt x="150" y="570" on="1"/>
        <pt x="80" y="570" on="1"/>
      </contour>
      <contour>
        <pt x="242" y="296" on="1"/>
        <pt x="242" y="86" on="1"/>
        <pt x="460" y="86" on="1"/>
        <pt x="518" y="145" on="1"/>
        <pt x="518" y="231" on="1"/>
        <pt x="455" y="296" on="1"/>
      </contour>
      <contour>
        <pt x="242" y="564" on="1"/>
        <pt x="242" y="376" on="1"/>
        <pt x="440" y="376" on="1"/>
        <pt x="498" y="435" on="1"/>
        <pt x="498" y="505" on="1"/>
        <pt x="441" y="564" on="1"/>
      </contour>
    </TTGlyph>
    <TTGlyph name="backslash" xMin="5" yMin="-80" xMax="387" yMax="830">
      <contour>
        <pt x="82" y="830" on="1"/>
        <pt x="387" y="-80" on="1"/>
        <pt x="310" y="-80" on="1"/>
        <pt x="5" y="830" on="1"/>
      </contour>
    </TTGlyph>
    <TTGlyph name="bar" xMin="120" yMin="-80" xMax="197" yMax="830">
      <contour>
        <pt x="120" y="-80" on="1"/>
        <pt x="120" y="830" on="1"/>
        <pt x="197" y="830" on="1"/>
        <pt x="197" y="-80" on="1"/>
      </contour>
    </TTGlyph>
    <TTGlyph name="braceleft" xMin="65" yMin="-100" xMax="314" yMax="850">
      <contour>
        <pt x="314" y="-14" on="1"/>
        <pt x="314" y="-100" on="1"/>
        <pt x="209" y="-100" on="1"/>
        <pt x="105" y="10" on="1"/>
        <pt x="127" y="289" on="1"/>
        <pt x="65" y="342" on="1"/>
        <pt x="65" y="408" on="1"/>
        <pt x="127" y="461" on="1"/>
        <pt x="105" y="740" on="1"/>
        <pt x="209" y="850" on="1"/>
        <pt x="314" y="850" on="1"/>
        <pt x="314" y="764" on="1"/>
        <pt x="249" y="764" on="1"/>
        <pt x="197" y="711" on="1"/>
        <pt x="219" y="442" on="1"/>
        <pt x="146" y="375" on="1"/>
        <pt x="219" y="308" on="1"/>
        <pt x="197" y="39" on="1"/>
        <pt x="249" y="-14" on="1"/>
      </contour>
    </TTGlyph>
    <TTGlyph name="braceright" xMin="38" yMin="-100" xMax="287" yMax="850">
      <contour>
        <pt x="38" y="764" on="1"/>
        <pt x="38" y="850" on="1"/>
        <pt x="143" y="850" on="1"/>
        <pt x="247" y="740" on="1"/>
        <pt x="225" y="461" on="1"/>
        <pt x="287" y="408" on="1"/>
        <pt x="287" y="342" on="1"/>
        <pt x="225" y="289" on="1"/>
        <pt x="247" y="10" on="1"/>
        <pt x="143" y="-100" on="1"/>
        <pt x="38" y="-100" on="1"/>
        <pt x="38" y="-14" on="1"/>
        <pt x="103" y="-14" on="1"/>
        <pt x="155" y="39" on="1"/>
        <pt x="133" y="308" on="1"/>
        <pt x="206" y="375" on="1"/>
        <pt x="133" y="442" on="1"/>
        <pt x="155" y="711" on="1"/>
        <pt x="103" y="764" on="1"/>
      </contour>
    </TTGlyph>
    <TTGlyph name="bracketleft" xMin="120" yMin="-100" xMax="322" yMax="850">
      <contour>
        <pt x="120" y="-100" on="1"/>
        <pt x="120" y="850" on="1"/>
        <pt x="322" y="850" on="1"/>
        <pt x="322" y="790" on="1"/>
        <pt x="212" y="770" on="1"/>
        <pt x="212" y="-20" on="1"/>
        <pt x="322" y="-40" on="1"/>
        <pt x="322" y="-100" on="1"/>
      </contour>
    </TTGlyph>
    <TTGlyph name="bracketright" xMin="30" yMin="-100" xMax="232" yMax="850">
      <contour>
        <pt x="30" y="850" on="1"/>
        <pt x="232" y="850" on="1"/>
        <pt x="232" y="-100" on="1"/>
        <pt x="30" y="-100" on="1"/>
        <pt x="30" y="-40" on="1"/>
        <pt x="140" y="-20" on="1"/>
        <pt x="140" y="770" on="1"/>
        <pt x="30" y="790" on="1"/>
      </contour>
    </TTGlyph>
    <TTGlyph name="breve" xMin="60" yMin="711" xMax="297" yMax="816">
      <contour>
        <pt x="139" y="772" on="1"/>
        <pt x="218" y="772" on="1"/>
        <pt x="218" y="816" on="1"/>
        <pt x="297" y="816" on="1"/>
        <pt x="297" y="748" on="1"/>
        <pt x="262" y="711" on="1"/>
        <pt x="95" y="711" on="1"/>
        <pt x="60" y="748" on="1"/>
        <pt x="60" y="816" on="1"/>
        <pt x="139" y="816" on="1"/>
      </contour>
    </TTGlyph>
    <TTGlyph name="brokenbar" xMin="120" yMin="-80" xMax="197" yMax="830">
      <contour>
        <pt x="120" y="520" on="1"/>
        <pt x="120" y="830" on="1"/>
        <pt x="197" y="830" on="1"/>
        <pt x="197" y="520" on="1"/>
      </contour>
      <contour>
        <pt x="120" y="-80" on="1"/>
        <pt x="120" y="230" on="1"/>
        <pt x="197" y="230" on="1"/>
        <pt x="197" y="-80" on="1"/>
      </contour>
    </TTGlyph>
    <TTGlyph name="bullet" xMin="70" yMin="279" xMax="230" yMax="471">
      <contour>
        <pt x="70" y="471" on="1"/>
        <pt x="230" y="471" on="1"/>
        <pt x="230" y="279" on="1"/>
        <pt x="70" y="279" on="1"/>
      </contour>
    </TTGlyph>
    <TTGlyph name="c" xMin="80" yMin="0" xMax="540" yMax="650">
      <contour>
        <pt x="460" y="236" on="1"/>
        <pt x="540" y="236" on="1"/>
        <pt x="540" y="110" on="1"/>
        <pt x="436" y="0" on="1"/>
        <pt x="184" y="0" on="1"/>
        <pt x="80" y="110" on="1"/>
        <pt x="80" y="540" on="1"/>
        <pt x="184" y="650" on="1"/>
        <pt x="436" y="650" on="1"/>
        <pt x="540" y="540" on="1"/>
        <pt x="540" y="414" on="1"/>
        <pt x="460" y="414" on="1"/>
        <pt x="460" y="499" on="1"/>
        <pt x="397" y="564" on="1"/>
        <pt x="224" y="564" on="1"/>
        <pt x="172" y="511" on="1"/>
        <pt x="172" y="139" on="1"/>
        <pt x="223" y="86" on="1"/>
        <pt x="396" y="86" on="1"/>
        <pt x="460" y="151" on="1"/>
      </contour>
    </TTGlyph>
    <TTGlyph name="caron" xMin="60" yMin="711" xMax="337" yMax="816">
      <contour>
        <pt x="248" y="711" on="1"/>
        <pt x="149" y="711" on="1"/>
        <pt x="60" y="788" on="1"/>
        <pt x="73" y="816" on="1"/>
        <pt x="155" y="816" on="1"/>
        <pt x="198" y="767" on="1"/>
        <pt x="242" y="816" on="1"/>
        <pt x="324" y="816" on="1"/>
        <pt x="337" y="788" on="1"/>
      </contour>
    </TTGlyph>
    <TTGlyph name="ccedilla" xMin="80" yMin="-150" xMax="540" yMax="650">
      <contour>
        <pt x="540" y="414" on="1"/>
        <pt x="460" y="414" on="1"/>
        <pt x="460" y="499" on="1"/>
        <pt x="397" y="564" on="1"/>
        <pt x="224" y="564" on="1"/>
        <pt x="172" y="511" on="1"/>
        <pt x="172" y="139" on="1"/>
        <pt x="223" y="86" on="1"/>
        <pt x="396" y="86" on="1"/>
        <pt x="460" y="151" on="1"/>
        <pt x="460" y="236" on="1"/>
        <pt x="540" y="236" on="1"/>
        <pt x="540" y="110" on="1"/>
        <pt x="436" y="0" on="1"/>
        <pt x="360" y="0" on="1"/>
        <pt x="290" y="-150" on="1"/>
        <pt x="240" y="-150" on="1"/>
        <pt x="260" y="0" on="1"/>
        <pt x="184" y="0" on="1"/>
        <pt x="80" y="110" on="1"/>
        <pt x="80" y="540" on="1"/>
        <pt x="184" y="650" on="1"/>
        <pt x="436" y="650" on="1"/>
        <pt x="540" y="540" on="1"/>
      </contour>
    </TTGlyph>
    <TTGlyph name="cedilla" xMin="40" yMin="-150" xMax="160" yMax="0">
      <contour>
        <pt x="60" y="0" on="1"/>
        <pt x="160" y="0" on="1"/>
        <pt x="90" y="-150" on="1"/>
        <pt x="40" y="-150" on="1"/>
      </contour>
    </TTGlyph>
    <TTGlyph name="cent" xMin="100" yMin="1" xMax="581" yMax="751">
      <contour>
        <pt x="313" y="1" on="1"/>
        <pt x="313" y="100" on="1"/>
        <pt x="204" y="100" on="1"/>
        <pt x="100" y="210" on="1"/>
        <pt x="100" y="540" on="1"/>
        <pt x="204" y="650" on="1"/>
        <pt x="313" y="650" on="1"/>
        <pt x="313" y="751" on="1"/>
        <pt x="383" y="751" on="1"/>
        <pt x="383" y="650" on="1"/>
        <pt x="496" y="650" on="1"/>
        <pt x="581" y="560" on="1"/>
        <pt x="520" y="499" on="1"/>
        <pt x="457" y="564" on="1"/>
        <pt x="383" y="564" on="1"/>
        <pt x="383" y="186" on="1"/>
        <pt x="456" y="186" on="1"/>
        <pt x="520" y="251" on="1"/>
        <pt x="581" y="190" on="1"/>
        <pt x="496" y="100" on="1"/>
        <pt x="383" y="100" on="1"/>
        <pt x="383" y="1" on="1"/>
      </contour>
      <contour>
        <pt x="313" y="186" on="1"/>
        <pt x="313" y="564" on="1"/>
        <pt x="244" y="564" on="1"/>
        <pt x="192" y="511" on="1"/>
        <pt x="192" y="239" on="1"/>
        <pt x="243" y="186" on="1"/>
      </contour>
    </TTGlyph>
    <TTGlyph name="circumflex" xMin="60" yMin="711" xMax="337" yMax="816">
      <contour>
        <pt x="149" y="816" on="1"/>
        <pt x="248" y="816" on="1"/>
        <pt x="337" y="739" on="1"/>
        <pt x="324" y="711" on="1"/>
        <pt x="242" y="711" on="1"/>
        <pt x="198" y="760" on="1"/>
        <pt x="155" y="711" on="1"/>
        <pt x="73" y="711" on="1"/>
        <pt x="60" y="739" on="1"/>
      </contour>
    </TTGlyph>
    <TTGlyph name="colon" xMin="50" yMin="0" xMax="150" yMax="520">
      <contour>
        <pt x="50" y="120" on="1"/>
        <pt x="150" y="120" on="1"/>
        <pt x="150" y="0" on="1"/>
        <pt x="50" y="0" on="1"/>
      </contour>
      <contour>
        <pt x="50" y="520" on="1"/>
        <pt x="150" y="520" on="1"/>
        <pt x="150" y="400" on="1"/>
        <pt x="50" y="400" on="1"/>
      </contour>
    </TTGlyph>
    <TTGlyph name="comma" xMin="50" yMin="-130" xMax="150" yMax="120">
      <contour>
        <pt x="50" y="120" on="1"/>
        <pt x="150" y="120" on="1"/>
        <pt x="150" y="30" on="1"/>
        <pt x="90" y="-130" on="1"/>
        <pt x="50" y="-130" on="1"/>
      </contour>
    </TTGlyph>
    <TTGlyph name="copyright" xMin="100" yMin="261" xMax="600" yMax="801">
      <contour>
        <pt x="188" y="261" on="1"/>
        <pt x="100" y="353" on="1"/>
        <pt x="100" y="708" on="1"/>
        <pt x="188" y="801" on="1"/>
        <pt x="512" y="801" on="1"/>
        <pt x="600" y="708" on="1"/>
        <pt x="600" y="353" on="1"/>
        <pt x="512" y="261" on="1"/>
      </contour>
      <contour>
        <pt x="150" y="374" on="1"/>
        <pt x="209" y="311" on="1"/>
        <pt x="491" y="311" on="1"/>
        <pt x="550" y="374" on="1"/>
        <pt x="550" y="688" on="1"/>
        <pt x="489" y="751" on="1"/>
        <pt x="210" y="751" on="1"/>
        <pt x="150" y="688" on="1"/>
      </contour>
      <contour>
        <pt x="436" y="488" on="1"/>
        <pt x="500" y="488" on="1"/>
        <pt x="500" y="423" on="1"/>
        <pt x="435" y="354" on="1"/>
        <pt x="281" y="354" on="1"/>
        <pt x="216" y="423" on="1"/>
        <pt x="216" y="639" on="1"/>
        <pt x="281" y="708" on="1"/>
        <pt x="435" y="708" on="1"/>
        <pt x="500" y="639" on="1"/>
        <pt x="500" y="573" on="1"/>
        <pt x="436" y="573" on="1"/>
        <pt x="436" y="607" on="1"/>
        <pt x="404" y="640" on="1"/>
        <pt x="310" y="640" on="1"/>
        <pt x="286" y="616" on="1"/>
        <pt x="286" y="446" on="1"/>
        <pt x="310" y="422" on="1"/>
        <pt x="404" y="422" on="1"/>
        <pt x="436" y="454" on="1"/>
      </contour>
    </TTGlyph>
    <TTGlyph name="d" xMin="80" yMin="0" xMax="610" yMax="650">
      <contour>
        <pt x="80" y="650" on="1"/>
        <pt x="506" y="650" on="1"/>
        <pt x="610" y="540" on="1"/>
        <pt x="610" y="110" on="1"/>
        <pt x="506" y="0" on="1"/>
        <pt x="80" y="0" on="1"/>
        <pt x="80" y="80" on="1"/>
        <pt x="150" y="80" on="1"/>
        <pt x="150" y="570" on="1"/>
        <pt x="80" y="570" on="1"/>
      </contour>
      <contour>
        <pt x="242" y="86" on="1"/>
        <pt x="466" y="86" on="1"/>
        <pt x="518" y="139" on="1"/>
        <pt x="518" y="511" on="1"/>
        <pt x="467" y="564" on="1"/>
        <pt x="242" y="564" on="1"/>
      </contour>
    </TTGlyph>
    <TTGlyph name="dagger" xMin="50" yMin="-100" xMax="510" yMax="800">
      <contour>
        <pt x="50" y="500" on="1"/>
        <pt x="50" y="600" on="1"/>
        <pt x="150" y="600" on="1"/>
        <pt x="255" y="576" on="1"/>
        <pt x="230" y="700" on="1"/>
        <pt x="230" y="800" on="1"/>
        <pt x="330" y="800" on="1"/>
        <pt x="330" y="700" on="1"/>
        <pt x="305" y="576" on="1"/>
        <pt x="410" y="600" on="1"/>
        <pt x="510" y="600" on="1"/>
        <pt x="510" y="500" on="1"/>
        <pt x="410" y="500" on="1"/>
        <pt x="305" y="524" on="1"/>
        <pt x="330" y="400" on="1"/>
        <pt x="330" y="-100" on="1"/>
        <pt x="230" y="-100" on="1"/>
        <pt x="230" y="400" on="1"/>
        <pt x="255" y="524" on="1"/>
        <pt x="150" y="500" on="1"/>
      </contour>
    </TTGlyph>
    <TTGlyph name="daggerdbl" xMin="50" yMin="-100" xMax="510" yMax="800">
      <contour>
        <pt x="50" y="500" on="1"/>
        <pt x="50" y="600" on="1"/>
        <pt x="150" y="600" on="1"/>
        <pt x="255" y="576" on="1"/>
        <pt x="230" y="700" on="1"/>
        <pt x="230" y="800" on="1"/>
        <pt x="330" y="800" on="1"/>
        <pt x="330" y="700" on="1"/>
        <pt x="305" y="576" on="1"/>
        <pt x="410" y="600" on="1"/>
        <pt x="510" y="600" on="1"/>
        <pt x="510" y="500" on="1"/>
        <pt x="410" y="500" on="1"/>
        <pt x="305" y="524" on="1"/>
        <pt x="330" y="400" on="1"/>
        <pt x="330" y="300" on="1"/>
        <pt x="305" y="176" on="1"/>
        <pt x="410" y="200" on="1"/>
        <pt x="510" y="200" on="1"/>
        <pt x="510" y="100" on="1"/>
        <pt x="410" y="100" on="1"/>
        <pt x="305" y="124" on="1"/>
        <pt x="330" y="0" on="1"/>
        <pt x="330" y="-100" on="1"/>
        <pt x="230" y="-100" on="1"/>
        <pt x="230" y="0" on="1"/>
        <pt x="255" y="124" on="1"/>
        <pt x="150" y="100" on="1"/>
        <pt x="50" y="100" on="1"/>
        <pt x="50" y="200" on="1"/>
        <pt x="150" y="200" on="1"/>
        <pt x="255" y="176" on="1"/>
        <pt x="230" y="300" on="1"/>
        <pt x="230" y="400" on="1"/>
        <pt x="255" y="524" on="1"/>
        <pt x="150" y="500" on="1"/>
      </contour>
    </TTGlyph>
    <TTGlyph name="degree" xMin="50" yMin="500" xMax="351" yMax="801">
      <contour>
        <pt x="115" y="500" on="1"/>
        <pt x="50" y="569" on="1"/>
        <pt x="50" y="732" on="1"/>
        <pt x="115" y="801" on="1"/>
        <pt x="287" y="801" on="1"/>
        <pt x="351" y="732" on="1"/>
        <pt x="351" y="569" on="1"/>
        <pt x="287" y="500" on="1"/>
      </contour>
      <contour>
        <pt x="145" y="568" on="1"/>
        <pt x="257" y="568" on="1"/>
        <pt x="284" y="595" on="1"/>
        <pt x="284" y="706" on="1"/>
        <pt x="257" y="733" on="1"/>
        <pt x="145" y="733" on="1"/>
        <pt x="118" y="706" on="1"/>
        <pt x="118" y="595" on="1"/>
      </contour>
    </TTGlyph>
    <TTGlyph name="dieresis" xMin="63" yMin="711" xMax="334" yMax="812">
      <contour>
        <pt x="63" y="711" on="1"/>
        <pt x="63" y="812" on="1"/>
        <pt x="155" y="812" on="1"/>
        <pt x="155" y="711" on="1"/>
      </contour>
      <contour>
        <pt x="242" y="711" on="1"/>
        <pt x="242" y="812" on="1"/>
        <pt x="334" y="812" on="1"/>
        <pt x="334" y="711" on="1"/>
      </contour>
    </TTGlyph>
    <TTGlyph name="divide" xMin="115" yMin="115" xMax="535" yMax="635">
      <contour>
        <pt x="115" y="415" on="1"/>
        <pt x="535" y="415" on="1"/>
        <pt x="535" y="335" on="1"/>
        <pt x="115" y="335" on="1"/>
      </contour>
      <contour>
        <pt x="275" y="635" on="1"/>
        <pt x="375" y="635" on="1"/>
        <pt x="375" y="515" on="1"/>
        <pt x="275" y="515" on="1"/>
      </contour>
      <contour>
        <pt x="275" y="235" on="1"/>
        <pt x="375" y="235" on="1"/>
        <pt x="375" y="115" on="1"/>
        <pt x="275" y="115" on="1"/>
      </contour>
    </TTGlyph>
    <TTGlyph name="dollar" xMin="82" yMin="-100" xMax="570" yMax="850">
      <contour>
        <pt x="370" y="664" on="1"/>
        <pt x="370" y="423" on="1"/>
        <pt x="469" y="423" on="1"/>
        <pt x="570" y="317" on="1"/>
        <pt x="570" y="110" on="1"/>
        <pt x="466" y="0" on="1"/>
        <pt x="370" y="0" on="1"/>
        <pt x="370" y="-100" on="1"/>
        <pt x="300" y="-100" on="1"/>
        <pt x="300" y="0" on="1"/>
        <pt x="164" y="0" on="1"/>
        <pt x="82" y="86" on="1"/>
        <pt x="143" y="147" on="1"/>
        <pt x="204" y="86" on="1"/>
        <pt x="300" y="86" on="1"/>
        <pt x="300" y="337" on="1"/>
        <pt x="202" y="337" on="1"/>
        <pt x="100" y="444" on="1"/>
        <pt x="100" y="640" on="1"/>
        <pt x="204" y="750" on="1"/>
        <pt x="300" y="750" on="1"/>
        <pt x="300" y="850" on="1"/>
        <pt x="370" y="850" on="1"/>
        <pt x="370" y="750" on="1"/>
        <pt x="486" y="750" on="1"/>
        <pt x="568" y="664" on="1"/>
        <pt x="507" y="603" on="1"/>
        <pt x="447" y="664" on="1"/>
      </contour>
      <contour>
        <pt x="370" y="337" on="1"/>
        <pt x="370" y="86" on="1"/>
        <pt x="427" y="86" on="1"/>
        <pt x="478" y="139" on="1"/>
        <pt x="478" y="288" on="1"/>
        <pt x="430" y="337" on="1"/>
      </contour>
      <contour>
        <pt x="300" y="423" on="1"/>
        <pt x="300" y="664" on="1"/>
        <pt x="244" y="664" on="1"/>
        <pt x="192" y="611" on="1"/>
        <pt x="192" y="473" on="1"/>
        <pt x="241" y="423" on="1"/>
      </contour>
    </TTGlyph>
    <TTGlyph name="dotaccent" xMin="58" yMin="711" xMax="159" yMax="812">
      <contour>
        <pt x="58" y="711" on="1"/>
        <pt x="58" y="812" on="1"/>
        <pt x="159" y="812" on="1"/>
        <pt x="159" y="711" on="1"/>
      </contour>
    </TTGlyph>
    <TTGlyph name="dotlessi" xMin="70" yMin="0" xMax="322" yMax="650">
      <contour>
        <pt x="70" y="80" on="1"/>
        <pt x="150" y="80" on="1"/>
        <pt x="150" y="570" on="1"/>
        <pt x="70" y="570" on="1"/>
        <pt x="70" y="650" on="1"/>
        <pt x="322" y="650" on="1"/>
        <pt x="322" y="570" on="1"/>
        <pt x="242" y="570" on="1"/>
        <pt x="242" y="80" on="1"/>
        <pt x="322" y="80" on="1"/>
        <pt x="322" y="0" on="1"/>
        <pt x="70" y="0" on="1"/>
      </contour>
    </TTGlyph>
    <TTGlyph name="e" xMin="80" yMin="0" xMax="556" yMax="650">
      <contour>
        <pt x="80" y="650" on="1"/>
        <pt x="556" y="650" on="1"/>
        <pt x="556" y="454" on="1"/>
        <pt x="476" y="454" on="1"/>
        <pt x="476" y="570" on="1"/>
        <pt x="242" y="570" on="1"/>
        <pt x="242" y="365" on="1"/>
        <pt x="476" y="365" on="1"/>
        <pt x="476" y="285" on="1"/>
        <pt x="242" y="285" on="1"/>
        <pt x="242" y="80" on="1"/>
        <pt x="476" y="80" on="1"/>
        <pt x="476" y="196" on="1"/>
        <pt x="556" y="196" on="1"/>
        <pt x="556" y="0" on="1"/>
        <pt x="80" y="0" on="1"/>
        <pt x="80" y="80" on="1"/>
        <pt x="150" y="80" on="1"/>
        <pt x="150" y="570" on="1"/>
        <pt x="80" y="570" on="1"/>
      </contour>
    </TTGlyph>
    <TTGlyph name="eacute" xMin="80" yMin="0" xMax="556" yMax="826">
      <contour>
        <pt x="80" y="650" on="1"/>
        <pt x="556" y="650" on="1"/>
        <pt x="556" y="454" on="1"/>
        <pt x="476" y="454" on="1"/>
        <pt x="476" y="570" on="1"/>
        <pt x="242" y="570" on="1"/>
        <pt x="242" y="365" on="1"/>
        <pt x="476" y="365" on="1"/>
        <pt x="476" y="285" on="1"/>
        <pt x="242" y="285" on="1"/>
        <pt x="242" y="80" on="1"/>
        <pt x="476" y="80" on="1"/>
        <pt x="476" y="196" on="1"/>
        <pt x="556" y="196" on="1"/>
        <pt x="556" y="0" on="1"/>
        <pt x="80" y="0" on="1"/>
        <pt x="80" y="80" on="1"/>
        <pt x="150" y="80" on="1"/>
        <pt x="150" y="570" on="1"/>
        <pt x="80" y="570" on="1"/>
      </contour>
      <contour>
        <pt x="425" y="826" on="1"/>
        <pt x="454" y="743" on="1"/>
        <pt x="376" y="711" on="1"/>
        <pt x="244" y="711" on="1"/>
        <pt x="231" y="749" on="1"/>
      </contour>
    </TTGlyph>
    <TTGlyph name="ecircumflex" xMin="80" yMin="0" xMax="556" yMax="816">
      <contour>
        <pt x="80" y="650" on="1"/>
        <pt x="556" y="650" on="1"/>
        <pt x="556" y="454" on="1"/>
        <pt x="476" y="454" on="1"/>
        <pt x="476" y="570" on="1"/>
        <pt x="242" y="570" on="1"/>
        <pt x="242" y="365" on="1"/>
        <pt x="476" y="365" on="1"/>
        <pt x="476" y="285" on="1"/>
        <pt x="242" y="285" on="1"/>
        <pt x="242" y="80" on="1"/>
        <pt x="476" y="80" on="1"/>
        <pt x="476" y="196" on="1"/>
        <pt x="556" y="196" on="1"/>
        <pt x="556" y="0" on="1"/>
        <pt x="80" y="0" on="1"/>
        <pt x="80" y="80" on="1"/>
        <pt x="150" y="80" on="1"/>
        <pt x="150" y="570" on="1"/>
        <pt x="80" y="570" on="1"/>
      </contour>
      <contour>
        <pt x="263" y="816" on="1"/>
        <pt x="362" y="816" on="1"/>
        <pt x="451" y="739" on="1"/>
        <pt x="438" y="711" on="1"/>
        <pt x="356" y="711" on="1"/>
        <pt x="312" y="760" on="1"/>
        <pt x="269" y="711" on="1"/>
        <pt x="187" y="711" on="1"/>
        <pt x="174" y="739" on="1"/>
      </contour>
    </TTGlyph>
    <TTGlyph name="edieresis" xMin="80" yMin="0" xMax="556" yMax="812">
      <contour>
        <pt x="80" y="650" on="1"/>
        <pt x="556" y="650" on="1"/>
        <pt x="556" y="454" on="1"/>
        <pt x="476" y="454" on="1"/>
        <pt x="476" y="570" on="1"/>
        <pt x="242" y="570" on="1"/>
        <pt x="242" y="365" on="1"/>
        <pt x="476" y="365" on="1"/>
        <pt x="476" y="285" on="1"/>
        <pt x="242" y="285" on="1"/>
        <pt x="242" y="80" on="1"/>
        <pt x="476" y="80" on="1"/>
        <pt x="476" y="196" on="1"/>
        <pt x="556" y="196" on="1"/>
        <pt x="556" y="0" on="1"/>
        <pt x="80" y="0" on="1"/>
        <pt x="80" y="80" on="1"/>
        <pt x="150" y="80" on="1"/>
        <pt x="150" y="570" on="1"/>
        <pt x="80" y="570" on="1"/>
      </contour>
      <contour>
        <pt x="177" y="711" on="1"/>
        <pt x="177" y="812" on="1"/>
        <pt x="269" y="812" on="1"/>
        <pt x="269" y="711" on="1"/>
      </contour>
      <contour>
        <pt x="356" y="711" on="1"/>
        <pt x="356" y="812" on="1"/>
        <pt x="448" y="812" on="1"/>
        <pt x="448" y="711" on="1"/>
      </contour>
    </TTGlyph>
    <TTGlyph name="egrave" xMin="80" yMin="0" xMax="556" yMax="826">
      <contour>
        <pt x="80" y="650" on="1"/>
        <pt x="556" y="650" on="1"/>
        <pt x="556" y="454" on="1"/>
        <pt x="476" y="454" on="1"/>
        <pt x="476" y="570" on="1"/>
        <pt x="242" y="570" on="1"/>
        <pt x="242" y="365" on="1"/>
        <pt x="476" y="365" on="1"/>
        <pt x="476" y="285" on="1"/>
        <pt x="242" y="285" on="1"/>
        <pt x="242" y="80" on="1"/>
        <pt x="476" y="80" on="1"/>
        <pt x="476" y="196" on="1"/>
        <pt x="556" y="196" on="1"/>
        <pt x="556" y="0" on="1"/>
        <pt x="80" y="0" on="1"/>
        <pt x="80" y="80" on="1"/>
        <pt x="150" y="80" on="1"/>
        <pt x="150" y="570" on="1"/>
        <pt x="80" y="570" on="1"/>
      </contour>
      <contour>
        <pt x="201" y="743" on="1"/>
        <pt x="230" y="826" on="1"/>
        <pt x="424" y="749" on="1"/>
        <pt x="411" y="711" on="1"/>
        <pt x="279" y="711" on="1"/>
      </contour>
    </TTGlyph>
    <TTGlyph name="eight" xMin="90" yMin="0" xMax="560" yMax="750">
      <contour>
        <pt x="90" y="110" on="1"/>
        <pt x="90" y="317" on="1"/>
        <pt x="155" y="386" on="1"/>
        <pt x="100" y="444" on="1"/>
        <pt x="100" y="640" on="1"/>
        <pt x="204" y="750" on="1"/>
        <pt x="447" y="750" on="1"/>
        <pt x="551" y="640" on="1"/>
        <pt x="551" y="444" on="1"/>
        <pt x="495" y="385" on="1"/>
        <pt x="560" y="317" on="1"/>
        <pt x="560" y="110" on="1"/>
        <pt x="456" y="0" on="1"/>
        <pt x="194" y="0" on="1"/>
      </contour>
      <contour>
        <pt x="420" y="337" on="1"/>
        <pt x="230" y="337" on="1"/>
        <pt x="182" y="288" on="1"/>
        <pt x="182" y="139" on="1"/>
        <pt x="234" y="86" on="1"/>
        <pt x="417" y="86" on="1"/>
        <pt x="468" y="139" on="1"/>
        <pt x="468" y="288" on="1"/>
      </contour>
      <contour>
        <pt x="192" y="473" on="1"/>
        <pt x="241" y="423" on="1"/>
        <pt x="410" y="423" on="1"/>
        <pt x="459" y="473" on="1"/>
        <pt x="459" y="611" on="1"/>
        <pt x="407" y="664" on="1"/>
        <pt x="244" y="664" on="1"/>
        <pt x="192" y="611" on="1"/>
      </contour>
    </TTGlyph>
    <TTGlyph name="ellipsis" xMin="50" yMin="0" xMax="550" yMax="120">
      <contour>
        <pt x="50" y="120" on="1"/>
        <pt x="150" y="120" on="1"/>
        <pt x="150" y="0" on="1"/>
        <pt x="50" y="0" on="1"/>
      </contour>
      <contour>
        <pt x="250" y="120" on="1"/>
        <pt x="350" y="120" on="1"/>
        <pt x="350" y="0" on="1"/>
        <pt x="250" y="0" on="1"/>
      </contour>
      <contour>
        <pt x="450" y="120" on="1"/>
        <pt x="550" y="120" on="1"/>
        <pt x="550" y="0" on="1"/>
        <pt x="450" y="0" on="1"/>
      </contour>
    </TTGlyph>
    <TTGlyph name="emdash" xMin="100" yMin="335" xMax="621" yMax="415">
      <contour>
        <pt x="100" y="415" on="1"/>
        <pt x="621" y="415" on="1"/>
        <pt x="621" y="335" on="1"/>
        <pt x="100" y="335" on="1"/>
      </contour>
    </TTGlyph>
    <TTGlyph name="endash" xMin="100" yMin="335" xMax="501" yMax="415">
      <contour>
        <pt x="100" y="415" on="1"/>
        <pt x="501" y="415" on="1"/>
        <pt x="501" y="335" on="1"/>
        <pt x="100" y="335" on="1"/>
      </contour>
    </TTGlyph>
    <TTGlyph name="equal" xMin="115" yMin="215" xMax="535" yMax="535">
      <contour>
        <pt x="115" y="535" on="1"/>
        <pt x="535" y="535" on="1"/>
        <pt x="535" y="455" on="1"/>
        <pt x="115" y="455" on="1"/>
      </contour>
      <contour>
        <pt x="115" y="295" on="1"/>
        <pt x="535" y="295" on="1"/>
        <pt x="535" y="215" on="1"/>
        <pt x="115" y="215" on="1"/>
      </contour>
    </TTGlyph>
    <TTGlyph name="eth" xMin="80" yMin="0" xMax="610" yMax="650">
      <contour>
        <pt x="80" y="650" on="1"/>
        <pt x="506" y="650" on="1"/>
        <pt x="610" y="540" on="1"/>
        <pt x="610" y="110" on="1"/>
        <pt x="506" y="0" on="1"/>
        <pt x="80" y="0" on="1"/>
        <pt x="80" y="80" on="1"/>
        <pt x="150" y="80" on="1"/>
        <pt x="150" y="285" on="1"/>
        <pt x="87" y="285" on="1"/>
        <pt x="87" y="365" on="1"/>
        <pt x="150" y="365" on="1"/>
        <pt x="150" y="570" on="1"/>
        <pt x="80" y="570" on="1"/>
      </contour>
      <contour>
        <pt x="242" y="86" on="1"/>
        <pt x="466" y="86" on="1"/>
        <pt x="518" y="139" on="1"/>
        <pt x="518" y="511" on="1"/>
        <pt x="467" y="564" on="1"/>
        <pt x="242" y="564" on="1"/>
        <pt x="242" y="365" on="1"/>
        <pt x="396" y="365" on="1"/>
        <pt x="396" y="285" on="1"/>
        <pt x="242" y="285" on="1"/>
      </contour>
    </TTGlyph>
    <TTGlyph name="exclam" xMin="80" yMin="0" xMax="180" yMax="750">
      <contour>
        <pt x="80" y="120" on="1"/>
        <pt x="180" y="120" on="1"/>
        <pt x="180" y="0" on="1"/>
        <pt x="80" y="0" on="1"/>
      </contour>
      <contour>
        <pt x="80" y="750" on="1"/>
        <pt x="180" y="750" on="1"/>
        <pt x="180" y="470" on="1"/>
        <pt x="150" y="220" on="1"/>
        <pt x="110" y="220" on="1"/>
        <pt x="80" y="470" on="1"/>
      </contour>
    </TTGlyph>
    <TTGlyph name="exclamdown" xMin="80" yMin="-100" xMax="180" yMax="650">
      <contour>
        <pt x="180" y="530" on="1"/>
        <pt x="80" y="530" on="1"/>
        <pt x="80" y="650" on="1"/>
        <pt x="180" y="650" on="1"/>
      </contour>
      <contour>
        <pt x="180" y="-100" on="1"/>
        <pt x="80" y="-100" on="1"/>
        <pt x="80" y="180" on="1"/>
        <pt x="110" y="430" on="1"/>
        <pt x="150" y="430" on="1"/>
        <pt x="180" y="180" on="1"/>
      </contour>
    </TTGlyph>
    <TTGlyph name="f" xMin="80" yMin="0" xMax="556" yMax="650">
      <contour>
        <pt x="80" y="650" on="1"/>
        <pt x="556" y="650" on="1"/>
        <pt x="556" y="454" on="1"/>
        <pt x="476" y="454" on="1"/>
        <pt x="476" y="570" on="1"/>
        <pt x="242" y="570" on="1"/>
        <pt x="242" y="365" on="1"/>
        <pt x="476" y="365" on="1"/>
        <pt x="476" y="285" on="1"/>
        <pt x="242" y="285" on="1"/>
        <pt x="242" y="80" on="1"/>
        <pt x="322" y="80" on="1"/>
        <pt x="322" y="0" on="1"/>
        <pt x="80" y="0" on="1"/>
        <pt x="80" y="80" on="1"/>
        <pt x="150" y="80" on="1"/>
        <pt x="150" y="570" on="1"/>
        <pt x="80" y="570" on="1"/>
      </contour>
    </TTGlyph>
    <TTGlyph name="fi" xMin="80" yMin="0" xMax="918" yMax="650">
      <contour>
        <pt x="80" y="650" on="1"/>
        <pt x="556" y="650" on="1"/>
        <pt x="556" y="454" on="1"/>
        <pt x="476" y="454" on="1"/>
        <pt x="476" y="570" on="1"/>
        <pt x="242" y="570" on="1"/>
        <pt x="242" y="365" on="1"/>
        <pt x="476" y="365" on="1"/>
        <pt x="476" y="285" on="1"/>
        <pt x="242" y="285" on="1"/>
        <pt x="242" y="80" on="1"/>
        <pt x="322" y="80" on="1"/>
        <pt x="322" y="0" on="1"/>
        <pt x="80" y="0" on="1"/>
        <pt x="80" y="80" on="1"/>
        <pt x="150" y="80" on="1"/>
        <pt x="150" y="570" on="1"/>
        <pt x="80" y="570" on="1"/>
      </contour>
      <contour>
        <pt x="666" y="650" on="1"/>
        <pt x="918" y="650" on="1"/>
        <pt x="918" y="570" on="1"/>
        <pt x="838" y="570" on="1"/>
        <pt x="838" y="80" on="1"/>
        <pt x="918" y="80" on="1"/>
        <pt x="918" y="0" on="1"/>
        <pt x="666" y="0" on="1"/>
        <pt x="666" y="80" on="1"/>
        <pt x="746" y="80" on="1"/>
        <pt x="746" y="570" on="1"/>
        <pt x="666" y="570" on="1"/>
      </contour>
    </TTGlyph>
    <TTGlyph name="five" xMin="99" yMin="0" xMax="559" yMax="750">
      <contour>
        <pt x="459" y="554" on="1"/>
        <pt x="459" y="670" on="1"/>
        <pt x="199" y="670" on="1"/>
        <pt x="199" y="453" on="1"/>
        <pt x="458" y="453" on="1"/>
        <pt x="559" y="347" on="1"/>
        <pt x="559" y="110" on="1"/>
        <pt x="455" y="0" on="1"/>
        <pt x="203" y="0" on="1"/>
        <pt x="99" y="110" on="1"/>
        <pt x="99" y="236" on="1"/>
        <pt x="182" y="236" on="1"/>
        <pt x="182" y="148" on="1"/>
        <pt x="243" y="86" on="1"/>
        <pt x="416" y="86" on="1"/>
        <pt x="467" y="139" on="1"/>
        <pt x="467" y="318" on="1"/>
        <pt x="413" y="373" on="1"/>
        <pt x="119" y="373" on="1"/>
        <pt x="119" y="750" on="1"/>
        <pt x="539" y="750" on="1"/>
        <pt x="539" y="554" on="1"/>
      </contour>
    </TTGlyph>
    <TTGlyph name="fl" xMin="80" yMin="0" xMax="1132" yMax="650">
      <contour>
        <pt x="80" y="650" on="1"/>
        <pt x="556" y="650" on="1"/>
        <pt x="556" y="454" on="1"/>
        <pt x="476" y="454" on="1"/>
        <pt x="476" y="570" on="1"/>
        <pt x="242" y="570" on="1"/>
        <pt x="242" y="365" on="1"/>
        <pt x="476" y="365" on="1"/>
        <pt x="476" y="285" on="1"/>
        <pt x="242" y="285" on="1"/>
        <pt x="242" y="80" on="1"/>
        <pt x="322" y="80" on="1"/>
        <pt x="322" y="0" on="1"/>
        <pt x="80" y="0" on="1"/>
        <pt x="80" y="80" on="1"/>
        <pt x="150" y="80" on="1"/>
        <pt x="150" y="570" on="1"/>
        <pt x="80" y="570" on="1"/>
      </contour>
      <contour>
        <pt x="676" y="650" on="1"/>
        <pt x="918" y="650" on="1"/>
        <pt x="918" y="570" on="1"/>
        <pt x="838" y="570" on="1"/>
        <pt x="838" y="80" on="1"/>
        <pt x="1056" y="80" on="1"/>
        <pt x="1056" y="196" on="1"/>
        <pt x="1132" y="196" on="1"/>
        <pt x="1132" y="0" on="1"/>
        <pt x="676" y="0" on="1"/>
        <pt x="676" y="80" on="1"/>
        <pt x="746" y="80" on="1"/>
        <pt x="746" y="570" on="1"/>
        <pt x="676" y="570" on="1"/>
      </contour>
    </TTGlyph>
    <TTGlyph name="florin" xMin="117" yMin="-178" xMax="607" yMax="750">
      <contour>
        <pt x="249" y="334" on="1"/>
        <pt x="117" y="334" on="1"/>
        <pt x="117" y="404" on="1"/>
        <pt x="249" y="404" on="1"/>
        <pt x="249" y="640" on="1"/>
        <pt x="353" y="750" on="1"/>
        <pt x="525" y="750" on="1"/>
        <pt x="607" y="664" on="1"/>
        <pt x="546" y="603" on="1"/>
        <pt x="486" y="664" on="1"/>
        <pt x="393" y="664" on="1"/>
        <pt x="341" y="611" on="1"/>
        <pt x="341" y="404" on="1"/>
        <pt x="486" y="404" on="1"/>
        <pt x="486" y="334" on="1"/>
        <pt x="341" y="334" on="1"/>
        <pt x="341" y="10" on="1"/>
        <pt x="258" y="-178" on="1"/>
        <pt x="172" y="-140" on="1"/>
        <pt x="249" y="34" on="1"/>
      </contour>
    </TTGlyph>
    <TTGlyph name="four" xMin="40" yMin="0" xMax="552" yMax="750">
      <contour>
        <pt x="310" y="80" on="1"/>
        <pt x="390" y="80" on="1"/>
        <pt x="390" y="187" on="1"/>
        <pt x="40" y="187" on="1"/>
        <pt x="40" y="267" on="1"/>
        <pt x="332" y="750" on="1"/>
        <pt x="482" y="750" on="1"/>
        <pt x="482" y="267" on="1"/>
        <pt x="545" y="267" on="1"/>
        <pt x="545" y="187" on="1"/>
        <pt x="482" y="187" on="1"/>
        <pt x="482" y="80" on="1"/>
        <pt x="552" y="80" on="1"/>
        <pt x="552" y="0" on="1"/>
        <pt x="310" y="0" on="1"/>
      </contour>
      <contour>
        <pt x="390" y="267" on="1"/>
        <pt x="390" y="679" on="1"/>
        <pt x="141" y="267" on="1"/>
      </contour>
    </TTGlyph>
    <TTGlyph name="fraction" xMin="259" yMin="-35" xMax="641" yMax="784">
      <contour>
        <pt x="259" y="-35" on="1"/>
        <pt x="564" y="784" on="1"/>
        <pt x="641" y="784" on="1"/>
        <pt x="336" y="-35" on="1"/>
      </contour>
    </TTGlyph>
    <TTGlyph name="g" xMin="80" yMin="0" xMax="550" yMax="650">
      <contour>
        <pt x="470" y="255" on="1"/>
        <pt x="332" y="255" on="1"/>
        <pt x="332" y="335" on="1"/>
        <pt x="550" y="335" on="1"/>
        <pt x="550" y="110" on="1"/>
        <pt x="446" y="0" on="1"/>
        <pt x="184" y="0" on="1"/>
        <pt x="80" y="110" on="1"/>
        <pt x="80" y="540" on="1"/>
        <pt x="184" y="650" on="1"/>
        <pt x="446" y="650" on="1"/>
        <pt x="550" y="540" on="1"/>
        <pt x="550" y="414" on="1"/>
        <pt x="470" y="414" on="1"/>
        <pt x="470" y="499" on="1"/>
        <pt x="407" y="564" on="1"/>
        <pt x="224" y="564" on="1"/>
        <pt x="172" y="511" on="1"/>
        <pt x="172" y="139" on="1"/>
        <pt x="223" y="86" on="1"/>
        <pt x="406" y="86" on="1"/>
        <pt x="470" y="151" on="1"/>
      </contour>
    </TTGlyph>
    <TTGlyph name="germandbls" xMin="60" yMin="0" xMax="634" yMax="750">
      <contour>
        <pt x="548" y="323" on="1"/>
        <pt x="304" y="323" on="1"/>
        <pt x="304" y="403" on="1"/>
        <pt x="369" y="403" on="1"/>
        <pt x="480" y="515" on="1"/>
        <pt x="480" y="605" on="1"/>
        <pt x="423" y="664" on="1"/>
        <pt x="274" y="664" on="1"/>
        <pt x="222" y="611" on="1"/>
        <pt x="222" y="0" on="1"/>
        <pt x="60" y="0" on="1"/>
        <pt x="60" y="80" on="1"/>
        <pt x="130" y="80" on="1"/>
        <pt x="130" y="640" on="1"/>
        <pt x="234" y="750" on="1"/>
        <pt x="462" y="750" on="1"/>
        <pt x="566" y="640" on="1"/>
        <pt x="566" y="480" on="1"/>
        <pt x="492" y="403" on="1"/>
        <pt x="584" y="403" on="1"/>
        <pt x="634" y="353" on="1"/>
        <pt x="634" y="110" on="1"/>
        <pt x="530" y="0" on="1"/>
        <pt x="352" y="0" on="1"/>
        <pt x="255" y="103" on="1"/>
        <pt x="314" y="165" on="1"/>
        <pt x="392" y="86" on="1"/>
        <pt x="490" y="86" on="1"/>
        <pt x="548" y="145" on="1"/>
      </contour>
    </TTGlyph>
    <TTGlyph name="grave" xMin="130" yMin="711" xMax="353" yMax="826">
      <contour>
        <pt x="130" y="743" on="1"/>
        <pt x="159" y="826" on="1"/>
        <pt x="353" y="749" on="1"/>
        <pt x="340" y="711" on="1"/>
        <pt x="208" y="711" on="1"/>
      </contour>
    </TTGlyph>
    <TTGlyph name="greater" xMin="115" yMin="135" xMax="535" yMax="615">
      <contour>
        <pt x="115" y="215" on="1"/>
        <pt x="451" y="375" on="1"/>
        <pt x="115" y="535" on="1"/>
        <pt x="115" y="615" on="1"/>
        <pt x="535" y="415" on="1"/>
        <pt x="535" y="335" on="1"/>
        <pt x="115" y="135" on="1"/>
      </contour>
    </TTGlyph>
    <TTGlyph name="greaterequal" xMin="115" yMin="0" xMax="535" yMax="615">
      <contour>
        <pt x="115" y="215" on="1"/>
        <pt x="451" y="375" on="1"/>
        <pt x="115" y="535" on="1"/>
        <pt x="115" y="615" on="1"/>
        <pt x="535" y="415" on="1"/>
        <pt x="535" y="335" on="1"/>
        <pt x="115" y="135" on="1"/>
      </contour>
      <contour>
        <pt x="115" y="80" on="1"/>
        <pt x="535" y="80" on="1"/>
        <pt x="535" y="0" on="1"/>
        <pt x="115" y="0" on="1"/>
      </contour>
    </TTGlyph>
    <TTGlyph name="guillemotleft" xMin="35" yMin="168" xMax="434" yMax="582">
      <contour>
        <pt x="122" y="375" on="1"/>
        <pt x="234" y="221" on="1"/>
        <pt x="165" y="168" on="1"/>
        <pt x="35" y="342" on="1"/>
        <pt x="35" y="408" on="1"/>
        <pt x="165" y="582" on="1"/>
        <pt x="234" y="529" on="1"/>
      </contour>
      <contour>
        <pt x="322" y="375" on="1"/>
        <pt x="434" y="221" on="1"/>
        <pt x="365" y="168" on="1"/>
        <pt x="235" y="342" on="1"/>
        <pt x="235" y="408" on="1"/>
        <pt x="365" y="582" on="1"/>
        <pt x="434" y="529" on="1"/>
      </contour>
    </TTGlyph>
    <TTGlyph name="guillemotright" xMin="35" yMin="168" xMax="434" yMax="582">
      <contour>
        <pt x="235" y="221" on="1"/>
        <pt x="347" y="375" on="1"/>
        <pt x="235" y="529" on="1"/>
        <pt x="304" y="582" on="1"/>
        <pt x="434" y="408" on="1"/>
        <pt x="434" y="342" on="1"/>
        <pt x="304" y="168" on="1"/>
      </contour>
      <contour>
        <pt x="35" y="221" on="1"/>
        <pt x="147" y="375" on="1"/>
        <pt x="35" y="529" on="1"/>
        <pt x="104" y="582" on="1"/>
        <pt x="234" y="408" on="1"/>
        <pt x="234" y="342" on="1"/>
        <pt x="104" y="168" on="1"/>
      </contour>
    </TTGlyph>
    <TTGlyph name="guilsinglleft" xMin="35" yMin="168" xMax="234" yMax="582">
      <contour>
        <pt x="122" y="375" on="1"/>
        <pt x="234" y="221" on="1"/>
        <pt x="165" y="168" on="1"/>
        <pt x="35" y="342" on="1"/>
        <pt x="35" y="408" on="1"/>
        <pt x="165" y="582" on="1"/>
        <pt x="234" y="529" on="1"/>
      </contour>
    </TTGlyph>
    <TTGlyph name="guilsinglright" xMin="35" yMin="168" xMax="234" yMax="582">
      <contour>
        <pt x="35" y="221" on="1"/>
        <pt x="147" y="375" on="1"/>
        <pt x="35" y="529" on="1"/>
        <pt x="104" y="582" on="1"/>
        <pt x="234" y="408" on="1"/>
        <pt x="234" y="342" on="1"/>
        <pt x="104" y="168" on="1"/>
      </contour>
    </TTGlyph>
    <TTGlyph name="h" xMin="80" yMin="0" xMax="712" yMax="650">
      <contour>
        <pt x="80" y="650" on="1"/>
        <pt x="312" y="650" on="1"/>
        <pt x="312" y="570" on="1"/>
        <pt x="242" y="570" on="1"/>
        <pt x="242" y="365" on="1"/>
        <pt x="550" y="365" on="1"/>
        <pt x="550" y="570" on="1"/>
        <pt x="480" y="570" on="1"/>
        <pt x="480" y="650" on="1"/>
        <pt x="712" y="650" on="1"/>
        <pt x="712" y="570" on="1"/>
        <pt x="642" y="570" on="1"/>
        <pt x="642" y="80" on="1"/>
        <pt x="712" y="80" on="1"/>
        <pt x="712" y="0" on="1"/>
        <pt x="480" y="0" on="1"/>
        <pt x="480" y="80" on="1"/>
        <pt x="550" y="80" on="1"/>
        <pt x="550" y="285" on="1"/>
        <pt x="242" y="285" on="1"/>
        <pt x="242" y="80" on="1"/>
        <pt x="312" y="80" on="1"/>
        <pt x="312" y="0" on="1"/>
        <pt x="80" y="0" on="1"/>
        <pt x="80" y="80" on="1"/>
        <pt x="150" y="80" on="1"/>
        <pt x="150" y="570" on="1"/>
        <pt x="80" y="570" on="1"/>
      </contour>
    </TTGlyph>
    <TTGlyph name="hungarumlaut" xMin="160" yMin="711" xMax="572" yMax="821">
      <contour>
        <pt x="315" y="821" on="1"/>
        <pt x="351" y="749" on="1"/>
        <pt x="275" y="711" on="1"/>
        <pt x="173" y="711" on="1"/>
        <pt x="160" y="749" on="1"/>
      </contour>
      <contour>
        <pt x="536" y="821" on="1"/>
        <pt x="572" y="749" on="1"/>
        <pt x="496" y="711" on="1"/>
        <pt x="394" y="711" on="1"/>
        <pt x="381" y="749" on="1"/>
      </contour>
    </TTGlyph>
    <TTGlyph name="hyphen" xMin="100" yMin="335" xMax="409" yMax="415">
      <contour>
        <pt x="100" y="415" on="1"/>
        <pt x="409" y="415" on="1"/>
        <pt x="409" y="335" on="1"/>
        <pt x="100" y="335" on="1"/>
      </contour>
    </TTGlyph>
    <TTGlyph name="i" xMin="70" yMin="0" xMax="322" yMax="650">
      <contour>
        <pt x="70" y="80" on="1"/>
        <pt x="150" y="80" on="1"/>
        <pt x="150" y="570" on="1"/>
        <pt x="70" y="570" on="1"/>
        <pt x="70" y="650" on="1"/>
        <pt x="322" y="650" on="1"/>
        <pt x="322" y="570" on="1"/>
        <pt x="242" y="570" on="1"/>
        <pt x="242" y="80" on="1"/>
        <pt x="322" y="80" on="1"/>
        <pt x="322" y="0" on="1"/>
        <pt x="70" y="0" on="1"/>
      </contour>
    </TTGlyph>
    <TTGlyph name="iacute" xMin="70" yMin="0" xMax="322" yMax="826">
      <contour>
        <pt x="70" y="650" on="1"/>
        <pt x="322" y="650" on="1"/>
        <pt x="322" y="570" on="1"/>
        <pt x="242" y="570" on="1"/>
        <pt x="242" y="80" on="1"/>
        <pt x="322" y="80" on="1"/>
        <pt x="322" y="0" on="1"/>
        <pt x="70" y="0" on="1"/>
        <pt x="70" y="80" on="1"/>
        <pt x="150" y="80" on="1"/>
        <pt x="150" y="570" on="1"/>
        <pt x="70" y="570" on="1"/>
      </contour>
      <contour>
        <pt x="279" y="826" on="1"/>
        <pt x="308" y="743" on="1"/>
        <pt x="230" y="711" on="1"/>
        <pt x="98" y="711" on="1"/>
        <pt x="85" y="749" on="1"/>
      </contour>
    </TTGlyph>
    <TTGlyph name="icircumflex" xMin="58" yMin="0" xMax="335" yMax="816">
      <contour>
        <pt x="70" y="650" on="1"/>
        <pt x="322" y="650" on="1"/>
        <pt x="322" y="570" on="1"/>
        <pt x="242" y="570" on="1"/>
        <pt x="242" y="80" on="1"/>
        <pt x="322" y="80" on="1"/>
        <pt x="322" y="0" on="1"/>
        <pt x="70" y="0" on="1"/>
        <pt x="70" y="80" on="1"/>
        <pt x="150" y="80" on="1"/>
        <pt x="150" y="570" on="1"/>
        <pt x="70" y="570" on="1"/>
      </contour>
      <contour>
        <pt x="147" y="816" on="1"/>
        <pt x="246" y="816" on="1"/>
        <pt x="335" y="739" on="1"/>
        <pt x="322" y="711" on="1"/>
        <pt x="240" y="711" on="1"/>
        <pt x="196" y="760" on="1"/>
        <pt x="153" y="711" on="1"/>
        <pt x="71" y="711" on="1"/>
        <pt x="58" y="739" on="1"/>
      </contour>
    </TTGlyph>
    <TTGlyph name="idieresis" xMin="61" yMin="0" xMax="332" yMax="812">
      <contour>
        <pt x="70" y="650" on="1"/>
        <pt x="322" y="650" on="1"/>
        <pt x="322" y="570" on="1"/>
        <pt x="242" y="570" on="1"/>
        <pt x="242" y="80" on="1"/>
        <pt x="322" y="80" on="1"/>
        <pt x="322" y="0" on="1"/>
        <pt x="70" y="0" on="1"/>
        <pt x="70" y="80" on="1"/>
        <pt x="150" y="80" on="1"/>
        <pt x="150" y="570" on="1"/>
        <pt x="70" y="570" on="1"/>
      </contour>
      <contour>
        <pt x="240" y="711" on="1"/>
        <pt x="240" y="812" on="1"/>
        <pt x="332" y="812" on="1"/>
        <pt x="332" y="711" on="1"/>
      </contour>
      <contour>
        <pt x="61" y="711" on="1"/>
        <pt x="61" y="812" on="1"/>
        <pt x="153" y="812" on="1"/>
        <pt x="153" y="711" on="1"/>
      </contour>
    </TTGlyph>
    <TTGlyph name="igrave" xMin="70" yMin="0" xMax="322" yMax="826">
      <contour>
        <pt x="70" y="650" on="1"/>
        <pt x="322" y="650" on="1"/>
        <pt x="322" y="570" on="1"/>
        <pt x="242" y="570" on="1"/>
        <pt x="242" y="80" on="1"/>
        <pt x="322" y="80" on="1"/>
        <pt x="322" y="0" on="1"/>
        <pt x="70" y="0" on="1"/>
        <pt x="70" y="80" on="1"/>
        <pt x="150" y="80" on="1"/>
        <pt x="150" y="570" on="1"/>
        <pt x="70" y="570" on="1"/>
      </contour>
      <contour>
        <pt x="85" y="743" on="1"/>
        <pt x="114" y="826" on="1"/>
        <pt x="308" y="749" on="1"/>
        <pt x="295" y="711" on="1"/>
        <pt x="163" y="711" on="1"/>
      </contour>
    </TTGlyph>
    <TTGlyph name="infinity" xMin="50" yMin="150" xMax="800" yMax="600">
      <contour>
        <pt x="503" y="150" on="1"/>
        <pt x="419" y="292" on="1"/>
        <pt x="336" y="150" on="1"/>
        <pt x="160" y="150" on="1"/>
        <pt x="50" y="254" on="1"/>
        <pt x="50" y="496" on="1"/>
        <pt x="160" y="600" on="1"/>
        <pt x="336" y="600" on="1"/>
        <pt x="419" y="457" on="1"/>
        <pt x="503" y="600" on="1"/>
        <pt x="690" y="600" on="1"/>
        <pt x="800" y="496" on="1"/>
        <pt x="800" y="254" on="1"/>
        <pt x="690" y="150" on="1"/>
      </contour>
      <contour>
        <pt x="552" y="232" on="1"/>
        <pt x="661" y="232" on="1"/>
        <pt x="714" y="284" on="1"/>
        <pt x="714" y="467" on="1"/>
        <pt x="661" y="518" on="1"/>
        <pt x="552" y="518" on="1"/>
        <pt x="468" y="375" on="1"/>
      </contour>
      <contour>
        <pt x="287" y="518" on="1"/>
        <pt x="189" y="518" on="1"/>
        <pt x="136" y="466" on="1"/>
        <pt x="136" y="284" on="1"/>
        <pt x="189" y="232" on="1"/>
        <pt x="287" y="232" on="1"/>
        <pt x="371" y="375" on="1"/>
      </contour>
    </TTGlyph>
    <TTGlyph name="integral" xMin="0" yMin="-186" xMax="382" yMax="836">
      <contour>
        <pt x="0" y="-186" on="1"/>
        <pt x="0" y="-100" on="1"/>
        <pt x="93" y="-100" on="1"/>
        <pt x="145" y="-47" on="1"/>
        <pt x="145" y="726" on="1"/>
        <pt x="249" y="836" on="1"/>
        <pt x="382" y="836" on="1"/>
        <pt x="382" y="750" on="1"/>
        <pt x="289" y="750" on="1"/>
        <pt x="237" y="697" on="1"/>
        <pt x="237" y="-76" on="1"/>
        <pt x="133" y="-186" on="1"/>
      </contour>
    </TTGlyph>
    <TTGlyph name="j" xMin="20" yMin="0" xMax="480" yMax="650">
      <contour>
        <pt x="328" y="570" on="1"/>
        <pt x="258" y="570" on="1"/>
        <pt x="258" y="650" on="1"/>
        <pt x="480" y="650" on="1"/>
        <pt x="480" y="570" on="1"/>
        <pt x="420" y="570" on="1"/>
        <pt x="420" y="110" on="1"/>
        <pt x="316" y="0" on="1"/>
        <pt x="124" y="0" on="1"/>
        <pt x="20" y="110" on="1"/>
        <pt x="20" y="286" on="1"/>
        <pt x="100" y="286" on="1"/>
        <pt x="100" y="151" on="1"/>
        <pt x="163" y="86" on="1"/>
        <pt x="276" y="86" on="1"/>
        <pt x="328" y="139" on="1"/>
      </contour>
    </TTGlyph>
    <TTGlyph name="k" xMin="80" yMin="0" xMax="649" yMax="650">
      <contour>
        <pt x="649" y="0" on="1"/>
        <pt x="437" y="0" on="1"/>
        <pt x="437" y="80" on="1"/>
        <pt x="488" y="80" on="1"/>
        <pt x="341" y="285" on="1"/>
        <pt x="242" y="285" on="1"/>
        <pt x="242" y="80" on="1"/>
        <pt x="312" y="80" on="1"/>
        <pt x="312" y="0" on="1"/>
        <pt x="80" y="0" on="1"/>
        <pt x="80" y="80" on="1"/>
        <pt x="150" y="80" on="1"/>
        <pt x="150" y="570" on="1"/>
        <pt x="80" y="570" on="1"/>
        <pt x="80" y="650" on="1"/>
        <pt x="312" y="650" on="1"/>
        <pt x="312" y="570" on="1"/>
        <pt x="242" y="570" on="1"/>
        <pt x="242" y="365" on="1"/>
        <pt x="330" y="365" on="1"/>
        <pt x="478" y="570" on="1"/>
        <pt x="427" y="570" on="1"/>
        <pt x="427" y="650" on="1"/>
        <pt x="639" y="650" on="1"/>
        <pt x="639" y="570" on="1"/>
        <pt x="581" y="570" on="1"/>
        <pt x="410" y="332" on="1"/>
        <pt x="591" y="80" on="1"/>
        <pt x="649" y="80" on="1"/>
      </contour>
    </TTGlyph>
    <TTGlyph name="l" xMin="80" yMin="0" xMax="536" yMax="650">
      <contour>
        <pt x="80" y="650" on="1"/>
        <pt x="322" y="650" on="1"/>
        <pt x="322" y="570" on="1"/>
        <pt x="242" y="570" on="1"/>
        <pt x="242" y="80" on="1"/>
        <pt x="460" y="80" on="1"/>
        <pt x="460" y="196" on="1"/>
        <pt x="536" y="196" on="1"/>
        <pt x="536" y="0" on="1"/>
        <pt x="80" y="0" on="1"/>
        <pt x="80" y="80" on="1"/>
        <pt x="150" y="80" on="1"/>
        <pt x="150" y="570" on="1"/>
        <pt x="80" y="570" on="1"/>
      </contour>
    </TTGlyph>
    <TTGlyph name="less" xMin="115" yMin="135" xMax="535" yMax="615">
      <contour>
        <pt x="115" y="415" on="1"/>
        <pt x="535" y="615" on="1"/>
        <pt x="535" y="535" on="1"/>
        <pt x="199" y="375" on="1"/>
        <pt x="535" y="215" on="1"/>
        <pt x="535" y="135" on="1"/>
        <pt x="115" y="335" on="1"/>
      </contour>
    </TTGlyph>
    <TTGlyph name="lessequal" xMin="115" yMin="0" xMax="535" yMax="615">
      <contour>
        <pt x="115" y="415" on="1"/>
        <pt x="535" y="615" on="1"/>
        <pt x="535" y="535" on="1"/>
        <pt x="199" y="375" on="1"/>
        <pt x="535" y="215" on="1"/>
        <pt x="535" y="135" on="1"/>
        <pt x="115" y="335" on="1"/>
      </contour>
      <contour>
        <pt x="115" y="80" on="1"/>
        <pt x="535" y="80" on="1"/>
        <pt x="535" y="0" on="1"/>
        <pt x="115" y="0" on="1"/>
      </contour>
    </TTGlyph>
    <TTGlyph name="logicalnot" xMin="115" yMin="186" xMax="535" yMax="415">
      <contour>
        <pt x="115" y="415" on="1"/>
        <pt x="535" y="415" on="1"/>
        <pt x="535" y="186" on="1"/>
        <pt x="463" y="186" on="1"/>
        <pt x="463" y="335" on="1"/>
        <pt x="115" y="335" on="1"/>
      </contour>
    </TTGlyph>
    <TTGlyph name="lozenge" xMin="40" yMin="-186" xMax="667" yMax="836">
      <contour>
        <pt x="417" y="836" on="1"/>
        <pt x="667" y="325" on="1"/>
        <pt x="417" y="-186" on="1"/>
        <pt x="290" y="-186" on="1"/>
        <pt x="40" y="325" on="1"/>
        <pt x="290" y="836" on="1"/>
      </contour>
      <contour>
        <pt x="132" y="325" on="1"/>
        <pt x="353" y="-127" on="1"/>
        <pt x="575" y="325" on="1"/>
        <pt x="353" y="777" on="1"/>
      </contour>
    </TTGlyph>
    <TTGlyph name="lslash" xMin="68" yMin="0" xMax="536" yMax="650">
      <contour>
        <pt x="80" y="80" on="1"/>
        <pt x="150" y="80" on="1"/>
        <pt x="150" y="265" on="1"/>
        <pt x="68" y="239" on="1"/>
        <pt x="68" y="309" on="1"/>
        <pt x="150" y="335" on="1"/>
        <pt x="150" y="570" on="1"/>
        <pt x="80" y="570" on="1"/>
        <pt x="80" y="650" on="1"/>
        <pt x="322" y="650" on="1"/>
        <pt x="322" y="570" on="1"/>
        <pt x="242" y="570" on="1"/>
        <pt x="242" y="365" on="1"/>
        <pt x="377" y="409" on="1"/>
        <pt x="377" y="339" on="1"/>
        <pt x="242" y="295" on="1"/>
        <pt x="242" y="80" on="1"/>
        <pt x="460" y="80" on="1"/>
        <pt x="460" y="196" on="1"/>
        <pt x="536" y="196" on="1"/>
        <pt x="536" y="0" on="1"/>
        <pt x="80" y="0" on="1"/>
      </contour>
    </TTGlyph>
    <TTGlyph name="m" xMin="80" yMin="0" xMax="866" yMax="650">
      <contour>
        <pt x="242" y="80" on="1"/>
        <pt x="312" y="80" on="1"/>
        <pt x="312" y="0" on="1"/>
        <pt x="80" y="0" on="1"/>
        <pt x="80" y="80" on="1"/>
        <pt x="150" y="80" on="1"/>
        <pt x="150" y="570" on="1"/>
        <pt x="80" y="570" on="1"/>
        <pt x="80" y="650" on="1"/>
        <pt x="284" y="650" on="1"/>
        <pt x="473" y="177" on="1"/>
        <pt x="662" y="650" on="1"/>
        <pt x="866" y="650" on="1"/>
        <pt x="866" y="570" on="1"/>
        <pt x="796" y="570" on="1"/>
        <pt x="796" y="80" on="1"/>
        <pt x="866" y="80" on="1"/>
        <pt x="866" y="0" on="1"/>
        <pt x="634" y="0" on="1"/>
        <pt x="634" y="80" on="1"/>
        <pt x="704" y="80" on="1"/>
        <pt x="704" y="537" on="1"/>
        <pt x="517" y="80" on="1"/>
        <pt x="429" y="80" on="1"/>
        <pt x="242" y="537" on="1"/>
      </contour>
    </TTGlyph>
    <TTGlyph name="macron" xMin="50" yMin="711" xMax="293" yMax="800">
      <contour>
        <pt x="50" y="711" on="1"/>
        <pt x="50" y="800" on="1"/>
        <pt x="293" y="800" on="1"/>
        <pt x="293" y="711" on="1"/>
      </contour>
    </TTGlyph>
    <TTGlyph name="minus" xMin="115" yMin="335" xMax="535" yMax="415">
      <contour>
        <pt x="115" y="415" on="1"/>
        <pt x="535" y="415" on="1"/>
        <pt x="535" y="335" on="1"/>
        <pt x="115" y="335" on="1"/>
      </contour>
    </TTGlyph>
    <TTGlyph name="mu" xMin="130" yMin="-180" xMax="610" yMax="650">
      <contour>
        <pt x="130" y="-180" on="1"/>
        <pt x="130" y="650" on="1"/>
        <pt x="222" y="650" on="1"/>
        <pt x="222" y="86" on="1"/>
        <pt x="466" y="86" on="1"/>
        <pt x="518" y="139" on="1"/>
        <pt x="518" y="650" on="1"/>
        <pt x="610" y="650" on="1"/>
        <pt x="610" y="110" on="1"/>
        <pt x="506" y="0" on="1"/>
        <pt x="222" y="0" on="1"/>
        <pt x="222" y="-180" on="1"/>
      </contour>
    </TTGlyph>
    <TTGlyph name="multiply" xMin="119" yMin="169" xMax="531" yMax="581">
      <contour>
        <pt x="475" y="169" on="1"/>
        <pt x="325" y="319" on="1"/>
        <pt x="175" y="169" on="1"/>
        <pt x="119" y="225" on="1"/>
        <pt x="269" y="375" on="1"/>
        <pt x="119" y="525" on="1"/>
        <pt x="175" y="581" on="1"/>
        <pt x="325" y="431" on="1"/>
        <pt x="475" y="581" on="1"/>
        <pt x="531" y="525" on="1"/>
        <pt x="381" y="375" on="1"/>
        <pt x="531" y="225" on="1"/>
      </contour>
    </TTGlyph>
    <TTGlyph name="n" xMin="80" yMin="0" xMax="742" yMax="650">
      <contour>
        <pt x="242" y="80" on="1"/>
        <pt x="312" y="80" on="1"/>
        <pt x="312" y="0" on="1"/>
        <pt x="80" y="0" on="1"/>
        <pt x="80" y="80" on="1"/>
        <pt x="150" y="80" on="1"/>
        <pt x="150" y="570" on="1"/>
        <pt x="80" y="570" on="1"/>
        <pt x="80" y="650" on="1"/>
        <pt x="288" y="650" on="1"/>
        <pt x="580" y="98" on="1"/>
        <pt x="580" y="570" on="1"/>
        <pt x="510" y="570" on="1"/>
        <pt x="510" y="650" on="1"/>
        <pt x="742" y="650" on="1"/>
        <pt x="742" y="570" on="1"/>
        <pt x="672" y="570" on="1"/>
        <pt x="672" y="0" on="1"/>
        <pt x="534" y="0" on="1"/>
        <pt x="242" y="551" on="1"/>
      </contour>
    </TTGlyph>
    <TTGlyph name="nine" xMin="100" yMin="0" xMax="550" yMax="750">
      <contour>
        <pt x="100" y="236" on="1"/>
        <pt x="183" y="236" on="1"/>
        <pt x="183" y="148" on="1"/>
        <pt x="243" y="86" on="1"/>
        <pt x="406" y="86" on="1"/>
        <pt x="463" y="144" on="1"/>
        <pt x="463" y="317" on="1"/>
        <pt x="201" y="317" on="1"/>
        <pt x="100" y="423" on="1"/>
        <pt x="100" y="640" on="1"/>
        <pt x="204" y="750" on="1"/>
        <pt x="446" y="750" on="1"/>
        <pt x="550" y="640" on="1"/>
        <pt x="550" y="110" on="1"/>
        <pt x="446" y="0" on="1"/>
        <pt x="204" y="0" on="1"/>
        <pt x="100" y="110" on="1"/>
      </contour>
      <contour>
        <pt x="463" y="397" on="1"/>
        <pt x="463" y="606" on="1"/>
        <pt x="406" y="664" on="1"/>
        <pt x="243" y="664" on="1"/>
        <pt x="192" y="611" on="1"/>
        <pt x="192" y="452" on="1"/>
        <pt x="246" y="397" on="1"/>
      </contour>
    </TTGlyph>
    <TTGlyph name="notequal" xMin="115" yMin="-80" xMax="535" yMax="830">
      <contour>
        <pt x="115" y="295" on="1"/>
        <pt x="260" y="295" on="1"/>
        <pt x="313" y="455" on="1"/>
        <pt x="115" y="455" on="1"/>
        <pt x="115" y="535" on="1"/>
        <pt x="340" y="535" on="1"/>
        <pt x="439" y="830" on="1"/>
        <pt x="516" y="830" on="1"/>
        <pt x="417" y="535" on="1"/>
        <pt x="535" y="535" on="1"/>
        <pt x="535" y="455" on="1"/>
        <pt x="390" y="455" on="1"/>
        <pt x="336" y="295" on="1"/>
        <pt x="535" y="295" on="1"/>
        <pt x="535" y="215" on="1"/>
        <pt x="309" y="215" on="1"/>
        <pt x="211" y="-80" on="1"/>
        <pt x="134" y="-80" on="1"/>
        <pt x="233" y="215" on="1"/>
        <pt x="115" y="215" on="1"/>
      </contour>
    </TTGlyph>
    <TTGlyph name="ntilde" xMin="80" yMin="0" xMax="742" yMax="816">
      <contour>
        <pt x="80" y="650" on="1"/>
        <pt x="288" y="650" on="1"/>
        <pt x="580" y="98" on="1"/>
        <pt x="580" y="570" on="1"/>
        <pt x="510" y="570" on="1"/>
        <pt x="510" y="650" on="1"/>
        <pt x="742" y="650" on="1"/>
        <pt x="742" y="570" on="1"/>
        <pt x="672" y="570" on="1"/>
        <pt x="672" y="0" on="1"/>
        <pt x="534" y="0" on="1"/>
        <pt x="242" y="551" on="1"/>
        <pt x="242" y="80" on="1"/>
        <pt x="312" y="80" on="1"/>
        <pt x="312" y="0" on="1"/>
        <pt x="80" y="0" on="1"/>
        <pt x="80" y="80" on="1"/>
        <pt x="150" y="80" on="1"/>
        <pt x="150" y="570" on="1"/>
        <pt x="80" y="570" on="1"/>
      </contour>
      <contour>
        <pt x="477" y="711" on="1"/>
        <pt x="451" y="711" on="1"/>
        <pt x="394" y="739" on="1"/>
        <pt x="362" y="711" on="1"/>
        <pt x="290" y="711" on="1"/>
        <pt x="277" y="739" on="1"/>
        <pt x="355" y="816" on="1"/>
        <pt x="381" y="816" on="1"/>
        <pt x="438" y="788" on="1"/>
        <pt x="470" y="816" on="1"/>
        <pt x="542" y="816" on="1"/>
        <pt x="555" y="788" on="1"/>
      </contour>
    </TTGlyph>
    <TTGlyph name="numbersign" xMin="-1" yMin="0" xMax="651" yMax="750">
      <contour>
        <pt x="324" y="0" on="1"/>
        <pt x="378" y="200" on="1"/>
        <pt x="175" y="200" on="1"/>
        <pt x="121" y="0" on="1"/>
        <pt x="44" y="0" on="1"/>
        <pt x="98" y="200" on="1"/>
        <pt x="-1" y="200" on="1"/>
        <pt x="18" y="269" on="1"/>
        <pt x="117" y="269" on="1"/>
        <pt x="175" y="482" on="1"/>
        <pt x="76" y="482" on="1"/>
        <pt x="95" y="551" on="1"/>
        <pt x="194" y="551" on="1"/>
        <pt x="249" y="750" on="1"/>
        <pt x="326" y="750" on="1"/>
        <pt x="271" y="551" on="1"/>
        <pt x="474" y="551" on="1"/>
        <pt x="529" y="750" on="1"/>
        <pt x="606" y="750" on="1"/>
        <pt x="551" y="551" on="1"/>
        <pt x="651" y="551" on="1"/>
        <pt x="632" y="482" on="1"/>
        <pt x="532" y="482" on="1"/>
        <pt x="474" y="269" on="1"/>
        <pt x="574" y="269" on="1"/>
        <pt x="555" y="200" on="1"/>
        <pt x="455" y="200" on="1"/>
        <pt x="401" y="0" on="1"/>
      </contour>
      <contour>
        <pt x="252" y="482" on="1"/>
        <pt x="194" y="269" on="1"/>
        <pt x="397" y="269" on="1"/>
        <pt x="455" y="482" on="1"/>
      </contour>
    </TTGlyph>
    <TTGlyph name="o" xMin="80" yMin="0" xMax="570" yMax="650">
      <contour>
        <pt x="184" y="0" on="1"/>
        <pt x="80" y="110" on="1"/>
        <pt x="80" y="540" on="1"/>
        <pt x="184" y="650" on="1"/>
        <pt x="466" y="650" on="1"/>
        <pt x="570" y="540" on="1"/>
        <pt x="570" y="110" on="1"/>
        <pt x="466" y="0" on="1"/>
      </contour>
      <contour>
        <pt x="223" y="86" on="1"/>
        <pt x="426" y="86" on="1"/>
        <pt x="478" y="139" on="1"/>
        <pt x="478" y="511" on="1"/>
        <pt x="427" y="564" on="1"/>
        <pt x="224" y="564" on="1"/>
        <pt x="172" y="511" on="1"/>
        <pt x="172" y="139" on="1"/>
      </contour>
    </TTGlyph>
    <TTGlyph name="oacute" xMin="80" yMin="0" xMax="570" yMax="826">
      <contour>
        <pt x="184" y="0" on="1"/>
        <pt x="80" y="110" on="1"/>
        <pt x="80" y="540" on="1"/>
        <pt x="184" y="650" on="1"/>
        <pt x="466" y="650" on="1"/>
        <pt x="570" y="540" on="1"/>
        <pt x="570" y="110" on="1"/>
        <pt x="466" y="0" on="1"/>
      </contour>
      <contour>
        <pt x="223" y="86" on="1"/>
        <pt x="426" y="86" on="1"/>
        <pt x="478" y="139" on="1"/>
        <pt x="478" y="511" on="1"/>
        <pt x="427" y="564" on="1"/>
        <pt x="224" y="564" on="1"/>
        <pt x="172" y="511" on="1"/>
        <pt x="172" y="139" on="1"/>
      </contour>
      <contour>
        <pt x="437" y="826" on="1"/>
        <pt x="466" y="743" on="1"/>
        <pt x="388" y="711" on="1"/>
        <pt x="256" y="711" on="1"/>
        <pt x="243" y="749" on="1"/>
      </contour>
    </TTGlyph>
    <TTGlyph name="ocircumflex" xMin="80" yMin="0" xMax="570" yMax="816">
      <contour>
        <pt x="184" y="0" on="1"/>
        <pt x="80" y="110" on="1"/>
        <pt x="80" y="540" on="1"/>
        <pt x="184" y="650" on="1"/>
        <pt x="466" y="650" on="1"/>
        <pt x="570" y="540" on="1"/>
        <pt x="570" y="110" on="1"/>
        <pt x="466" y="0" on="1"/>
      </contour>
      <contour>
        <pt x="223" y="86" on="1"/>
        <pt x="426" y="86" on="1"/>
        <pt x="478" y="139" on="1"/>
        <pt x="478" y="511" on="1"/>
        <pt x="427" y="564" on="1"/>
        <pt x="224" y="564" on="1"/>
        <pt x="172" y="511" on="1"/>
        <pt x="172" y="139" on="1"/>
      </contour>
      <contour>
        <pt x="275" y="816" on="1"/>
        <pt x="374" y="816" on="1"/>
        <pt x="463" y="739" on="1"/>
        <pt x="450" y="711" on="1"/>
        <pt x="368" y="711" on="1"/>
        <pt x="324" y="760" on="1"/>
        <pt x="281" y="711" on="1"/>
        <pt x="199" y="711" on="1"/>
        <pt x="186" y="739" on="1"/>
      </contour>
    </TTGlyph>
    <TTGlyph name="odieresis" xMin="80" yMin="0" xMax="570" yMax="812">
      <contour>
        <pt x="184" y="0" on="1"/>
        <pt x="80" y="110" on="1"/>
        <pt x="80" y="540" on="1"/>
        <pt x="184" y="650" on="1"/>
        <pt x="466" y="650" on="1"/>
        <pt x="570" y="540" on="1"/>
        <pt x="570" y="110" on="1"/>
        <pt x="466" y="0" on="1"/>
      </contour>
      <contour>
        <pt x="223" y="86" on="1"/>
        <pt x="426" y="86" on="1"/>
        <pt x="478" y="139" on="1"/>
        <pt x="478" y="511" on="1"/>
        <pt x="427" y="564" on="1"/>
        <pt x="224" y="564" on="1"/>
        <pt x="172" y="511" on="1"/>
        <pt x="172" y="139" on="1"/>
      </contour>
      <contour>
        <pt x="189" y="711" on="1"/>
        <pt x="189" y="812" on="1"/>
        <pt x="281" y="812" on="1"/>
        <pt x="281" y="711" on="1"/>
      </contour>
      <contour>
        <pt x="368" y="711" on="1"/>
        <pt x="368" y="812" on="1"/>
        <pt x="460" y="812" on="1"/>
        <pt x="460" y="711" on="1"/>
      </contour>
    </TTGlyph>
    <TTGlyph name="oe" xMin="80" yMin="0" xMax="855" yMax="650">
      <contour>
        <pt x="855" y="650" on="1"/>
        <pt x="855" y="454" on="1"/>
        <pt x="775" y="454" on="1"/>
        <pt x="775" y="570" on="1"/>
        <pt x="540" y="570" on="1"/>
        <pt x="540" y="366" on="1"/>
        <pt x="775" y="366" on="1"/>
        <pt x="775" y="286" on="1"/>
        <pt x="540" y="286" on="1"/>
        <pt x="540" y="80" on="1"/>
        <pt x="775" y="80" on="1"/>
        <pt x="775" y="196" on="1"/>
        <pt x="855" y="196" on="1"/>
        <pt x="855" y="0" on="1"/>
        <pt x="184" y="0" on="1"/>
        <pt x="80" y="110" on="1"/>
        <pt x="80" y="540" on="1"/>
        <pt x="184" y="650" on="1"/>
      </contour>
      <contour>
        <pt x="448" y="80" on="1"/>
        <pt x="448" y="570" on="1"/>
        <pt x="230" y="570" on="1"/>
        <pt x="172" y="511" on="1"/>
        <pt x="172" y="139" on="1"/>
        <pt x="229" y="80" on="1"/>
      </contour>
    </TTGlyph>
    <TTGlyph name="ogonek" xMin="100" yMin="-173" xMax="340" yMax="0">
      <contour>
        <pt x="100" y="-98" on="1"/>
        <pt x="100" y="-38" on="1"/>
        <pt x="133" y="0" on="1"/>
        <pt x="221" y="0" on="1"/>
        <pt x="165" y="-64" on="1"/>
        <pt x="209" y="-110" on="1"/>
        <pt x="237" y="-110" on="1"/>
        <pt x="291" y="-50" on="1"/>
        <pt x="340" y="-93" on="1"/>
        <pt x="269" y="-173" on="1"/>
        <pt x="171" y="-173" on="1"/>
      </contour>
    </TTGlyph>
    <TTGlyph name="ograve" xMin="80" yMin="0" xMax="570" yMax="826">
      <contour>
        <pt x="184" y="0" on="1"/>
        <pt x="80" y="110" on="1"/>
        <pt x="80" y="540" on="1"/>
        <pt x="184" y="650" on="1"/>
        <pt x="466" y="650" on="1"/>
        <pt x="570" y="540" on="1"/>
        <pt x="570" y="110" on="1"/>
        <pt x="466" y="0" on="1"/>
      </contour>
      <contour>
        <pt x="223" y="86" on="1"/>
        <pt x="426" y="86" on="1"/>
        <pt x="478" y="139" on="1"/>
        <pt x="478" y="511" on="1"/>
        <pt x="427" y="564" on="1"/>
        <pt x="224" y="564" on="1"/>
        <pt x="172" y="511" on="1"/>
        <pt x="172" y="139" on="1"/>
      </contour>
      <contour>
        <pt x="213" y="743" on="1"/>
        <pt x="242" y="826" on="1"/>
        <pt x="436" y="749" on="1"/>
        <pt x="423" y="711" on="1"/>
        <pt x="291" y="711" on="1"/>
      </contour>
    </TTGlyph>
    <TTGlyph name="one" xMin="107" yMin="0" xMax="551" yMax="750">
      <contour>
        <pt x="401" y="750" on="1"/>
        <pt x="401" y="80" on="1"/>
        <pt x="551" y="80" on="1"/>
        <pt x="551" y="0" on="1"/>
        <pt x="159" y="0" on="1"/>
        <pt x="159" y="80" on="1"/>
        <pt x="309" y="80" on="1"/>
        <pt x="309" y="653" on="1"/>
        <pt x="146" y="572" on="1"/>
        <pt x="107" y="650" on="1"/>
        <pt x="309" y="750" on="1"/>
      </contour>
    </TTGlyph>
    <TTGlyph name="onehalf" xMin="53" yMin="-35" xMax="831" yMax="784">
      <contour>
        <pt x="546" y="0" on="1"/>
        <pt x="546" y="58" on="1"/>
        <pt x="751" y="287" on="1"/>
        <pt x="751" y="360" on="1"/>
        <pt x="727" y="384" on="1"/>
        <pt x="644" y="384" on="1"/>
        <pt x="615" y="354" on="1"/>
        <pt x="615" y="297" on="1"/>
        <pt x="550" y="297" on="1"/>
        <pt x="550" y="383" on="1"/>
        <pt x="614" y="452" on="1"/>
        <pt x="757" y="452" on="1"/>
        <pt x="822" y="383" on="1"/>
        <pt x="822" y="262" on="1"/>
        <pt x="641" y="64" on="1"/>
        <pt x="767" y="64" on="1"/>
        <pt x="767" y="131" on="1"/>
        <pt x="831" y="131" on="1"/>
        <pt x="831" y="0" on="1"/>
      </contour>
      <contour>
        <pt x="85" y="362" on="1"/>
        <pt x="172" y="362" on="1"/>
        <pt x="172" y="671" on="1"/>
        <pt x="83" y="626" on="1"/>
        <pt x="53" y="687" on="1"/>
        <pt x="180" y="750" on="1"/>
        <pt x="244" y="750" on="1"/>
        <pt x="244" y="362" on="1"/>
        <pt x="331" y="362" on="1"/>
        <pt x="331" y="298" on="1"/>
        <pt x="85" y="298" on="1"/>
      </contour>
      <contour>
        <pt x="259" y="-35" on="1"/>
        <pt x="564" y="784" on="1"/>
        <pt x="641" y="784" on="1"/>
        <pt x="336" y="-35" on="1"/>
      </contour>
    </TTGlyph>
    <TTGlyph name="onequarter" xMin="53" yMin="-35" xMax="830" yMax="784">
      <contour>
        <pt x="723" y="0" on="1"/>
        <pt x="723" y="108" on="1"/>
        <pt x="521" y="108" on="1"/>
        <pt x="521" y="165" on="1"/>
        <pt x="692" y="452" on="1"/>
        <pt x="794" y="452" on="1"/>
        <pt x="794" y="172" on="1"/>
        <pt x="830" y="172" on="1"/>
        <pt x="830" y="108" on="1"/>
        <pt x="794" y="108" on="1"/>
        <pt x="794" y="0" on="1"/>
      </contour>
      <contour>
        <pt x="723" y="172" on="1"/>
        <pt x="723" y="370" on="1"/>
        <pt x="605" y="172" on="1"/>
      </contour>
      <contour>
        <pt x="85" y="362" on="1"/>
        <pt x="172" y="362" on="1"/>
        <pt x="172" y="671" on="1"/>
        <pt x="83" y="626" on="1"/>
        <pt x="53" y="687" on="1"/>
        <pt x="180" y="750" on="1"/>
        <pt x="244" y="750" on="1"/>
        <pt x="244" y="362" on="1"/>
        <pt x="331" y="362" on="1"/>
        <pt x="331" y="298" on="1"/>
        <pt x="85" y="298" on="1"/>
      </contour>
      <contour>
        <pt x="259" y="-35" on="1"/>
        <pt x="564" y="784" on="1"/>
        <pt x="641" y="784" on="1"/>
        <pt x="336" y="-35" on="1"/>
      </contour>
    </TTGlyph>
    <TTGlyph name="onesuperior" xMin="54" yMin="330" xMax="332" yMax="782">
      <contour>
        <pt x="86" y="394" on="1"/>
        <pt x="173" y="394" on="1"/>
        <pt x="173" y="703" on="1"/>
        <pt x="84" y="658" on="1"/>
        <pt x="54" y="719" on="1"/>
        <pt x="181" y="782" on="1"/>
        <pt x="245" y="782" on="1"/>
        <pt x="245" y="394" on="1"/>
        <pt x="332" y="394" on="1"/>
        <pt x="332" y="330" on="1"/>
        <pt x="86" y="330" on="1"/>
      </contour>
    </TTGlyph>
    <TTGlyph name="ordfeminine" xMin="10" yMin="406" xMax="391" yMax="800">
      <contour>
        <pt x="251" y="406" on="1"/>
        <pt x="251" y="470" on="1"/>
        <pt x="286" y="470" on="1"/>
        <pt x="266" y="524" on="1"/>
        <pt x="135" y="524" on="1"/>
        <pt x="116" y="470" on="1"/>
        <pt x="150" y="470" on="1"/>
        <pt x="150" y="406" on="1"/>
        <pt x="10" y="406" on="1"/>
        <pt x="10" y="470" on="1"/>
        <pt x="43" y="470" on="1"/>
        <pt x="135" y="736" on="1"/>
        <pt x="115" y="736" on="1"/>
        <pt x="115" y="800" on="1"/>
        <pt x="286" y="800" on="1"/>
        <pt x="286" y="736" on="1"/>
        <pt x="266" y="736" on="1"/>
        <pt x="357" y="470" on="1"/>
        <pt x="391" y="470" on="1"/>
        <pt x="391" y="406" on="1"/>
      </contour>
      <contour>
        <pt x="201" y="714" on="1"/>
        <pt x="156" y="587" on="1"/>
        <pt x="245" y="587" on="1"/>
        <pt x="215" y="672" on="0"/>
      </contour>
    </TTGlyph>
    <TTGlyph name="ordmasculine" xMin="45" yMin="406" xMax="346" yMax="800">
      <contour>
        <pt x="110" y="406" on="1"/>
        <pt x="45" y="475" on="1"/>
        <pt x="45" y="731" on="1"/>
        <pt x="110" y="800" on="1"/>
        <pt x="282" y="800" on="1"/>
        <pt x="346" y="731" on="1"/>
        <pt x="346" y="475" on="1"/>
        <pt x="282" y="406" on="1"/>
      </contour>
      <contour>
        <pt x="140" y="474" on="1"/>
        <pt x="252" y="474" on="1"/>
        <pt x="276" y="498" on="1"/>
        <pt x="276" y="708" on="1"/>
        <pt x="252" y="732" on="1"/>
        <pt x="140" y="732" on="1"/>
        <pt x="115" y="708" on="1"/>
        <pt x="115" y="498" on="1"/>
      </contour>
    </TTGlyph>
    <TTGlyph name="oslash" xMin="80" yMin="-130" xMax="570" yMax="780">
      <contour>
        <pt x="134" y="-130" on="1"/>
        <pt x="179" y="5" on="1"/>
        <pt x="80" y="110" on="1"/>
        <pt x="80" y="540" on="1"/>
        <pt x="184" y="650" on="1"/>
        <pt x="395" y="650" on="1"/>
        <pt x="439" y="780" on="1"/>
        <pt x="516" y="780" on="1"/>
        <pt x="471" y="645" on="1"/>
        <pt x="570" y="540" on="1"/>
        <pt x="570" y="110" on="1"/>
        <pt x="466" y="0" on="1"/>
        <pt x="254" y="0" on="1"/>
        <pt x="211" y="-130" on="1"/>
      </contour>
      <contour>
        <pt x="172" y="511" on="1"/>
        <pt x="172" y="139" on="1"/>
        <pt x="211" y="98" on="1"/>
        <pt x="366" y="564" on="1"/>
        <pt x="224" y="564" on="1"/>
      </contour>
      <contour>
        <pt x="478" y="511" on="1"/>
        <pt x="439" y="551" on="1"/>
        <pt x="283" y="86" on="1"/>
        <pt x="426" y="86" on="1"/>
        <pt x="478" y="139" on="1"/>
      </contour>
    </TTGlyph>
    <TTGlyph name="otilde" xMin="80" yMin="0" xMax="570" yMax="816">
      <contour>
        <pt x="184" y="0" on="1"/>
        <pt x="80" y="110" on="1"/>
        <pt x="80" y="540" on="1"/>
        <pt x="184" y="650" on="1"/>
        <pt x="466" y="650" on="1"/>
        <pt x="570" y="540" on="1"/>
        <pt x="570" y="110" on="1"/>
        <pt x="466" y="0" on="1"/>
      </contour>
      <contour>
        <pt x="223" y="86" on="1"/>
        <pt x="426" y="86" on="1"/>
        <pt x="478" y="139" on="1"/>
        <pt x="478" y="511" on="1"/>
        <pt x="427" y="564" on="1"/>
        <pt x="224" y="564" on="1"/>
        <pt x="172" y="511" on="1"/>
        <pt x="172" y="139" on="1"/>
      </contour>
      <contour>
        <pt x="396" y="711" on="1"/>
        <pt x="370" y="711" on="1"/>
        <pt x="313" y="739" on="1"/>
        <pt x="281" y="711" on="1"/>
        <pt x="209" y="711" on="1"/>
        <pt x="196" y="739" on="1"/>
        <pt x="274" y="816" on="1"/>
        <pt x="300" y="816" on="1"/>
        <pt x="357" y="788" on="1"/>
        <pt x="389" y="816" on="1"/>
        <pt x="461" y="816" on="1"/>
        <pt x="474" y="788" on="1"/>
      </contour>
    </TTGlyph>
    <TTGlyph name="p" xMin="80" yMin="0" xMax="584" yMax="650">
      <contour>
        <pt x="80" y="650" on="1"/>
        <pt x="480" y="650" on="1"/>
        <pt x="584" y="540" on="1"/>
        <pt x="584" y="330" on="1"/>
        <pt x="480" y="220" on="1"/>
        <pt x="242" y="220" on="1"/>
        <pt x="242" y="80" on="1"/>
        <pt x="322" y="80" on="1"/>
        <pt x="322" y="0" on="1"/>
        <pt x="80" y="0" on="1"/>
        <pt x="80" y="80" on="1"/>
        <pt x="150" y="80" on="1"/>
        <pt x="150" y="570" on="1"/>
        <pt x="80" y="570" on="1"/>
      </contour>
      <contour>
        <pt x="242" y="564" on="1"/>
        <pt x="242" y="306" on="1"/>
        <pt x="440" y="306" on="1"/>
        <pt x="498" y="365" on="1"/>
        <pt x="498" y="505" on="1"/>
        <pt x="441" y="564" on="1"/>
      </contour>
    </TTGlyph>
    <TTGlyph name="paragraph" xMin="40" yMin="-85" xMax="544" yMax="750">
      <contour>
        <pt x="544" y="750" on="1"/>
        <pt x="544" y="670" on="1"/>
        <pt x="474" y="670" on="1"/>
        <pt x="474" y="33" on="1"/>
        <pt x="533" y="-24" on="1"/>
        <pt x="472" y="-85" on="1"/>
        <pt x="382" y="0" on="1"/>
        <pt x="382" y="300" on="1"/>
        <pt x="144" y="300" on="1"/>
        <pt x="40" y="410" on="1"/>
        <pt x="40" y="640" on="1"/>
        <pt x="144" y="750" on="1"/>
      </contour>
      <contour>
        <pt x="183" y="664" on="1"/>
        <pt x="183" y="386" on="1"/>
        <pt x="382" y="386" on="1"/>
        <pt x="382" y="664" on="1"/>
      </contour>
    </TTGlyph>
    <TTGlyph name="parenleft" xMin="88" yMin="-100" xMax="322" yMax="850">
      <contour>
        <pt x="322" y="850" on="1"/>
        <pt x="322" y="764" on="1"/>
        <pt x="252" y="764" on="1"/>
        <pt x="180" y="611" on="1"/>
        <pt x="180" y="139" on="1"/>
        <pt x="251" y="-14" on="1"/>
        <pt x="322" y="-14" on="1"/>
        <pt x="322" y="-100" on="1"/>
        <pt x="192" y="-100" on="1"/>
        <pt x="88" y="110" on="1"/>
        <pt x="88" y="640" on="1"/>
        <pt x="192" y="850" on="1"/>
      </contour>
    </TTGlyph>
    <TTGlyph name="parenright" xMin="30" yMin="-100" xMax="264" yMax="850">
      <contour>
        <pt x="30" y="-100" on="1"/>
        <pt x="30" y="-14" on="1"/>
        <pt x="101" y="-14" on="1"/>
        <pt x="172" y="139" on="1"/>
        <pt x="172" y="611" on="1"/>
        <pt x="100" y="764" on="1"/>
        <pt x="30" y="764" on="1"/>
        <pt x="30" y="850" on="1"/>
        <pt x="160" y="850" on="1"/>
        <pt x="264" y="640" on="1"/>
        <pt x="264" y="110" on="1"/>
        <pt x="160" y="-100" on="1"/>
      </contour>
    </TTGlyph>
    <TTGlyph name="partialdiff" xMin="52" yMin="0" xMax="640" yMax="838">
      <contour>
        <pt x="331" y="683" on="1"/>
        <pt x="432" y="716" on="1"/>
        <pt x="405" y="813" on="1"/>
        <pt x="487" y="838" on="1"/>
        <pt x="516" y="743" on="1"/>
        <pt x="640" y="783" on="1"/>
        <pt x="640" y="713" on="1"/>
        <pt x="536" y="679" on="1"/>
        <pt x="565" y="586" on="1"/>
        <pt x="520" y="110" on="1"/>
        <pt x="416" y="0" on="1"/>
        <pt x="156" y="0" on="1"/>
        <pt x="52" y="110" on="1"/>
        <pt x="74" y="383" on="1"/>
        <pt x="178" y="493" on="1"/>
        <pt x="461" y="493" on="1"/>
        <pt x="470" y="582" on="1"/>
        <pt x="450" y="651" on="1"/>
        <pt x="331" y="613" on="1"/>
      </contour>
      <contour>
        <pt x="376" y="86" on="1"/>
        <pt x="428" y="139" on="1"/>
        <pt x="453" y="407" on="1"/>
        <pt x="218" y="407" on="1"/>
        <pt x="166" y="354" on="1"/>
        <pt x="144" y="139" on="1"/>
        <pt x="195" y="86" on="1"/>
      </contour>
    </TTGlyph>
    <TTGlyph name="percent" xMin="70" yMin="-35" xMax="870" yMax="784">
      <contour>
        <pt x="634" y="0" on="1"/>
        <pt x="569" y="69" on="1"/>
        <pt x="569" y="383" on="1"/>
        <pt x="634" y="452" on="1"/>
        <pt x="806" y="452" on="1"/>
        <pt x="870" y="383" on="1"/>
        <pt x="870" y="69" on="1"/>
        <pt x="806" y="0" on="1"/>
      </contour>
      <contour>
        <pt x="664" y="68" on="1"/>
        <pt x="776" y="68" on="1"/>
        <pt x="803" y="95" on="1"/>
        <pt x="803" y="357" on="1"/>
        <pt x="776" y="384" on="1"/>
        <pt x="664" y="384" on="1"/>
        <pt x="637" y="357" on="1"/>
        <pt x="637" y="95" on="1"/>
      </contour>
      <contour>
        <pt x="135" y="298" on="1"/>
        <pt x="70" y="367" on="1"/>
        <pt x="70" y="681" on="1"/>
        <pt x="135" y="750" on="1"/>
        <pt x="307" y="750" on="1"/>
        <pt x="371" y="681" on="1"/>
        <pt x="371" y="367" on="1"/>
        <pt x="307" y="298" on="1"/>
      </contour>
      <contour>
        <pt x="165" y="366" on="1"/>
        <pt x="277" y="366" on="1"/>
        <pt x="304" y="393" on="1"/>
        <pt x="304" y="655" on="1"/>
        <pt x="277" y="682" on="1"/>
        <pt x="165" y="682" on="1"/>
        <pt x="138" y="655" on="1"/>
        <pt x="138" y="393" on="1"/>
      </contour>
      <contour>
        <pt x="279" y="-35" on="1"/>
        <pt x="584" y="784" on="1"/>
        <pt x="661" y="784" on="1"/>
        <pt x="356" y="-35" on="1"/>
      </contour>
    </TTGlyph>
    <TTGlyph name="period" xMin="50" yMin="0" xMax="150" yMax="120">
      <contour>
        <pt x="50" y="120" on="1"/>
        <pt x="150" y="120" on="1"/>
        <pt x="150" y="0" on="1"/>
        <pt x="50" y="0" on="1"/>
      </contour>
    </TTGlyph>
    <TTGlyph name="periodcentered" xMin="50" yMin="315" xMax="150" yMax="435">
      <contour>
        <pt x="50" y="435" on="1"/>
        <pt x="150" y="435" on="1"/>
        <pt x="150" y="315" on="1"/>
        <pt x="50" y="315" on="1"/>
      </contour>
    </TTGlyph>
    <TTGlyph name="perthousand" xMin="70" yMin="-35" xMax="1242" yMax="784">
      <contour>
        <pt x="1006" y="0" on="1"/>
        <pt x="941" y="69" on="1"/>
        <pt x="941" y="383" on="1"/>
        <pt x="1006" y="452" on="1"/>
        <pt x="1178" y="452" on="1"/>
        <pt x="1242" y="383" on="1"/>
        <pt x="1242" y="69" on="1"/>
        <pt x="1178" y="0" on="1"/>
      </contour>
      <contour>
        <pt x="1036" y="68" on="1"/>
        <pt x="1148" y="68" on="1"/>
        <pt x="1175" y="95" on="1"/>
        <pt x="1175" y="357" on="1"/>
        <pt x="1148" y="384" on="1"/>
        <pt x="1036" y="384" on="1"/>
        <pt x="1009" y="357" on="1"/>
        <pt x="1009" y="95" on="1"/>
      </contour>
      <contour>
        <pt x="135" y="298" on="1"/>
        <pt x="70" y="367" on="1"/>
        <pt x="70" y="681" on="1"/>
        <pt x="135" y="750" on="1"/>
        <pt x="307" y="750" on="1"/>
        <pt x="371" y="681" on="1"/>
        <pt x="371" y="367" on="1"/>
        <pt x="307" y="298" on="1"/>
      </contour>
      <contour>
        <pt x="165" y="366" on="1"/>
        <pt x="277" y="366" on="1"/>
        <pt x="304" y="393" on="1"/>
        <pt x="304" y="655" on="1"/>
        <pt x="277" y="682" on="1"/>
        <pt x="165" y="682" on="1"/>
        <pt x="138" y="655" on="1"/>
        <pt x="138" y="393" on="1"/>
      </contour>
      <contour>
        <pt x="634" y="0" on="1"/>
        <pt x="569" y="69" on="1"/>
        <pt x="569" y="383" on="1"/>
        <pt x="634" y="452" on="1"/>
        <pt x="806" y="452" on="1"/>
        <pt x="870" y="383" on="1"/>
        <pt x="870" y="69" on="1"/>
        <pt x="806" y="0" on="1"/>
      </contour>
      <contour>
        <pt x="664" y="68" on="1"/>
        <pt x="776" y="68" on="1"/>
        <pt x="803" y="95" on="1"/>
        <pt x="803" y="357" on="1"/>
        <pt x="776" y="384" on="1"/>
        <pt x="664" y="384" on="1"/>
        <pt x="637" y="357" on="1"/>
        <pt x="637" y="95" on="1"/>
      </contour>
      <contour>
        <pt x="279" y="-35" on="1"/>
        <pt x="584" y="784" on="1"/>
        <pt x="661" y="784" on="1"/>
        <pt x="356" y="-35" on="1"/>
      </contour>
    </TTGlyph>
    <TTGlyph name="pi" xMin="80" yMin="-35" xMax="682" yMax="650">
      <contour>
        <pt x="80" y="650" on="1"/>
        <pt x="682" y="650" on="1"/>
        <pt x="682" y="570" on="1"/>
        <pt x="602" y="570" on="1"/>
        <pt x="602" y="83" on="1"/>
        <pt x="661" y="26" on="1"/>
        <pt x="600" y="-35" on="1"/>
        <pt x="510" y="50" on="1"/>
        <pt x="510" y="570" on="1"/>
        <pt x="252" y="570" on="1"/>
        <pt x="252" y="0" on="1"/>
        <pt x="160" y="0" on="1"/>
        <pt x="160" y="570" on="1"/>
        <pt x="80" y="570" on="1"/>
      </contour>
    </TTGlyph>
    <TTGlyph name="plus" xMin="115" yMin="165" xMax="535" yMax="585">
      <contour>
        <pt x="285" y="165" on="1"/>
        <pt x="285" y="335" on="1"/>
        <pt x="115" y="335" on="1"/>
        <pt x="115" y="415" on="1"/>
        <pt x="285" y="415" on="1"/>
        <pt x="285" y="585" on="1"/>
        <pt x="365" y="585" on="1"/>
        <pt x="365" y="415" on="1"/>
        <pt x="535" y="415" on="1"/>
        <pt x="535" y="335" on="1"/>
        <pt x="365" y="335" on="1"/>
        <pt x="365" y="165" on="1"/>
      </contour>
    </TTGlyph>
    <TTGlyph name="plusminus" xMin="115" yMin="0" xMax="535" yMax="585">
      <contour>
        <pt x="285" y="165" on="1"/>
        <pt x="285" y="335" on="1"/>
        <pt x="115" y="335" on="1"/>
        <pt x="115" y="415" on="1"/>
        <pt x="285" y="415" on="1"/>
        <pt x="285" y="585" on="1"/>
        <pt x="365" y="585" on="1"/>
        <pt x="365" y="415" on="1"/>
        <pt x="535" y="415" on="1"/>
        <pt x="535" y="335" on="1"/>
        <pt x="365" y="335" on="1"/>
        <pt x="365" y="165" on="1"/>
      </contour>
      <contour>
        <pt x="115" y="80" on="1"/>
        <pt x="535" y="80" on="1"/>
        <pt x="535" y="0" on="1"/>
        <pt x="115" y="0" on="1"/>
      </contour>
    </TTGlyph>
    <TTGlyph name="product" xMin="80" yMin="-100" xMax="682" yMax="750">
      <contour>
        <pt x="160" y="-100" on="1"/>
        <pt x="160" y="670" on="1"/>
        <pt x="80" y="670" on="1"/>
        <pt x="80" y="750" on="1"/>
        <pt x="682" y="750" on="1"/>
        <pt x="682" y="670" on="1"/>
        <pt x="602" y="670" on="1"/>
        <pt x="602" y="-100" on="1"/>
        <pt x="510" y="-100" on="1"/>
        <pt x="510" y="670" on="1"/>
        <pt x="252" y="670" on="1"/>
        <pt x="252" y="-100" on="1"/>
      </contour>
    </TTGlyph>
    <TTGlyph name="q" xMin="80" yMin="-100" xMax="570" yMax="650">
      <contour>
        <pt x="362" y="0" on="1"/>
        <pt x="362" y="-100" on="1"/>
        <pt x="287" y="-100" on="1"/>
        <pt x="287" y="0" on="1"/>
        <pt x="184" y="0" on="1"/>
        <pt x="80" y="110" on="1"/>
        <pt x="80" y="540" on="1"/>
        <pt x="184" y="650" on="1"/>
        <pt x="466" y="650" on="1"/>
        <pt x="570" y="540" on="1"/>
        <pt x="570" y="110" on="1"/>
        <pt x="466" y="0" on="1"/>
      </contour>
      <contour>
        <pt x="287" y="86" on="1"/>
        <pt x="287" y="206" on="1"/>
        <pt x="362" y="206" on="1"/>
        <pt x="362" y="86" on="1"/>
        <pt x="426" y="86" on="1"/>
        <pt x="478" y="139" on="1"/>
        <pt x="478" y="511" on="1"/>
        <pt x="427" y="564" on="1"/>
        <pt x="224" y="564" on="1"/>
        <pt x="172" y="511" on="1"/>
        <pt x="172" y="139" on="1"/>
        <pt x="223" y="86" on="1"/>
      </contour>
    </TTGlyph>
    <TTGlyph name="question" xMin="60" yMin="0" xMax="459" yMax="750">
      <contour>
        <pt x="143" y="514" on="1"/>
        <pt x="60" y="514" on="1"/>
        <pt x="60" y="640" on="1"/>
        <pt x="164" y="750" on="1"/>
        <pt x="355" y="750" on="1"/>
        <pt x="459" y="640" on="1"/>
        <pt x="459" y="444" on="1"/>
        <pt x="248" y="214" on="1"/>
        <pt x="188" y="274" on="1"/>
        <pt x="367" y="473" on="1"/>
        <pt x="367" y="611" on="1"/>
        <pt x="315" y="664" on="1"/>
        <pt x="203" y="664" on="1"/>
        <pt x="143" y="602" on="1"/>
      </contour>
      <contour>
        <pt x="189" y="120" on="1"/>
        <pt x="289" y="120" on="1"/>
        <pt x="289" y="0" on="1"/>
        <pt x="189" y="0" on="1"/>
      </contour>
    </TTGlyph>
    <TTGlyph name="questiondown" xMin="60" yMin="-100" xMax="459" yMax="650">
      <contour>
        <pt x="376" y="136" on="1"/>
        <pt x="459" y="136" on="1"/>
        <pt x="459" y="10" on="1"/>
        <pt x="355" y="-100" on="1"/>
        <pt x="164" y="-100" on="1"/>
        <pt x="60" y="10" on="1"/>
        <pt x="60" y="206" on="1"/>
        <pt x="271" y="436" on="1"/>
        <pt x="331" y="376" on="1"/>
        <pt x="152" y="177" on="1"/>
        <pt x="152" y="39" on="1"/>
        <pt x="204" y="-14" on="1"/>
        <pt x="316" y="-14" on="1"/>
        <pt x="376" y="48" on="1"/>
      </contour>
      <contour>
        <pt x="330" y="530" on="1"/>
        <pt x="230" y="530" on="1"/>
        <pt x="230" y="650" on="1"/>
        <pt x="330" y="650" on="1"/>
      </contour>
    </TTGlyph>
    <TTGlyph name="quotedbl" xMin="70" yMin="550" xMax="330" yMax="800">
      <contour>
        <pt x="70" y="800" on="1"/>
        <pt x="170" y="800" on="1"/>
        <pt x="170" y="700" on="1"/>
        <pt x="140" y="550" on="1"/>
        <pt x="100" y="550" on="1"/>
        <pt x="70" y="700" on="1"/>
      </contour>
      <contour>
        <pt x="230" y="800" on="1"/>
        <pt x="330" y="800" on="1"/>
        <pt x="330" y="700" on="1"/>
        <pt x="300" y="550" on="1"/>
        <pt x="260" y="550" on="1"/>
        <pt x="230" y="700" on="1"/>
      </contour>
    </TTGlyph>
    <TTGlyph name="quotedblbase" xMin="50" yMin="-130" xMax="310" yMax="120">
      <contour>
        <pt x="210" y="120" on="1"/>
        <pt x="310" y="120" on="1"/>
        <pt x="310" y="30" on="1"/>
        <pt x="250" y="-130" on="1"/>
        <pt x="210" y="-130" on="1"/>
      </contour>
      <contour>
        <pt x="50" y="120" on="1"/>
        <pt x="150" y="120" on="1"/>
        <pt x="150" y="30" on="1"/>
        <pt x="90" y="-130" on="1"/>
        <pt x="50" y="-130" on="1"/>
      </contour>
    </TTGlyph>
    <TTGlyph name="quotedblleft" xMin="70" yMin="550" xMax="330" yMax="800">
      <contour>
        <pt x="170" y="550" on="1"/>
        <pt x="70" y="550" on="1"/>
        <pt x="70" y="640" on="1"/>
        <pt x="130" y="800" on="1"/>
        <pt x="170" y="800" on="1"/>
      </contour>
      <contour>
        <pt x="330" y="550" on="1"/>
        <pt x="230" y="550" on="1"/>
        <pt x="230" y="640" on="1"/>
        <pt x="290" y="800" on="1"/>
        <pt x="330" y="800" on="1"/>
      </contour>
    </TTGlyph>
    <TTGlyph name="quotedblright" xMin="70" yMin="550" xMax="330" yMax="800">
      <contour>
        <pt x="230" y="800" on="1"/>
        <pt x="330" y="800" on="1"/>
        <pt x="330" y="710" on="1"/>
        <pt x="270" y="550" on="1"/>
        <pt x="230" y="550" on="1"/>
      </contour>
      <contour>
        <pt x="70" y="800" on="1"/>
        <pt x="170" y="800" on="1"/>
        <pt x="170" y="710" on="1"/>
        <pt x="110" y="550" on="1"/>
        <pt x="70" y="550" on="1"/>
      </contour>
    </TTGlyph>
    <TTGlyph name="quoteleft" xMin="70" yMin="550" xMax="170" yMax="800">
      <contour>
        <pt x="170" y="550" on="1"/>
        <pt x="70" y="550" on="1"/>
        <pt x="70" y="640" on="1"/>
        <pt x="130" y="800" on="1"/>
        <pt x="170" y="800" on="1"/>
      </contour>
    </TTGlyph>
    <TTGlyph name="quoteright" xMin="70" yMin="550" xMax="170" yMax="800">
      <contour>
        <pt x="70" y="800" on="1"/>
        <pt x="170" y="800" on="1"/>
        <pt x="170" y="710" on="1"/>
        <pt x="110" y="550" on="1"/>
        <pt x="70" y="550" on="1"/>
      </contour>
    </TTGlyph>
    <TTGlyph name="quotesinglbase" xMin="50" yMin="-130" xMax="150" yMax="120">
      <contour>
        <pt x="50" y="120" on="1"/>
        <pt x="150" y="120" on="1"/>
        <pt x="150" y="30" on="1"/>
        <pt x="90" y="-130" on="1"/>
        <pt x="50" y="-130" on="1"/>
      </contour>
    </TTGlyph>
    <TTGlyph name="quotesingle" xMin="70" yMin="550" xMax="170" yMax="800">
      <contour>
        <pt x="70" y="800" on="1"/>
        <pt x="170" y="800" on="1"/>
        <pt x="170" y="700" on="1"/>
        <pt x="140" y="550" on="1"/>
        <pt x="100" y="550" on="1"/>
        <pt x="70" y="700" on="1"/>
      </contour>
    </TTGlyph>
    <TTGlyph name="r" xMin="80" yMin="0" xMax="629" yMax="650">
      <contour>
        <pt x="80" y="650" on="1"/>
        <pt x="480" y="650" on="1"/>
        <pt x="584" y="540" on="1"/>
        <pt x="584" y="340" on="1"/>
        <pt x="483" y="234" on="1"/>
        <pt x="576" y="80" on="1"/>
        <pt x="629" y="80" on="1"/>
        <pt x="629" y="0" on="1"/>
        <pt x="451" y="0" on="1"/>
        <pt x="451" y="80" on="1"/>
        <pt x="479" y="80" on="1"/>
        <pt x="389" y="230" on="1"/>
        <pt x="242" y="230" on="1"/>
        <pt x="242" y="80" on="1"/>
        <pt x="302" y="80" on="1"/>
        <pt x="302" y="0" on="1"/>
        <pt x="80" y="0" on="1"/>
        <pt x="80" y="80" on="1"/>
        <pt x="150" y="80" on="1"/>
        <pt x="150" y="570" on="1"/>
        <pt x="80" y="570" on="1"/>
      </contour>
      <contour>
        <pt x="242" y="564" on="1"/>
        <pt x="242" y="316" on="1"/>
        <pt x="440" y="316" on="1"/>
        <pt x="498" y="375" on="1"/>
        <pt x="498" y="505" on="1"/>
        <pt x="441" y="564" on="1"/>
      </contour>
    </TTGlyph>
    <TTGlyph name="radical" xMin="40" yMin="-100" xMax="672" yMax="850">
      <contour>
        <pt x="672" y="850" on="1"/>
        <pt x="672" y="780" on="1"/>
        <pt x="532" y="780" on="1"/>
        <pt x="319" y="-100" on="1"/>
        <pt x="180" y="-100" on="1"/>
        <pt x="40" y="282" on="1"/>
        <pt x="120" y="311" on="1"/>
        <pt x="245" y="-32" on="1"/>
        <pt x="459" y="850" on="1"/>
      </contour>
    </TTGlyph>
    <TTGlyph name="registered" xMin="100" yMin="261" xMax="600" yMax="801">
      <contour>
        <pt x="188" y="261" on="1"/>
        <pt x="100" y="353" on="1"/>
        <pt x="100" y="708" on="1"/>
        <pt x="188" y="801" on="1"/>
        <pt x="512" y="801" on="1"/>
        <pt x="600" y="708" on="1"/>
        <pt x="600" y="353" on="1"/>
        <pt x="512" y="261" on="1"/>
      </contour>
      <contour>
        <pt x="150" y="374" on="1"/>
        <pt x="209" y="311" on="1"/>
        <pt x="491" y="311" on="1"/>
        <pt x="550" y="374" on="1"/>
        <pt x="550" y="688" on="1"/>
        <pt x="489" y="751" on="1"/>
        <pt x="210" y="751" on="1"/>
        <pt x="150" y="688" on="1"/>
      </contour>
      <contour>
        <pt x="221" y="708" on="1"/>
        <pt x="425" y="708" on="1"/>
        <pt x="489" y="639" on="1"/>
        <pt x="489" y="536" on="1"/>
        <pt x="444" y="487" on="1"/>
        <pt x="492" y="418" on="1"/>
        <pt x="492" y="354" on="1"/>
        <pt x="413" y="354" on="1"/>
        <pt x="413" y="408" on="1"/>
        <pt x="372" y="467" on="1"/>
        <pt x="291" y="467" on="1"/>
        <pt x="291" y="354" on="1"/>
        <pt x="221" y="354" on="1"/>
      </contour>
      <contour>
        <pt x="291" y="640" on="1"/>
        <pt x="291" y="535" on="1"/>
        <pt x="395" y="535" on="1"/>
        <pt x="423" y="563" on="1"/>
        <pt x="423" y="612" on="1"/>
        <pt x="396" y="640" on="1"/>
      </contour>
    </TTGlyph>
    <TTGlyph name="ring" xMin="50" yMin="701" xMax="207" yMax="853">
      <contour>
        <pt x="85" y="701" on="1"/>
        <pt x="50" y="738" on="1"/>
        <pt x="50" y="816" on="1"/>
        <pt x="85" y="853" on="1"/>
        <pt x="172" y="853" on="1"/>
        <pt x="207" y="816" on="1"/>
        <pt x="207" y="738" on="1"/>
        <pt x="172" y="701" on="1"/>
      </contour>
      <contour>
        <pt x="94" y="742" on="1"/>
        <pt x="163" y="742" on="1"/>
        <pt x="163" y="812" on="1"/>
        <pt x="94" y="812" on="1"/>
      </contour>
    </TTGlyph>
    <TTGlyph name="s" xMin="70" yMin="0" xMax="530" yMax="650">
      <contour>
        <pt x="520" y="414" on="1"/>
        <pt x="437" y="414" on="1"/>
        <pt x="437" y="502" on="1"/>
        <pt x="377" y="564" on="1"/>
        <pt x="224" y="564" on="1"/>
        <pt x="172" y="511" on="1"/>
        <pt x="172" y="413" on="1"/>
        <pt x="221" y="363" on="1"/>
        <pt x="429" y="363" on="1"/>
        <pt x="530" y="257" on="1"/>
        <pt x="530" y="110" on="1"/>
        <pt x="426" y="0" on="1"/>
        <pt x="174" y="0" on="1"/>
        <pt x="70" y="110" on="1"/>
        <pt x="70" y="236" on="1"/>
        <pt x="153" y="236" on="1"/>
        <pt x="153" y="148" on="1"/>
        <pt x="214" y="86" on="1"/>
        <pt x="387" y="86" on="1"/>
        <pt x="438" y="139" on="1"/>
        <pt x="438" y="228" on="1"/>
        <pt x="390" y="277" on="1"/>
        <pt x="182" y="277" on="1"/>
        <pt x="80" y="384" on="1"/>
        <pt x="80" y="540" on="1"/>
        <pt x="184" y="650" on="1"/>
        <pt x="416" y="650" on="1"/>
        <pt x="520" y="540" on="1"/>
      </contour>
    </TTGlyph>
    <TTGlyph name="scaron" xMin="70" yMin="0" xMax="530" yMax="816">
      <contour>
        <pt x="520" y="414" on="1"/>
        <pt x="437" y="414" on="1"/>
        <pt x="437" y="502" on="1"/>
        <pt x="377" y="564" on="1"/>
        <pt x="224" y="564" on="1"/>
        <pt x="172" y="511" on="1"/>
        <pt x="172" y="413" on="1"/>
        <pt x="221" y="363" on="1"/>
        <pt x="429" y="363" on="1"/>
        <pt x="530" y="257" on="1"/>
        <pt x="530" y="110" on="1"/>
        <pt x="426" y="0" on="1"/>
        <pt x="174" y="0" on="1"/>
        <pt x="70" y="110" on="1"/>
        <pt x="70" y="236" on="1"/>
        <pt x="153" y="236" on="1"/>
        <pt x="153" y="148" on="1"/>
        <pt x="214" y="86" on="1"/>
        <pt x="387" y="86" on="1"/>
        <pt x="438" y="139" on="1"/>
        <pt x="438" y="228" on="1"/>
        <pt x="390" y="277" on="1"/>
        <pt x="182" y="277" on="1"/>
        <pt x="80" y="384" on="1"/>
        <pt x="80" y="540" on="1"/>
        <pt x="184" y="650" on="1"/>
        <pt x="416" y="650" on="1"/>
        <pt x="520" y="540" on="1"/>
      </contour>
      <contour>
        <pt x="349" y="711" on="1"/>
        <pt x="250" y="711" on="1"/>
        <pt x="161" y="788" on="1"/>
        <pt x="174" y="816" on="1"/>
        <pt x="256" y="816" on="1"/>
        <pt x="299" y="767" on="1"/>
        <pt x="343" y="816" on="1"/>
        <pt x="425" y="816" on="1"/>
        <pt x="438" y="788" on="1"/>
      </contour>
    </TTGlyph>
    <TTGlyph name="section" xMin="70" yMin="-100" xMax="530" yMax="750">
      <contour>
        <pt x="70" y="136" on="1"/>
        <pt x="153" y="136" on="1"/>
        <pt x="153" y="48" on="1"/>
        <pt x="214" y="-14" on="1"/>
        <pt x="387" y="-14" on="1"/>
        <pt x="438" y="39" on="1"/>
        <pt x="438" y="128" on="1"/>
        <pt x="390" y="177" on="1"/>
        <pt x="202" y="177" on="1"/>
        <pt x="100" y="284" on="1"/>
        <pt x="100" y="390" on="1"/>
        <pt x="134" y="427" on="1"/>
        <pt x="80" y="484" on="1"/>
        <pt x="80" y="640" on="1"/>
        <pt x="184" y="750" on="1"/>
        <pt x="416" y="750" on="1"/>
        <pt x="520" y="640" on="1"/>
        <pt x="520" y="514" on="1"/>
        <pt x="437" y="514" on="1"/>
        <pt x="437" y="602" on="1"/>
        <pt x="377" y="664" on="1"/>
        <pt x="224" y="664" on="1"/>
        <pt x="172" y="611" on="1"/>
        <pt x="172" y="513" on="1"/>
        <pt x="221" y="463" on="1"/>
        <pt x="409" y="463" on="1"/>
        <pt x="510" y="357" on="1"/>
        <pt x="510" y="260" on="1"/>
        <pt x="471" y="218" on="1"/>
        <pt x="530" y="157" on="1"/>
        <pt x="530" y="10" on="1"/>
        <pt x="426" y="-100" on="1"/>
        <pt x="174" y="-100" on="1"/>
        <pt x="70" y="10" on="1"/>
      </contour>
      <contour>
        <pt x="370" y="377" on="1"/>
        <pt x="207" y="377" on="1"/>
        <pt x="192" y="361" on="1"/>
        <pt x="192" y="313" on="1"/>
        <pt x="241" y="263" on="1"/>
        <pt x="392" y="263" on="1"/>
        <pt x="418" y="289" on="1"/>
        <pt x="418" y="328" on="1"/>
      </contour>
    </TTGlyph>
    <TTGlyph name="semicolon" xMin="50" yMin="-130" xMax="150" yMax="520">
      <contour>
        <pt x="50" y="120" on="1"/>
        <pt x="150" y="120" on="1"/>
        <pt x="150" y="30" on="1"/>
        <pt x="90" y="-130" on="1"/>
        <pt x="50" y="-130" on="1"/>
      </contour>
      <contour>
        <pt x="50" y="520" on="1"/>
        <pt x="150" y="520" on="1"/>
        <pt x="150" y="400" on="1"/>
        <pt x="50" y="400" on="1"/>
      </contour>
    </TTGlyph>
    <TTGlyph name="seven" xMin="90" yMin="0" xMax="556" yMax="750">
      <contour>
        <pt x="159" y="80" on="1"/>
        <pt x="234" y="80" on="1"/>
        <pt x="461" y="670" on="1"/>
        <pt x="170" y="670" on="1"/>
        <pt x="170" y="554" on="1"/>
        <pt x="90" y="554" on="1"/>
        <pt x="90" y="750" on="1"/>
        <pt x="556" y="750" on="1"/>
        <pt x="556" y="670" on="1"/>
        <pt x="329" y="80" on="1"/>
        <pt x="411" y="80" on="1"/>
        <pt x="411" y="0" on="1"/>
        <pt x="159" y="0" on="1"/>
      </contour>
    </TTGlyph>
    <TTGlyph name="six" xMin="100" yMin="0" xMax="560" yMax="750">
      <contour>
        <pt x="100" y="110" on="1"/>
        <pt x="100" y="640" on="1"/>
        <pt x="204" y="750" on="1"/>
        <pt x="436" y="750" on="1"/>
        <pt x="540" y="640" on="1"/>
        <pt x="540" y="514" on="1"/>
        <pt x="457" y="514" on="1"/>
        <pt x="457" y="602" on="1"/>
        <pt x="397" y="664" on="1"/>
        <pt x="244" y="664" on="1"/>
        <pt x="187" y="606" on="1"/>
        <pt x="187" y="433" on="1"/>
        <pt x="459" y="433" on="1"/>
        <pt x="560" y="327" on="1"/>
        <pt x="560" y="110" on="1"/>
        <pt x="456" y="0" on="1"/>
        <pt x="204" y="0" on="1"/>
      </contour>
      <contour>
        <pt x="187" y="353" on="1"/>
        <pt x="187" y="144" on="1"/>
        <pt x="244" y="86" on="1"/>
        <pt x="417" y="86" on="1"/>
        <pt x="468" y="139" on="1"/>
        <pt x="468" y="298" on="1"/>
        <pt x="414" y="353" on="1"/>
      </contour>
    </TTGlyph>
    <TTGlyph name="slash" xMin="5" yMin="-80" xMax="387" yMax="830">
      <contour>
        <pt x="5" y="-80" on="1"/>
        <pt x="310" y="830" on="1"/>
        <pt x="387" y="830" on="1"/>
        <pt x="82" y="-80" on="1"/>
      </contour>
    </TTGlyph>
    <TTGlyph name="sterling" xMin="79" yMin="0" xMax="565" yMax="750">
      <contour>
        <pt x="97" y="404" on="1"/>
        <pt x="159" y="404" on="1"/>
        <pt x="159" y="640" on="1"/>
        <pt x="263" y="750" on="1"/>
        <pt x="475" y="750" on="1"/>
        <pt x="557" y="664" on="1"/>
        <pt x="496" y="603" on="1"/>
        <pt x="436" y="664" on="1"/>
        <pt x="303" y="664" on="1"/>
        <pt x="251" y="611" on="1"/>
        <pt x="251" y="404" on="1"/>
        <pt x="466" y="404" on="1"/>
        <pt x="466" y="334" on="1"/>
        <pt x="251" y="334" on="1"/>
        <pt x="251" y="188" on="1"/>
        <pt x="203" y="80" on="1"/>
        <pt x="485" y="80" on="1"/>
        <pt x="485" y="196" on="1"/>
        <pt x="565" y="196" on="1"/>
        <pt x="565" y="0" on="1"/>
        <pt x="79" y="0" on="1"/>
        <pt x="79" y="80" on="1"/>
        <pt x="109" y="80" on="1"/>
        <pt x="159" y="192" on="1"/>
        <pt x="159" y="334" on="1"/>
        <pt x="97" y="334" on="1"/>
      </contour>
    </TTGlyph>
    <TTGlyph name="summation" xMin="90" yMin="-100" xMax="592" yMax="750">
      <contour>
        <pt x="90" y="750" on="1"/>
        <pt x="592" y="750" on="1"/>
        <pt x="592" y="670" on="1"/>
        <pt x="194" y="670" on="1"/>
        <pt x="414" y="324" on="1"/>
        <pt x="194" y="-20" on="1"/>
        <pt x="592" y="-20" on="1"/>
        <pt x="592" y="-100" on="1"/>
        <pt x="90" y="-100" on="1"/>
        <pt x="90" y="-20" on="1"/>
        <pt x="310" y="324" on="1"/>
        <pt x="90" y="670" on="1"/>
      </contour>
    </TTGlyph>
    <TTGlyph name="t" xMin="30" yMin="0" xMax="550" yMax="650">
      <contour>
        <pt x="436" y="0" on="1"/>
        <pt x="144" y="0" on="1"/>
        <pt x="144" y="80" on="1"/>
        <pt x="244" y="80" on="1"/>
        <pt x="244" y="570" on="1"/>
        <pt x="106" y="570" on="1"/>
        <pt x="106" y="454" on="1"/>
        <pt x="30" y="454" on="1"/>
        <pt x="30" y="650" on="1"/>
        <pt x="550" y="650" on="1"/>
        <pt x="550" y="454" on="1"/>
        <pt x="474" y="454" on="1"/>
        <pt x="474" y="570" on="1"/>
        <pt x="336" y="570" on="1"/>
        <pt x="336" y="80" on="1"/>
        <pt x="436" y="80" on="1"/>
      </contour>
    </TTGlyph>
    <TTGlyph name="thorn" xMin="80" yMin="0" xMax="584" yMax="650">
      <contour>
        <pt x="80" y="650" on="1"/>
        <pt x="242" y="650" on="1"/>
        <pt x="242" y="534" on="1"/>
        <pt x="480" y="534" on="1"/>
        <pt x="584" y="424" on="1"/>
        <pt x="584" y="234" on="1"/>
        <pt x="480" y="124" on="1"/>
        <pt x="242" y="124" on="1"/>
        <pt x="242" y="0" on="1"/>
        <pt x="80" y="0" on="1"/>
        <pt x="80" y="80" on="1"/>
        <pt x="150" y="80" on="1"/>
        <pt x="150" y="570" on="1"/>
        <pt x="80" y="570" on="1"/>
      </contour>
      <contour>
        <pt x="242" y="448" on="1"/>
        <pt x="242" y="210" on="1"/>
        <pt x="440" y="210" on="1"/>
        <pt x="498" y="269" on="1"/>
        <pt x="498" y="389" on="1"/>
        <pt x="441" y="448" on="1"/>
      </contour>
    </TTGlyph>
    <TTGlyph name="three" xMin="89" yMin="0" xMax="549" yMax="750">
      <contour>
        <pt x="232" y="333" on="1"/>
        <pt x="232" y="413" on="1"/>
        <pt x="390" y="413" on="1"/>
        <pt x="438" y="462" on="1"/>
        <pt x="438" y="611" on="1"/>
        <pt x="386" y="664" on="1"/>
        <pt x="233" y="664" on="1"/>
        <pt x="173" y="602" on="1"/>
        <pt x="173" y="514" on="1"/>
        <pt x="90" y="514" on="1"/>
        <pt x="90" y="640" on="1"/>
        <pt x="194" y="750" on="1"/>
        <pt x="426" y="750" on="1"/>
        <pt x="530" y="640" on="1"/>
        <pt x="530" y="433" on="1"/>
        <pt x="479" y="380" on="1"/>
        <pt x="549" y="307" on="1"/>
        <pt x="549" y="110" on="1"/>
        <pt x="445" y="0" on="1"/>
        <pt x="193" y="0" on="1"/>
        <pt x="89" y="110" on="1"/>
        <pt x="89" y="236" on="1"/>
        <pt x="172" y="236" on="1"/>
        <pt x="172" y="148" on="1"/>
        <pt x="233" y="86" on="1"/>
        <pt x="406" y="86" on="1"/>
        <pt x="457" y="139" on="1"/>
        <pt x="457" y="278" on="1"/>
        <pt x="403" y="333" on="1"/>
      </contour>
    </TTGlyph>
    <TTGlyph name="threequarters" xMin="55" yMin="-35" xMax="830" yMax="784">
      <contour>
        <pt x="723" y="0" on="1"/>
        <pt x="723" y="108" on="1"/>
        <pt x="521" y="108" on="1"/>
        <pt x="521" y="165" on="1"/>
        <pt x="692" y="452" on="1"/>
        <pt x="794" y="452" on="1"/>
        <pt x="794" y="172" on="1"/>
        <pt x="830" y="172" on="1"/>
        <pt x="830" y="108" on="1"/>
        <pt x="794" y="108" on="1"/>
        <pt x="794" y="0" on="1"/>
      </contour>
      <contour>
        <pt x="723" y="172" on="1"/>
        <pt x="723" y="370" on="1"/>
        <pt x="605" y="172" on="1"/>
      </contour>
      <contour>
        <pt x="268" y="465" on="1"/>
        <pt x="242" y="491" on="1"/>
        <pt x="138" y="491" on="1"/>
        <pt x="138" y="555" on="1"/>
        <pt x="235" y="555" on="1"/>
        <pt x="257" y="577" on="1"/>
        <pt x="257" y="658" on="1"/>
        <pt x="233" y="682" on="1"/>
        <pt x="150" y="682" on="1"/>
        <pt x="121" y="652" on="1"/>
        <pt x="121" y="595" on="1"/>
        <pt x="56" y="595" on="1"/>
        <pt x="56" y="681" on="1"/>
        <pt x="120" y="750" on="1"/>
        <pt x="263" y="750" on="1"/>
        <pt x="328" y="681" on="1"/>
        <pt x="328" y="554" on="1"/>
        <pt x="302" y="527" on="1"/>
        <pt x="339" y="488" on="1"/>
        <pt x="339" y="367" on="1"/>
        <pt x="274" y="298" on="1"/>
        <pt x="120" y="298" on="1"/>
        <pt x="55" y="367" on="1"/>
        <pt x="55" y="452" on="1"/>
        <pt x="120" y="452" on="1"/>
        <pt x="120" y="395" on="1"/>
        <pt x="150" y="366" on="1"/>
        <pt x="245" y="366" on="1"/>
        <pt x="268" y="390" on="1"/>
      </contour>
      <contour>
        <pt x="279" y="-35" on="1"/>
        <pt x="584" y="784" on="1"/>
        <pt x="661" y="784" on="1"/>
        <pt x="356" y="-35" on="1"/>
      </contour>
    </TTGlyph>
    <TTGlyph name="threesuperior" xMin="46" yMin="330" xMax="330" yMax="782">
      <contour>
        <pt x="259" y="497" on="1"/>
        <pt x="233" y="523" on="1"/>
        <pt x="129" y="523" on="1"/>
        <pt x="129" y="587" on="1"/>
        <pt x="226" y="587" on="1"/>
        <pt x="248" y="609" on="1"/>
        <pt x="248" y="690" on="1"/>
        <pt x="224" y="714" on="1"/>
        <pt x="141" y="714" on="1"/>
        <pt x="112" y="684" on="1"/>
        <pt x="112" y="627" on="1"/>
        <pt x="47" y="627" on="1"/>
        <pt x="47" y="713" on="1"/>
        <pt x="111" y="782" on="1"/>
        <pt x="254" y="782" on="1"/>
        <pt x="319" y="713" on="1"/>
        <pt x="319" y="586" on="1"/>
        <pt x="293" y="559" on="1"/>
        <pt x="330" y="520" on="1"/>
        <pt x="330" y="399" on="1"/>
        <pt x="265" y="330" on="1"/>
        <pt x="111" y="330" on="1"/>
        <pt x="46" y="399" on="1"/>
        <pt x="46" y="484" on="1"/>
        <pt x="111" y="484" on="1"/>
        <pt x="111" y="427" on="1"/>
        <pt x="141" y="398" on="1"/>
        <pt x="236" y="398" on="1"/>
        <pt x="259" y="422" on="1"/>
      </contour>
    </TTGlyph>
    <TTGlyph name="tilde" xMin="65" yMin="711" xMax="343" yMax="816">
      <contour>
        <pt x="265" y="711" on="1"/>
        <pt x="239" y="711" on="1"/>
        <pt x="182" y="739" on="1"/>
        <pt x="150" y="711" on="1"/>
        <pt x="78" y="711" on="1"/>
        <pt x="65" y="739" on="1"/>
        <pt x="143" y="816" on="1"/>
        <pt x="169" y="816" on="1"/>
        <pt x="226" y="788" on="1"/>
        <pt x="258" y="816" on="1"/>
        <pt x="330" y="816" on="1"/>
        <pt x="343" y="788" on="1"/>
      </contour>
    </TTGlyph>
    <TTGlyph name="trademark" xMin="30" yMin="388" xMax="873" yMax="800">
      <contour>
        <pt x="731" y="452" on="1"/>
        <pt x="761" y="452" on="1"/>
        <pt x="761" y="670" on="1"/>
        <pt x="669" y="454" on="1"/>
        <pt x="604" y="454" on="1"/>
        <pt x="511" y="670" on="1"/>
        <pt x="511" y="452" on="1"/>
        <pt x="542" y="452" on="1"/>
        <pt x="542" y="388" on="1"/>
        <pt x="400" y="388" on="1"/>
        <pt x="400" y="452" on="1"/>
        <pt x="441" y="452" on="1"/>
        <pt x="441" y="736" on="1"/>
        <pt x="400" y="736" on="1"/>
        <pt x="400" y="800" on="1"/>
        <pt x="522" y="800" on="1"/>
        <pt x="636" y="545" on="1"/>
        <pt x="749" y="800" on="1"/>
        <pt x="873" y="800" on="1"/>
        <pt x="873" y="736" on="1"/>
        <pt x="833" y="736" on="1"/>
        <pt x="833" y="452" on="1"/>
        <pt x="873" y="452" on="1"/>
        <pt x="873" y="388" on="1"/>
        <pt x="731" y="388" on="1"/>
      </contour>
      <contour>
        <pt x="288" y="388" on="1"/>
        <pt x="101" y="388" on="1"/>
        <pt x="101" y="452" on="1"/>
        <pt x="159" y="452" on="1"/>
        <pt x="159" y="736" on="1"/>
        <pt x="91" y="736" on="1"/>
        <pt x="91" y="668" on="1"/>
        <pt x="30" y="668" on="1"/>
        <pt x="30" y="800" on="1"/>
        <pt x="360" y="800" on="1"/>
        <pt x="360" y="668" on="1"/>
        <pt x="298" y="668" on="1"/>
        <pt x="298" y="736" on="1"/>
        <pt x="230" y="736" on="1"/>
        <pt x="230" y="452" on="1"/>
        <pt x="288" y="452" on="1"/>
      </contour>
    </TTGlyph>
    <TTGlyph name="two" xMin="85" yMin="0" xMax="545" yMax="750">
      <contour>
        <pt x="545" y="0" on="1"/>
        <pt x="85" y="0" on="1"/>
        <pt x="85" y="80" on="1"/>
        <pt x="438" y="473" on="1"/>
        <pt x="438" y="611" on="1"/>
        <pt x="386" y="664" on="1"/>
        <pt x="233" y="664" on="1"/>
        <pt x="173" y="602" on="1"/>
        <pt x="173" y="514" on="1"/>
        <pt x="90" y="514" on="1"/>
        <pt x="90" y="640" on="1"/>
        <pt x="194" y="750" on="1"/>
        <pt x="426" y="750" on="1"/>
        <pt x="530" y="640" on="1"/>
        <pt x="530" y="444" on="1"/>
        <pt x="197" y="80" on="1"/>
        <pt x="465" y="80" on="1"/>
        <pt x="465" y="196" on="1"/>
        <pt x="545" y="196" on="1"/>
      </contour>
    </TTGlyph>
    <TTGlyph name="twosuperior" xMin="43" yMin="330" xMax="328" yMax="782">
      <contour>
        <pt x="43" y="330" on="1"/>
        <pt x="43" y="388" on="1"/>
        <pt x="248" y="617" on="1"/>
        <pt x="248" y="690" on="1"/>
        <pt x="224" y="714" on="1"/>
        <pt x="141" y="714" on="1"/>
        <pt x="112" y="684" on="1"/>
        <pt x="112" y="627" on="1"/>
        <pt x="47" y="627" on="1"/>
        <pt x="47" y="713" on="1"/>
        <pt x="111" y="782" on="1"/>
        <pt x="254" y="782" on="1"/>
        <pt x="319" y="713" on="1"/>
        <pt x="319" y="592" on="1"/>
        <pt x="138" y="394" on="1"/>
        <pt x="264" y="394" on="1"/>
        <pt x="264" y="461" on="1"/>
        <pt x="328" y="461" on="1"/>
        <pt x="328" y="330" on="1"/>
      </contour>
    </TTGlyph>
    <TTGlyph name="u" xMin="70" yMin="0" xMax="670" yMax="650">
      <contour>
        <pt x="448" y="650" on="1"/>
        <pt x="670" y="650" on="1"/>
        <pt x="670" y="570" on="1"/>
        <pt x="610" y="570" on="1"/>
        <pt x="610" y="110" on="1"/>
        <pt x="506" y="0" on="1"/>
        <pt x="234" y="0" on="1"/>
        <pt x="130" y="110" on="1"/>
        <pt x="130" y="570" on="1"/>
        <pt x="70" y="570" on="1"/>
        <pt x="70" y="650" on="1"/>
        <pt x="292" y="650" on="1"/>
        <pt x="292" y="570" on="1"/>
        <pt x="222" y="570" on="1"/>
        <pt x="222" y="139" on="1"/>
        <pt x="273" y="86" on="1"/>
        <pt x="466" y="86" on="1"/>
        <pt x="518" y="139" on="1"/>
        <pt x="518" y="570" on="1"/>
        <pt x="448" y="570" on="1"/>
      </contour>
    </TTGlyph>
    <TTGlyph name="uacute" xMin="70" yMin="0" xMax="670" yMax="826">
      <contour>
        <pt x="448" y="650" on="1"/>
        <pt x="670" y="650" on="1"/>
        <pt x="670" y="570" on="1"/>
        <pt x="610" y="570" on="1"/>
        <pt x="610" y="110" on="1"/>
        <pt x="506" y="0" on="1"/>
        <pt x="234" y="0" on="1"/>
        <pt x="130" y="110" on="1"/>
        <pt x="130" y="570" on="1"/>
        <pt x="70" y="570" on="1"/>
        <pt x="70" y="650" on="1"/>
        <pt x="292" y="650" on="1"/>
        <pt x="292" y="570" on="1"/>
        <pt x="222" y="570" on="1"/>
        <pt x="222" y="139" on="1"/>
        <pt x="273" y="86" on="1"/>
        <pt x="466" y="86" on="1"/>
        <pt x="518" y="139" on="1"/>
        <pt x="518" y="570" on="1"/>
        <pt x="448" y="570" on="1"/>
      </contour>
      <contour>
        <pt x="482" y="826" on="1"/>
        <pt x="511" y="743" on="1"/>
        <pt x="433" y="711" on="1"/>
        <pt x="301" y="711" on="1"/>
        <pt x="288" y="749" on="1"/>
      </contour>
    </TTGlyph>
    <TTGlyph name="ucircumflex" xMin="70" yMin="0" xMax="670" yMax="816">
      <contour>
        <pt x="448" y="650" on="1"/>
        <pt x="670" y="650" on="1"/>
        <pt x="670" y="570" on="1"/>
        <pt x="610" y="570" on="1"/>
        <pt x="610" y="110" on="1"/>
        <pt x="506" y="0" on="1"/>
        <pt x="234" y="0" on="1"/>
        <pt x="130" y="110" on="1"/>
        <pt x="130" y="570" on="1"/>
        <pt x="70" y="570" on="1"/>
        <pt x="70" y="650" on="1"/>
        <pt x="292" y="650" on="1"/>
        <pt x="292" y="570" on="1"/>
        <pt x="222" y="570" on="1"/>
        <pt x="222" y="139" on="1"/>
        <pt x="273" y="86" on="1"/>
        <pt x="466" y="86" on="1"/>
        <pt x="518" y="139" on="1"/>
        <pt x="518" y="570" on="1"/>
        <pt x="448" y="570" on="1"/>
      </contour>
      <contour>
        <pt x="320" y="816" on="1"/>
        <pt x="419" y="816" on="1"/>
        <pt x="508" y="739" on="1"/>
        <pt x="495" y="711" on="1"/>
        <pt x="413" y="711" on="1"/>
        <pt x="369" y="760" on="1"/>
        <pt x="326" y="711" on="1"/>
        <pt x="244" y="711" on="1"/>
        <pt x="231" y="739" on="1"/>
      </contour>
    </TTGlyph>
</ttFont>
